<mxfile host="Electron" modified="2023-02-07T17:17:28.641Z" agent="5.0 (Windows NT 10.0; Win64; x64) AppleWebKit/537.36 (KHTML, like Gecko) draw.io/20.8.16 Chrome/106.0.5249.199 Electron/21.4.0 Safari/537.36" etag="qPi14_LJyuggAzBcUMXl" compressed="false" version="20.8.16" type="device" pages="7">
  <diagram id="0JPJXDmG8Pl_pp8vaMrw" name="structure-diagram">
    <mxGraphModel dx="1050" dy="621" grid="1" gridSize="10" guides="1" tooltips="1" connect="1" arrows="1" fold="1" page="1" pageScale="1" pageWidth="1198" pageHeight="958" math="0" shadow="0">
      <root>
        <mxCell id="0" />
        <mxCell id="1" parent="0" />
      </root>
    </mxGraphModel>
  </diagram>
  <diagram id="iDP00DZ9HijVRhNShifQ" name="activity diagram">
    <mxGraphModel dx="1038" dy="641" grid="1" gridSize="10" guides="1" tooltips="1" connect="1" arrows="1" fold="1" page="1" pageScale="1" pageWidth="1654" pageHeight="1169" math="0" shadow="0">
      <root>
        <mxCell id="_pkw77P02M8s0Pjgw_2e-0" />
        <mxCell id="_pkw77P02M8s0Pjgw_2e-1" parent="_pkw77P02M8s0Pjgw_2e-0" />
        <mxCell id="7cf08i8fguOiqy8BO_Gp-176" style="edgeStyle=orthogonalEdgeStyle;jumpStyle=none;jumpSize=10;orthogonalLoop=1;jettySize=auto;html=1;entryX=0;entryY=0.5;entryDx=0;entryDy=0;endArrow=classic;endFill=1;strokeColor=#000000;rounded=1;" parent="_pkw77P02M8s0Pjgw_2e-1" source="7cf08i8fguOiqy8BO_Gp-174" target="7cf08i8fguOiqy8BO_Gp-162" edge="1">
          <mxGeometry relative="1" as="geometry">
            <Array as="points">
              <mxPoint x="210" y="990" />
            </Array>
          </mxGeometry>
        </mxCell>
        <mxCell id="7cf08i8fguOiqy8BO_Gp-173" style="edgeStyle=orthogonalEdgeStyle;jumpStyle=none;jumpSize=10;orthogonalLoop=1;jettySize=auto;html=1;entryX=0.5;entryY=0;entryDx=0;entryDy=0;endArrow=classic;endFill=1;strokeColor=#000000;rounded=1;" parent="_pkw77P02M8s0Pjgw_2e-1" source="7cf08i8fguOiqy8BO_Gp-169" target="7cf08i8fguOiqy8BO_Gp-171" edge="1">
          <mxGeometry relative="1" as="geometry" />
        </mxCell>
        <mxCell id="1Nbbd5nNj2WczVFmJ-ih-0" style="edgeStyle=orthogonalEdgeStyle;orthogonalLoop=1;jettySize=auto;html=1;entryX=0;entryY=0.5;entryDx=0;entryDy=0;endArrow=block;endFill=1;strokeColor=#000000;rounded=1;" parent="_pkw77P02M8s0Pjgw_2e-1" source="ER8TDIAY5sgytSaMfXCv-0" target="ER8TDIAY5sgytSaMfXCv-16" edge="1">
          <mxGeometry relative="1" as="geometry">
            <Array as="points">
              <mxPoint x="330" y="59" />
            </Array>
          </mxGeometry>
        </mxCell>
        <mxCell id="ER8TDIAY5sgytSaMfXCv-0" value="" style="ellipse;html=1;shape=startState;fillColor=#000000;strokeColor=#007FFF;" parent="_pkw77P02M8s0Pjgw_2e-1" vertex="1">
          <mxGeometry x="318" y="16" width="24" height="24" as="geometry" />
        </mxCell>
        <mxCell id="ER8TDIAY5sgytSaMfXCv-16" value="" style="rhombus;whiteSpace=wrap;html=1;strokeColor=#000000;rounded=0;fontSize=11;labelBackgroundColor=#ffffff;endArrow=classic;" parent="_pkw77P02M8s0Pjgw_2e-1" vertex="1">
          <mxGeometry x="465" y="49" width="20" height="20" as="geometry" />
        </mxCell>
        <mxCell id="ER8TDIAY5sgytSaMfXCv-17" value="client use remote" style="edgeStyle=orthogonalEdgeStyle;html=1;align=center;verticalAlign=middle;endArrow=classic;strokeColor=#000000;exitX=1;exitY=0.5;exitDx=0;exitDy=0;rounded=1;" parent="_pkw77P02M8s0Pjgw_2e-1" source="ER8TDIAY5sgytSaMfXCv-16" target="MqKF8CTbshlou4-kFXP_-30" edge="1">
          <mxGeometry x="-0.2" relative="1" as="geometry">
            <mxPoint x="1410" y="250" as="targetPoint" />
            <Array as="points">
              <mxPoint x="485" y="60" />
              <mxPoint x="1340" y="60" />
            </Array>
            <mxPoint as="offset" />
            <mxPoint x="750" y="170" as="sourcePoint" />
          </mxGeometry>
        </mxCell>
        <mxCell id="ER8TDIAY5sgytSaMfXCv-18" value="client use phone" style="edgeStyle=orthogonalEdgeStyle;html=1;align=center;verticalAlign=middle;endArrow=classic;strokeColor=#000000;entryX=0.5;entryY=0;entryDx=0;entryDy=0;rounded=1;" parent="_pkw77P02M8s0Pjgw_2e-1" source="ER8TDIAY5sgytSaMfXCv-16" target="ZbAq1CDLbEJJzYkJaT00-3" edge="1">
          <mxGeometry x="-0.3333" relative="1" as="geometry">
            <mxPoint x="700" y="206" as="targetPoint" />
            <Array as="points">
              <mxPoint x="475" y="116" />
              <mxPoint x="475" y="116" />
            </Array>
            <mxPoint as="offset" />
          </mxGeometry>
        </mxCell>
        <mxCell id="7cf08i8fguOiqy8BO_Gp-113" value="" style="edgeStyle=orthogonalEdgeStyle;jumpStyle=arc;jumpSize=10;orthogonalLoop=1;jettySize=auto;html=1;endArrow=classic;endFill=1;strokeColor=#000000;exitX=1;exitY=0.5;exitDx=0;exitDy=0;entryX=0;entryY=0.5;entryDx=0;entryDy=0;rounded=1;" parent="_pkw77P02M8s0Pjgw_2e-1" source="ZbAq1CDLbEJJzYkJaT00-3" target="7cf08i8fguOiqy8BO_Gp-112" edge="1">
          <mxGeometry relative="1" as="geometry">
            <Array as="points">
              <mxPoint x="560" y="136" />
              <mxPoint x="560" y="136" />
            </Array>
          </mxGeometry>
        </mxCell>
        <mxCell id="ZbAq1CDLbEJJzYkJaT00-3" value="open application" style="rounded=1;whiteSpace=wrap;html=1;arcSize=20;fontColor=#000000;fillColor=#66B2FF;absoluteArcSize=1;" parent="_pkw77P02M8s0Pjgw_2e-1" vertex="1">
          <mxGeometry x="415" y="116" width="120" height="40" as="geometry" />
        </mxCell>
        <mxCell id="ZbAq1CDLbEJJzYkJaT00-12" style="edgeStyle=orthogonalEdgeStyle;orthogonalLoop=1;jettySize=auto;html=1;entryX=0.5;entryY=0;entryDx=0;entryDy=0;rounded=1;" parent="_pkw77P02M8s0Pjgw_2e-1" source="ZbAq1CDLbEJJzYkJaT00-10" target="lHI932mFdE255BqjEBY5-7" edge="1">
          <mxGeometry relative="1" as="geometry">
            <mxPoint x="910" y="390" as="targetPoint" />
          </mxGeometry>
        </mxCell>
        <mxCell id="ZbAq1CDLbEJJzYkJaT00-14" value="control car" style="edgeLabel;html=1;align=center;verticalAlign=middle;resizable=0;points=[];rotation=0;" parent="ZbAq1CDLbEJJzYkJaT00-12" vertex="1" connectable="0">
          <mxGeometry x="-0.2598" y="4" relative="1" as="geometry">
            <mxPoint x="42.45" y="3.97" as="offset" />
          </mxGeometry>
        </mxCell>
        <mxCell id="ZbAq1CDLbEJJzYkJaT00-15" style="edgeStyle=orthogonalEdgeStyle;orthogonalLoop=1;jettySize=auto;html=1;exitX=0.5;exitY=1;exitDx=0;exitDy=0;rounded=1;" parent="_pkw77P02M8s0Pjgw_2e-1" source="7cf08i8fguOiqy8BO_Gp-139" target="lHI932mFdE255BqjEBY5-8" edge="1">
          <mxGeometry relative="1" as="geometry">
            <mxPoint x="504.97" y="390" as="targetPoint" />
            <mxPoint x="620" y="320" as="sourcePoint" />
            <Array as="points">
              <mxPoint x="410" y="360" />
            </Array>
          </mxGeometry>
        </mxCell>
        <mxCell id="ZbAq1CDLbEJJzYkJaT00-16" value="car status" style="edgeLabel;html=1;align=center;verticalAlign=middle;resizable=0;points=[];rotation=0;" parent="ZbAq1CDLbEJJzYkJaT00-15" vertex="1" connectable="0">
          <mxGeometry x="-0.1603" y="-2" relative="1" as="geometry">
            <mxPoint x="2" y="61" as="offset" />
          </mxGeometry>
        </mxCell>
        <mxCell id="7cf08i8fguOiqy8BO_Gp-140" style="edgeStyle=orthogonalEdgeStyle;jumpStyle=arc;jumpSize=10;orthogonalLoop=1;jettySize=auto;html=1;entryX=0.5;entryY=0;entryDx=0;entryDy=0;endArrow=classic;strokeColor=#000000;rounded=1;" parent="_pkw77P02M8s0Pjgw_2e-1" source="ZbAq1CDLbEJJzYkJaT00-10" target="7cf08i8fguOiqy8BO_Gp-139" edge="1">
          <mxGeometry relative="1" as="geometry" />
        </mxCell>
        <mxCell id="ZbAq1CDLbEJJzYkJaT00-10" value="" style="rhombus;whiteSpace=wrap;html=1;strokeColor=#000000;rounded=0;fontSize=11;labelBackgroundColor=#ffffff;endArrow=classic;" parent="_pkw77P02M8s0Pjgw_2e-1" vertex="1">
          <mxGeometry x="690" y="336" width="20" height="20" as="geometry" />
        </mxCell>
        <mxCell id="lHI932mFdE255BqjEBY5-1" style="edgeStyle=orthogonalEdgeStyle;orthogonalLoop=1;jettySize=auto;html=1;entryX=0.5;entryY=0;entryDx=0;entryDy=0;rounded=1;" parent="_pkw77P02M8s0Pjgw_2e-1" source="MqKF8CTbshlou4-kFXP_-19" target="lHI932mFdE255BqjEBY5-6" edge="1">
          <mxGeometry relative="1" as="geometry">
            <mxPoint x="790" y="440" as="targetPoint" />
          </mxGeometry>
        </mxCell>
        <mxCell id="lHI932mFdE255BqjEBY5-3" value="use car&amp;nbsp;location&lt;br&gt;services" style="edgeLabel;html=1;align=center;verticalAlign=middle;resizable=0;points=[];rotation=0;" parent="lHI932mFdE255BqjEBY5-1" vertex="1" connectable="0">
          <mxGeometry x="-0.145" y="1" relative="1" as="geometry">
            <mxPoint x="14.169999999999998" y="0.97" as="offset" />
          </mxGeometry>
        </mxCell>
        <mxCell id="lHI932mFdE255BqjEBY5-2" style="edgeStyle=orthogonalEdgeStyle;orthogonalLoop=1;jettySize=auto;html=1;entryX=0.5;entryY=0;entryDx=0;entryDy=0;exitX=0;exitY=0.5;exitDx=0;exitDy=0;rounded=1;" parent="_pkw77P02M8s0Pjgw_2e-1" source="MqKF8CTbshlou4-kFXP_-19" target="lHI932mFdE255BqjEBY5-5" edge="1">
          <mxGeometry relative="1" as="geometry">
            <mxPoint x="610" y="470" as="targetPoint" />
          </mxGeometry>
        </mxCell>
        <mxCell id="lHI932mFdE255BqjEBY5-4" value="lock/unlock&lt;br&gt;car" style="edgeLabel;html=1;align=center;verticalAlign=middle;resizable=0;points=[];rotation=0;" parent="lHI932mFdE255BqjEBY5-2" vertex="1" connectable="0">
          <mxGeometry x="-0.3323" y="-1" relative="1" as="geometry">
            <mxPoint x="23" y="1" as="offset" />
          </mxGeometry>
        </mxCell>
        <mxCell id="ZbAq1CDLbEJJzYkJaT00-13" value="" style="rhombus;whiteSpace=wrap;html=1;strokeColor=#000000;rounded=0;fontSize=11;labelBackgroundColor=#ffffff;endArrow=classic;" parent="_pkw77P02M8s0Pjgw_2e-1" vertex="1">
          <mxGeometry x="690" y="390" width="20" as="geometry" />
        </mxCell>
        <mxCell id="7cf08i8fguOiqy8BO_Gp-2" style="edgeStyle=orthogonalEdgeStyle;jumpStyle=arc;jumpSize=10;orthogonalLoop=1;jettySize=auto;html=1;rounded=1;" parent="_pkw77P02M8s0Pjgw_2e-1" source="lHI932mFdE255BqjEBY5-5" target="7cf08i8fguOiqy8BO_Gp-1" edge="1">
          <mxGeometry relative="1" as="geometry" />
        </mxCell>
        <mxCell id="lHI932mFdE255BqjEBY5-5" value="open main &lt;br&gt;page" style="rounded=1;whiteSpace=wrap;html=1;arcSize=20;fontColor=#000000;fillColor=#66B2FF;" parent="_pkw77P02M8s0Pjgw_2e-1" vertex="1">
          <mxGeometry x="481" y="560" width="120" height="40" as="geometry" />
        </mxCell>
        <mxCell id="YcuZhL1TkgDXaBwocj1y-0" style="edgeStyle=orthogonalEdgeStyle;orthogonalLoop=1;jettySize=auto;html=1;entryX=0.5;entryY=0;entryDx=0;entryDy=0;rounded=1;" parent="_pkw77P02M8s0Pjgw_2e-1" source="lHI932mFdE255BqjEBY5-6" target="7cf08i8fguOiqy8BO_Gp-8" edge="1">
          <mxGeometry relative="1" as="geometry">
            <mxPoint x="841" y="590" as="targetPoint" />
          </mxGeometry>
        </mxCell>
        <mxCell id="lHI932mFdE255BqjEBY5-6" value="open location page" style="rounded=1;whiteSpace=wrap;html=1;arcSize=20;fontColor=#000000;fillColor=#66B2FF;absoluteArcSize=1;" parent="_pkw77P02M8s0Pjgw_2e-1" vertex="1">
          <mxGeometry x="787" y="430" width="120" height="40" as="geometry" />
        </mxCell>
        <mxCell id="7cf08i8fguOiqy8BO_Gp-12" style="edgeStyle=orthogonalEdgeStyle;jumpStyle=arc;jumpSize=10;orthogonalLoop=1;jettySize=auto;html=1;entryX=0.5;entryY=0;entryDx=0;entryDy=0;rounded=1;" parent="_pkw77P02M8s0Pjgw_2e-1" source="lHI932mFdE255BqjEBY5-7" target="7cf08i8fguOiqy8BO_Gp-11" edge="1">
          <mxGeometry relative="1" as="geometry" />
        </mxCell>
        <mxCell id="lHI932mFdE255BqjEBY5-7" value="open car &lt;br&gt;control page" style="rounded=1;whiteSpace=wrap;html=1;arcSize=20;fontColor=#000000;fillColor=#66B2FF;absoluteArcSize=1;" parent="_pkw77P02M8s0Pjgw_2e-1" vertex="1">
          <mxGeometry x="920" y="429" width="120" height="40" as="geometry" />
        </mxCell>
        <mxCell id="MqKF8CTbshlou4-kFXP_-63" style="edgeStyle=orthogonalEdgeStyle;orthogonalLoop=1;jettySize=auto;html=1;entryX=0.5;entryY=0;entryDx=0;entryDy=0;rounded=1;" parent="_pkw77P02M8s0Pjgw_2e-1" source="lHI932mFdE255BqjEBY5-8" target="7cf08i8fguOiqy8BO_Gp-0" edge="1">
          <mxGeometry relative="1" as="geometry">
            <mxPoint x="240.0000000000001" y="500" as="targetPoint" />
          </mxGeometry>
        </mxCell>
        <mxCell id="lHI932mFdE255BqjEBY5-8" value="open car analyzer page" style="rounded=1;whiteSpace=wrap;html=1;arcSize=20;fontColor=#000000;fillColor=#66B2FF;absoluteArcSize=1;" parent="_pkw77P02M8s0Pjgw_2e-1" vertex="1">
          <mxGeometry x="350" y="534" width="120" height="40" as="geometry" />
        </mxCell>
        <mxCell id="MqKF8CTbshlou4-kFXP_-1" style="edgeStyle=orthogonalEdgeStyle;orthogonalLoop=1;jettySize=auto;html=1;rounded=1;" parent="_pkw77P02M8s0Pjgw_2e-1" source="MqKF8CTbshlou4-kFXP_-0" target="MqKF8CTbshlou4-kFXP_-13" edge="1">
          <mxGeometry relative="1" as="geometry">
            <mxPoint x="1170" y="339.97" as="targetPoint" />
          </mxGeometry>
        </mxCell>
        <mxCell id="MqKF8CTbshlou4-kFXP_-6" value="lock/unlock&lt;br&gt;car" style="edgeLabel;html=1;align=center;verticalAlign=middle;resizable=0;points=[];rotation=0;" parent="MqKF8CTbshlou4-kFXP_-1" vertex="1" connectable="0">
          <mxGeometry x="-0.5659" y="-1" relative="1" as="geometry">
            <mxPoint x="-43.77" y="0.9399999999999988" as="offset" />
          </mxGeometry>
        </mxCell>
        <mxCell id="MqKF8CTbshlou4-kFXP_-2" style="edgeStyle=orthogonalEdgeStyle;orthogonalLoop=1;jettySize=auto;html=1;entryX=0.5;entryY=0;entryDx=0;entryDy=0;rounded=1;" parent="_pkw77P02M8s0Pjgw_2e-1" source="MqKF8CTbshlou4-kFXP_-0" target="MqKF8CTbshlou4-kFXP_-15" edge="1">
          <mxGeometry relative="1" as="geometry">
            <mxPoint x="1530" y="329.97" as="targetPoint" />
          </mxGeometry>
        </mxCell>
        <mxCell id="MqKF8CTbshlou4-kFXP_-7" value="start/turn off&lt;br&gt;car&amp;nbsp;" style="edgeLabel;html=1;align=center;verticalAlign=middle;resizable=0;points=[];rotation=0;" parent="MqKF8CTbshlou4-kFXP_-2" vertex="1" connectable="0">
          <mxGeometry x="-0.3896" y="1" relative="1" as="geometry">
            <mxPoint x="30.86" y="0.9699999999999989" as="offset" />
          </mxGeometry>
        </mxCell>
        <mxCell id="MqKF8CTbshlou4-kFXP_-0" value="" style="rhombus;whiteSpace=wrap;html=1;strokeColor=#000000;rounded=0;fontSize=11;labelBackgroundColor=#ffffff;endArrow=classic;" parent="_pkw77P02M8s0Pjgw_2e-1" vertex="1">
          <mxGeometry x="1330" y="249.97000000000003" width="20" height="20" as="geometry" />
        </mxCell>
        <mxCell id="MqKF8CTbshlou4-kFXP_-12" style="edgeStyle=orthogonalEdgeStyle;orthogonalLoop=1;jettySize=auto;html=1;exitX=0;exitY=0.5;exitDx=0;exitDy=0;entryX=0.5;entryY=0;entryDx=0;entryDy=0;rounded=1;" parent="_pkw77P02M8s0Pjgw_2e-1" source="MqKF8CTbshlou4-kFXP_-4" target="MqKF8CTbshlou4-kFXP_-14" edge="1">
          <mxGeometry relative="1" as="geometry">
            <mxPoint x="1221.94" y="379.97" as="targetPoint" />
            <mxPoint x="1300.9985714285715" y="329.9985714285714" as="sourcePoint" />
          </mxGeometry>
        </mxCell>
        <mxCell id="MqKF8CTbshlou4-kFXP_-25" value="trigger car &lt;br&gt;alarm" style="edgeLabel;html=1;align=center;verticalAlign=middle;resizable=0;points=[];rotation=0;" parent="MqKF8CTbshlou4-kFXP_-12" vertex="1" connectable="0">
          <mxGeometry x="0.2262" y="2" relative="1" as="geometry">
            <mxPoint x="17.6" y="-2.0000000000000036" as="offset" />
          </mxGeometry>
        </mxCell>
        <mxCell id="MqKF8CTbshlou4-kFXP_-18" style="edgeStyle=orthogonalEdgeStyle;orthogonalLoop=1;jettySize=auto;html=1;entryX=0.5;entryY=0;entryDx=0;entryDy=0;rounded=1;" parent="_pkw77P02M8s0Pjgw_2e-1" source="MqKF8CTbshlou4-kFXP_-4" target="MqKF8CTbshlou4-kFXP_-28" edge="1">
          <mxGeometry relative="1" as="geometry">
            <mxPoint x="1340" y="540" as="targetPoint" />
          </mxGeometry>
        </mxCell>
        <mxCell id="MqKF8CTbshlou4-kFXP_-27" value="use custom&lt;br&gt;&amp;nbsp;keys" style="edgeLabel;html=1;align=center;verticalAlign=middle;resizable=0;points=[];" parent="MqKF8CTbshlou4-kFXP_-18" vertex="1" connectable="0">
          <mxGeometry x="-0.5879" y="-1" relative="1" as="geometry">
            <mxPoint x="1" y="20.690000000000005" as="offset" />
          </mxGeometry>
        </mxCell>
        <mxCell id="MqKF8CTbshlou4-kFXP_-4" value="" style="rhombus;whiteSpace=wrap;html=1;strokeColor=#000000;rounded=0;fontSize=11;labelBackgroundColor=#ffffff;endArrow=classic;" parent="_pkw77P02M8s0Pjgw_2e-1" vertex="1">
          <mxGeometry x="1330" y="300" width="20" height="20" as="geometry" />
        </mxCell>
        <mxCell id="MqKF8CTbshlou4-kFXP_-8" style="edgeStyle=orthogonalEdgeStyle;orthogonalLoop=1;jettySize=auto;html=1;rounded=1;" parent="_pkw77P02M8s0Pjgw_2e-1" source="MqKF8CTbshlou4-kFXP_-0" edge="1">
          <mxGeometry relative="1" as="geometry">
            <mxPoint x="1340" y="300" as="targetPoint" />
            <mxPoint x="1340" y="269.97" as="sourcePoint" />
            <Array as="points">
              <mxPoint x="1340" y="300" />
            </Array>
          </mxGeometry>
        </mxCell>
        <mxCell id="7cf08i8fguOiqy8BO_Gp-44" style="edgeStyle=orthogonalEdgeStyle;jumpStyle=arc;jumpSize=10;orthogonalLoop=1;jettySize=auto;html=1;entryX=0;entryY=0.5;entryDx=0;entryDy=0;rounded=1;" parent="_pkw77P02M8s0Pjgw_2e-1" source="MqKF8CTbshlou4-kFXP_-13" target="7cf08i8fguOiqy8BO_Gp-41" edge="1">
          <mxGeometry relative="1" as="geometry">
            <Array as="points">
              <mxPoint x="1190" y="585" />
            </Array>
          </mxGeometry>
        </mxCell>
        <mxCell id="MqKF8CTbshlou4-kFXP_-13" value="press lock/unlock&lt;br&gt;button" style="rounded=1;whiteSpace=wrap;html=1;arcSize=20;fontColor=#000000;fillColor=#66B2FF;absoluteArcSize=1;" parent="_pkw77P02M8s0Pjgw_2e-1" vertex="1">
          <mxGeometry x="1130" y="415" width="100" height="40" as="geometry" />
        </mxCell>
        <mxCell id="MqKF8CTbshlou4-kFXP_-43" style="edgeStyle=orthogonalEdgeStyle;orthogonalLoop=1;jettySize=auto;html=1;entryX=0;entryY=0.5;entryDx=0;entryDy=0;rounded=1;" parent="_pkw77P02M8s0Pjgw_2e-1" source="MqKF8CTbshlou4-kFXP_-14" target="MqKF8CTbshlou4-kFXP_-37" edge="1">
          <mxGeometry relative="1" as="geometry">
            <Array as="points">
              <mxPoint x="1251" y="524" />
            </Array>
          </mxGeometry>
        </mxCell>
        <mxCell id="MqKF8CTbshlou4-kFXP_-14" value="press lock/unlock&lt;br&gt;button" style="rounded=1;whiteSpace=wrap;html=1;arcSize=20;fontColor=#000000;fillColor=#66B2FF;absoluteArcSize=1;" parent="_pkw77P02M8s0Pjgw_2e-1" vertex="1">
          <mxGeometry x="1200" y="340" width="100" height="40" as="geometry" />
        </mxCell>
        <mxCell id="7cf08i8fguOiqy8BO_Gp-42" style="edgeStyle=orthogonalEdgeStyle;jumpStyle=arc;jumpSize=10;orthogonalLoop=1;jettySize=auto;html=1;entryX=1;entryY=0.5;entryDx=0;entryDy=0;rounded=1;" parent="_pkw77P02M8s0Pjgw_2e-1" source="MqKF8CTbshlou4-kFXP_-15" target="7cf08i8fguOiqy8BO_Gp-41" edge="1">
          <mxGeometry relative="1" as="geometry">
            <Array as="points">
              <mxPoint x="1520" y="585" />
            </Array>
          </mxGeometry>
        </mxCell>
        <mxCell id="MqKF8CTbshlou4-kFXP_-15" value="press a set of defined keys" style="rounded=1;whiteSpace=wrap;html=1;arcSize=20;fontColor=#000000;fillColor=#66B2FF;absoluteArcSize=1;" parent="_pkw77P02M8s0Pjgw_2e-1" vertex="1">
          <mxGeometry x="1470" y="280" width="100" height="40" as="geometry" />
        </mxCell>
        <mxCell id="MqKF8CTbshlou4-kFXP_-22" style="edgeStyle=orthogonalEdgeStyle;orthogonalLoop=1;jettySize=auto;html=1;entryX=0.5;entryY=0;entryDx=0;entryDy=0;rounded=1;" parent="_pkw77P02M8s0Pjgw_2e-1" source="MqKF8CTbshlou4-kFXP_-19" target="MqKF8CTbshlou4-kFXP_-53" edge="1">
          <mxGeometry relative="1" as="geometry">
            <mxPoint x="700" y="610" as="targetPoint" />
            <Array as="points">
              <mxPoint x="700" y="480" />
            </Array>
          </mxGeometry>
        </mxCell>
        <mxCell id="MqKF8CTbshlou4-kFXP_-23" value="defining&amp;nbsp;&lt;br&gt;custom &lt;br&gt;operation" style="edgeLabel;html=1;align=center;verticalAlign=middle;resizable=0;points=[];" parent="MqKF8CTbshlou4-kFXP_-22" vertex="1" connectable="0">
          <mxGeometry x="-0.2771" y="-1" relative="1" as="geometry">
            <mxPoint x="1" y="0.48" as="offset" />
          </mxGeometry>
        </mxCell>
        <mxCell id="MqKF8CTbshlou4-kFXP_-42" style="edgeStyle=orthogonalEdgeStyle;orthogonalLoop=1;jettySize=auto;html=1;entryX=0.5;entryY=0;entryDx=0;entryDy=0;rounded=1;" parent="_pkw77P02M8s0Pjgw_2e-1" source="MqKF8CTbshlou4-kFXP_-28" target="MqKF8CTbshlou4-kFXP_-37" edge="1">
          <mxGeometry relative="1" as="geometry" />
        </mxCell>
        <mxCell id="MqKF8CTbshlou4-kFXP_-28" value="press custom key (set in application)" style="rounded=1;whiteSpace=wrap;html=1;arcSize=20;fontColor=#000000;fillColor=#66B2FF;absoluteArcSize=1;spacingTop=0;rotation=0;flipH=0;flipV=0;" parent="_pkw77P02M8s0Pjgw_2e-1" vertex="1">
          <mxGeometry x="1290" y="410" width="100" height="60" as="geometry" />
        </mxCell>
        <mxCell id="MqKF8CTbshlou4-kFXP_-31" style="edgeStyle=orthogonalEdgeStyle;orthogonalLoop=1;jettySize=auto;html=1;entryX=0.5;entryY=0;entryDx=0;entryDy=0;rounded=1;" parent="_pkw77P02M8s0Pjgw_2e-1" source="MqKF8CTbshlou4-kFXP_-30" target="MqKF8CTbshlou4-kFXP_-0" edge="1">
          <mxGeometry relative="1" as="geometry" />
        </mxCell>
        <mxCell id="MqKF8CTbshlou4-kFXP_-30" value="take remote controller" style="rounded=1;whiteSpace=wrap;html=1;arcSize=20;fontColor=#000000;fillColor=#66B2FF;absoluteArcSize=1;" parent="_pkw77P02M8s0Pjgw_2e-1" vertex="1">
          <mxGeometry x="1290" y="176" width="100" height="40" as="geometry" />
        </mxCell>
        <mxCell id="MqKF8CTbshlou4-kFXP_-48" style="edgeStyle=orthogonalEdgeStyle;orthogonalLoop=1;jettySize=auto;html=1;entryX=0;entryY=0.5;entryDx=0;entryDy=0;jumpStyle=arc;jumpSize=10;exitX=0;exitY=0.5;exitDx=0;exitDy=0;rounded=1;" parent="_pkw77P02M8s0Pjgw_2e-1" source="7cf08i8fguOiqy8BO_Gp-27" target="MqKF8CTbshlou4-kFXP_-30" edge="1">
          <mxGeometry relative="1" as="geometry">
            <mxPoint x="1340" y="860" as="targetPoint" />
            <mxPoint x="1260" y="780" as="sourcePoint" />
            <Array as="points">
              <mxPoint x="1150" y="880" />
              <mxPoint x="1150" y="620" />
              <mxPoint x="1110" y="620" />
              <mxPoint x="1110" y="196" />
            </Array>
          </mxGeometry>
        </mxCell>
        <mxCell id="7cf08i8fguOiqy8BO_Gp-34" value="no" style="edgeLabel;html=1;align=center;verticalAlign=middle;resizable=0;points=[];" parent="MqKF8CTbshlou4-kFXP_-48" vertex="1" connectable="0">
          <mxGeometry x="-0.9072" y="-2" relative="1" as="geometry">
            <mxPoint x="19.14" y="1.99" as="offset" />
          </mxGeometry>
        </mxCell>
        <mxCell id="7cf08i8fguOiqy8BO_Gp-43" style="edgeStyle=orthogonalEdgeStyle;jumpStyle=arc;jumpSize=10;orthogonalLoop=1;jettySize=auto;html=1;entryX=0.5;entryY=0;entryDx=0;entryDy=0;rounded=1;" parent="_pkw77P02M8s0Pjgw_2e-1" source="MqKF8CTbshlou4-kFXP_-37" target="7cf08i8fguOiqy8BO_Gp-41" edge="1">
          <mxGeometry relative="1" as="geometry" />
        </mxCell>
        <mxCell id="MqKF8CTbshlou4-kFXP_-37" value="" style="shape=rhombus;html=1;verticalLabelPosition=top;verticalAlignment=bottom;fillColor=#cce5ff;strokeColor=#36393d;" parent="_pkw77P02M8s0Pjgw_2e-1" vertex="1">
          <mxGeometry x="1330" y="514" width="20" height="20" as="geometry" />
        </mxCell>
        <mxCell id="7cf08i8fguOiqy8BO_Gp-53" value="" style="edgeStyle=orthogonalEdgeStyle;jumpStyle=arc;jumpSize=10;orthogonalLoop=1;jettySize=auto;html=1;rounded=1;" parent="_pkw77P02M8s0Pjgw_2e-1" source="MqKF8CTbshlou4-kFXP_-53" target="7cf08i8fguOiqy8BO_Gp-46" edge="1">
          <mxGeometry relative="1" as="geometry" />
        </mxCell>
        <mxCell id="MqKF8CTbshlou4-kFXP_-53" value="open custom operations page" style="rounded=1;whiteSpace=wrap;html=1;arcSize=20;fontColor=#000000;fillColor=#66B2FF;absoluteArcSize=1;" parent="_pkw77P02M8s0Pjgw_2e-1" vertex="1">
          <mxGeometry x="640" y="480" width="120" height="40" as="geometry" />
        </mxCell>
        <mxCell id="MqKF8CTbshlou4-kFXP_-19" value="" style="rhombus;whiteSpace=wrap;html=1;strokeColor=#000000;rounded=0;fontSize=11;labelBackgroundColor=#ffffff;endArrow=classic;" parent="_pkw77P02M8s0Pjgw_2e-1" vertex="1">
          <mxGeometry x="690" y="380" width="20" height="20" as="geometry" />
        </mxCell>
        <mxCell id="MqKF8CTbshlou4-kFXP_-56" style="edgeStyle=orthogonalEdgeStyle;orthogonalLoop=1;jettySize=auto;html=1;rounded=1;" parent="_pkw77P02M8s0Pjgw_2e-1" source="ZbAq1CDLbEJJzYkJaT00-10" target="MqKF8CTbshlou4-kFXP_-19" edge="1">
          <mxGeometry relative="1" as="geometry">
            <mxPoint x="700" y="320" as="sourcePoint" />
            <mxPoint x="700" y="390" as="targetPoint" />
          </mxGeometry>
        </mxCell>
        <mxCell id="7cf08i8fguOiqy8BO_Gp-148" style="edgeStyle=orthogonalEdgeStyle;jumpStyle=arc;jumpSize=10;orthogonalLoop=1;jettySize=auto;html=1;exitX=0.5;exitY=1;exitDx=0;exitDy=0;entryX=0.5;entryY=0;entryDx=0;entryDy=0;endArrow=classic;endFill=1;strokeColor=#000000;rounded=1;" parent="_pkw77P02M8s0Pjgw_2e-1" source="7cf08i8fguOiqy8BO_Gp-0" target="7cf08i8fguOiqy8BO_Gp-147" edge="1">
          <mxGeometry relative="1" as="geometry" />
        </mxCell>
        <mxCell id="7cf08i8fguOiqy8BO_Gp-0" value="car analyzer&amp;nbsp; displayed" style="rounded=1;whiteSpace=wrap;html=1;arcSize=20;fontColor=#000000;fillColor=#66B2FF;absoluteArcSize=1;" parent="_pkw77P02M8s0Pjgw_2e-1" vertex="1">
          <mxGeometry x="350" y="695" width="120" height="50" as="geometry" />
        </mxCell>
        <mxCell id="7cf08i8fguOiqy8BO_Gp-16" style="edgeStyle=orthogonalEdgeStyle;jumpStyle=arc;jumpSize=10;orthogonalLoop=1;jettySize=auto;html=1;entryX=0.5;entryY=0;entryDx=0;entryDy=0;rounded=1;" parent="_pkw77P02M8s0Pjgw_2e-1" source="7cf08i8fguOiqy8BO_Gp-1" target="7cf08i8fguOiqy8BO_Gp-15" edge="1">
          <mxGeometry relative="1" as="geometry" />
        </mxCell>
        <mxCell id="7cf08i8fguOiqy8BO_Gp-1" value="click on car lock/unlock button" style="rounded=1;whiteSpace=wrap;html=1;arcSize=20;fontColor=#000000;fillColor=#66B2FF;" parent="_pkw77P02M8s0Pjgw_2e-1" vertex="1">
          <mxGeometry x="481" y="644" width="120" height="40" as="geometry" />
        </mxCell>
        <mxCell id="7cf08i8fguOiqy8BO_Gp-73" style="edgeStyle=orthogonalEdgeStyle;jumpStyle=arc;jumpSize=10;orthogonalLoop=1;jettySize=auto;html=1;entryX=0.5;entryY=0;entryDx=0;entryDy=0;rounded=1;" parent="_pkw77P02M8s0Pjgw_2e-1" source="7cf08i8fguOiqy8BO_Gp-8" target="7cf08i8fguOiqy8BO_Gp-72" edge="1">
          <mxGeometry relative="1" as="geometry" />
        </mxCell>
        <mxCell id="7cf08i8fguOiqy8BO_Gp-8" value="location options are displayed" style="rounded=1;whiteSpace=wrap;html=1;arcSize=20;fontColor=#000000;fillColor=#66B2FF;absoluteArcSize=1;" parent="_pkw77P02M8s0Pjgw_2e-1" vertex="1">
          <mxGeometry x="787" y="510" width="120" height="70" as="geometry" />
        </mxCell>
        <mxCell id="7cf08i8fguOiqy8BO_Gp-87" style="edgeStyle=orthogonalEdgeStyle;jumpStyle=arc;jumpSize=10;orthogonalLoop=1;jettySize=auto;html=1;entryX=0.5;entryY=0;entryDx=0;entryDy=0;rounded=1;" parent="_pkw77P02M8s0Pjgw_2e-1" source="7cf08i8fguOiqy8BO_Gp-11" target="7cf08i8fguOiqy8BO_Gp-86" edge="1">
          <mxGeometry relative="1" as="geometry" />
        </mxCell>
        <mxCell id="7cf08i8fguOiqy8BO_Gp-11" value="car controls&amp;nbsp;&lt;br&gt;are displayed" style="rounded=1;whiteSpace=wrap;html=1;arcSize=20;fontColor=#000000;fillColor=#66B2FF;absoluteArcSize=1;" parent="_pkw77P02M8s0Pjgw_2e-1" vertex="1">
          <mxGeometry x="920" y="514" width="120" height="70" as="geometry" />
        </mxCell>
        <mxCell id="7cf08i8fguOiqy8BO_Gp-61" style="edgeStyle=orthogonalEdgeStyle;jumpStyle=arc;jumpSize=10;orthogonalLoop=1;jettySize=auto;html=1;entryX=0;entryY=0.5;entryDx=0;entryDy=0;rounded=1;" parent="_pkw77P02M8s0Pjgw_2e-1" source="7cf08i8fguOiqy8BO_Gp-15" target="7cf08i8fguOiqy8BO_Gp-36" edge="1">
          <mxGeometry relative="1" as="geometry">
            <Array as="points">
              <mxPoint x="540" y="954" />
            </Array>
          </mxGeometry>
        </mxCell>
        <mxCell id="7cf08i8fguOiqy8BO_Gp-15" value="car will locked/unlocked" style="rounded=1;whiteSpace=wrap;html=1;arcSize=20;fontColor=#000000;fillColor=#66B2FF;" parent="_pkw77P02M8s0Pjgw_2e-1" vertex="1">
          <mxGeometry x="481" y="760" width="120" height="70" as="geometry" />
        </mxCell>
        <mxCell id="7cf08i8fguOiqy8BO_Gp-23" style="edgeStyle=orthogonalEdgeStyle;jumpStyle=arc;jumpSize=10;orthogonalLoop=1;jettySize=auto;html=1;entryX=0;entryY=0.5;entryDx=0;entryDy=0;rounded=1;" parent="_pkw77P02M8s0Pjgw_2e-1" source="7cf08i8fguOiqy8BO_Gp-22" target="7cf08i8fguOiqy8BO_Gp-31" edge="1">
          <mxGeometry relative="1" as="geometry">
            <mxPoint x="1300" y="1010" as="targetPoint" />
            <Array as="points">
              <mxPoint x="1120" y="1060" />
              <mxPoint x="1120" y="1030" />
            </Array>
          </mxGeometry>
        </mxCell>
        <mxCell id="7cf08i8fguOiqy8BO_Gp-26" value="yes" style="edgeLabel;html=1;align=center;verticalAlign=middle;resizable=0;points=[];" parent="7cf08i8fguOiqy8BO_Gp-23" vertex="1" connectable="0">
          <mxGeometry x="-0.416" y="2" relative="1" as="geometry">
            <mxPoint x="-141" as="offset" />
          </mxGeometry>
        </mxCell>
        <mxCell id="7cf08i8fguOiqy8BO_Gp-24" style="edgeStyle=orthogonalEdgeStyle;jumpStyle=arc;jumpSize=10;orthogonalLoop=1;jettySize=auto;html=1;entryX=0;entryY=0.5;entryDx=0;entryDy=0;rounded=1;" parent="_pkw77P02M8s0Pjgw_2e-1" source="7cf08i8fguOiqy8BO_Gp-22" target="ZbAq1CDLbEJJzYkJaT00-3" edge="1">
          <mxGeometry relative="1" as="geometry">
            <mxPoint x="340" y="200" as="targetPoint" />
            <Array as="points">
              <mxPoint x="30" y="1060" />
              <mxPoint x="30" y="830" />
              <mxPoint x="130" y="830" />
              <mxPoint x="130" y="136" />
            </Array>
          </mxGeometry>
        </mxCell>
        <mxCell id="7cf08i8fguOiqy8BO_Gp-25" value="no" style="edgeLabel;html=1;align=center;verticalAlign=middle;resizable=0;points=[];" parent="7cf08i8fguOiqy8BO_Gp-24" vertex="1" connectable="0">
          <mxGeometry x="-0.895" relative="1" as="geometry">
            <mxPoint x="59" y="-2" as="offset" />
          </mxGeometry>
        </mxCell>
        <mxCell id="7cf08i8fguOiqy8BO_Gp-22" value="operation is&lt;br&gt;&amp;nbsp;done?" style="rhombus;whiteSpace=wrap;html=1;strokeColor=#000000;rounded=0;fontSize=11;labelBackgroundColor=none;endArrow=classic;" parent="_pkw77P02M8s0Pjgw_2e-1" vertex="1">
          <mxGeometry x="660" y="1020" width="80" height="80" as="geometry" />
        </mxCell>
        <mxCell id="7cf08i8fguOiqy8BO_Gp-30" style="edgeStyle=orthogonalEdgeStyle;jumpStyle=arc;jumpSize=10;orthogonalLoop=1;jettySize=auto;html=1;entryX=0.5;entryY=0;entryDx=0;entryDy=0;rounded=1;" parent="_pkw77P02M8s0Pjgw_2e-1" source="7cf08i8fguOiqy8BO_Gp-27" target="7cf08i8fguOiqy8BO_Gp-31" edge="1">
          <mxGeometry relative="1" as="geometry">
            <mxPoint x="1340" y="960" as="targetPoint" />
            <Array as="points" />
          </mxGeometry>
        </mxCell>
        <mxCell id="7cf08i8fguOiqy8BO_Gp-33" value="yes" style="edgeLabel;html=1;align=center;verticalAlign=middle;resizable=0;points=[];" parent="7cf08i8fguOiqy8BO_Gp-30" vertex="1" connectable="0">
          <mxGeometry x="-0.3459" y="-6" relative="1" as="geometry">
            <mxPoint x="5.999999999999986" y="7.590000000000003" as="offset" />
          </mxGeometry>
        </mxCell>
        <mxCell id="7cf08i8fguOiqy8BO_Gp-27" value="&lt;span&gt;operation is&lt;/span&gt;&lt;br&gt;&lt;span&gt;&amp;nbsp;done?&lt;/span&gt;" style="rhombus;whiteSpace=wrap;html=1;strokeColor=#000000;rounded=0;fontSize=11;labelBackgroundColor=none;endArrow=classic;" parent="_pkw77P02M8s0Pjgw_2e-1" vertex="1">
          <mxGeometry x="1300" y="840" width="80" height="80" as="geometry" />
        </mxCell>
        <mxCell id="7cf08i8fguOiqy8BO_Gp-32" style="edgeStyle=orthogonalEdgeStyle;jumpStyle=arc;jumpSize=10;orthogonalLoop=1;jettySize=auto;html=1;entryX=0.5;entryY=0;entryDx=0;entryDy=0;rounded=1;" parent="_pkw77P02M8s0Pjgw_2e-1" source="7cf08i8fguOiqy8BO_Gp-31" target="7cf08i8fguOiqy8BO_Gp-35" edge="1">
          <mxGeometry relative="1" as="geometry">
            <mxPoint x="1130" y="1080" as="targetPoint" />
            <Array as="points" />
          </mxGeometry>
        </mxCell>
        <mxCell id="7cf08i8fguOiqy8BO_Gp-31" value="" style="shape=rhombus;html=1;verticalLabelPosition=top;verticalAlignment=bottom;" parent="_pkw77P02M8s0Pjgw_2e-1" vertex="1">
          <mxGeometry x="1330" y="1020" width="20" height="20" as="geometry" />
        </mxCell>
        <mxCell id="7cf08i8fguOiqy8BO_Gp-35" value="" style="ellipse;html=1;shape=endState;fillColor=#000000;strokeColor=#007FFF;" parent="_pkw77P02M8s0Pjgw_2e-1" vertex="1">
          <mxGeometry x="1326" y="1070" width="30" height="30" as="geometry" />
        </mxCell>
        <mxCell id="7cf08i8fguOiqy8BO_Gp-64" style="edgeStyle=orthogonalEdgeStyle;jumpStyle=arc;jumpSize=10;orthogonalLoop=1;jettySize=auto;html=1;entryX=0.5;entryY=0;entryDx=0;entryDy=0;rounded=1;" parent="_pkw77P02M8s0Pjgw_2e-1" source="7cf08i8fguOiqy8BO_Gp-36" target="7cf08i8fguOiqy8BO_Gp-59" edge="1">
          <mxGeometry relative="1" as="geometry" />
        </mxCell>
        <mxCell id="7cf08i8fguOiqy8BO_Gp-36" value="" style="shape=rhombus;html=1;verticalLabelPosition=top;verticalAlignment=bottom;fillColor=#cce5ff;strokeColor=#36393d;" parent="_pkw77P02M8s0Pjgw_2e-1" vertex="1">
          <mxGeometry x="690" y="944" width="20" height="20" as="geometry" />
        </mxCell>
        <mxCell id="7cf08i8fguOiqy8BO_Gp-125" style="edgeStyle=orthogonalEdgeStyle;jumpStyle=arc;jumpSize=10;orthogonalLoop=1;jettySize=auto;html=1;endArrow=classic;endFill=1;strokeColor=#000000;rounded=1;" parent="_pkw77P02M8s0Pjgw_2e-1" source="7cf08i8fguOiqy8BO_Gp-41" target="7cf08i8fguOiqy8BO_Gp-124" edge="1">
          <mxGeometry relative="1" as="geometry" />
        </mxCell>
        <mxCell id="7cf08i8fguOiqy8BO_Gp-41" value="" style="shape=rhombus;html=1;verticalLabelPosition=top;verticalAlignment=bottom;fillColor=#cce5ff;strokeColor=#36393d;" parent="_pkw77P02M8s0Pjgw_2e-1" vertex="1">
          <mxGeometry x="1330" y="575" width="20" height="20" as="geometry" />
        </mxCell>
        <mxCell id="7cf08i8fguOiqy8BO_Gp-49" style="edgeStyle=orthogonalEdgeStyle;jumpStyle=arc;jumpSize=10;orthogonalLoop=1;jettySize=auto;html=1;rounded=1;" parent="_pkw77P02M8s0Pjgw_2e-1" source="7cf08i8fguOiqy8BO_Gp-46" target="7cf08i8fguOiqy8BO_Gp-47" edge="1">
          <mxGeometry relative="1" as="geometry" />
        </mxCell>
        <mxCell id="7cf08i8fguOiqy8BO_Gp-46" value="click on add list" style="rounded=1;whiteSpace=wrap;html=1;arcSize=20;fontColor=#000000;fillColor=#66B2FF;absoluteArcSize=1;" parent="_pkw77P02M8s0Pjgw_2e-1" vertex="1">
          <mxGeometry x="640" y="575" width="120" height="40" as="geometry" />
        </mxCell>
        <mxCell id="7cf08i8fguOiqy8BO_Gp-50" style="edgeStyle=orthogonalEdgeStyle;jumpStyle=arc;jumpSize=10;orthogonalLoop=1;jettySize=auto;html=1;rounded=1;" parent="_pkw77P02M8s0Pjgw_2e-1" source="7cf08i8fguOiqy8BO_Gp-47" target="7cf08i8fguOiqy8BO_Gp-48" edge="1">
          <mxGeometry relative="1" as="geometry" />
        </mxCell>
        <mxCell id="7cf08i8fguOiqy8BO_Gp-47" value="defined new custom operation" style="rounded=1;whiteSpace=wrap;html=1;arcSize=20;fontColor=#000000;fillColor=#66B2FF;absoluteArcSize=1;" parent="_pkw77P02M8s0Pjgw_2e-1" vertex="1">
          <mxGeometry x="640" y="650" width="120" height="40" as="geometry" />
        </mxCell>
        <mxCell id="7cf08i8fguOiqy8BO_Gp-57" style="edgeStyle=orthogonalEdgeStyle;jumpStyle=arc;jumpSize=10;orthogonalLoop=1;jettySize=auto;html=1;rounded=1;" parent="_pkw77P02M8s0Pjgw_2e-1" source="7cf08i8fguOiqy8BO_Gp-48" target="7cf08i8fguOiqy8BO_Gp-56" edge="1">
          <mxGeometry relative="1" as="geometry" />
        </mxCell>
        <mxCell id="7cf08i8fguOiqy8BO_Gp-48" value="set custom operation to remote or application tab" style="rounded=1;whiteSpace=wrap;html=1;arcSize=20;fontColor=#000000;fillColor=#66B2FF;absoluteArcSize=1;" parent="_pkw77P02M8s0Pjgw_2e-1" vertex="1">
          <mxGeometry x="640" y="720" width="120" height="60" as="geometry" />
        </mxCell>
        <mxCell id="7cf08i8fguOiqy8BO_Gp-58" style="edgeStyle=orthogonalEdgeStyle;jumpStyle=arc;jumpSize=10;orthogonalLoop=1;jettySize=auto;html=1;entryX=0.5;entryY=0;entryDx=0;entryDy=0;rounded=1;" parent="_pkw77P02M8s0Pjgw_2e-1" source="7cf08i8fguOiqy8BO_Gp-56" target="7cf08i8fguOiqy8BO_Gp-36" edge="1">
          <mxGeometry relative="1" as="geometry" />
        </mxCell>
        <mxCell id="7cf08i8fguOiqy8BO_Gp-83" value="yes" style="edgeLabel;html=1;align=center;verticalAlign=middle;resizable=0;points=[];" parent="7cf08i8fguOiqy8BO_Gp-58" vertex="1" connectable="0">
          <mxGeometry x="-0.2276" relative="1" as="geometry">
            <mxPoint y="-9" as="offset" />
          </mxGeometry>
        </mxCell>
        <mxCell id="7cf08i8fguOiqy8BO_Gp-84" style="edgeStyle=orthogonalEdgeStyle;jumpStyle=arc;jumpSize=10;orthogonalLoop=1;jettySize=auto;html=1;entryX=1;entryY=0.5;entryDx=0;entryDy=0;rounded=1;exitX=1;exitY=0.5;exitDx=0;exitDy=0;" parent="_pkw77P02M8s0Pjgw_2e-1" source="7cf08i8fguOiqy8BO_Gp-56" target="7cf08i8fguOiqy8BO_Gp-46" edge="1">
          <mxGeometry relative="1" as="geometry">
            <Array as="points">
              <mxPoint x="780" y="860" />
              <mxPoint x="780" y="595" />
            </Array>
          </mxGeometry>
        </mxCell>
        <mxCell id="7cf08i8fguOiqy8BO_Gp-85" value="no" style="edgeLabel;html=1;align=center;verticalAlign=middle;resizable=0;points=[];" parent="7cf08i8fguOiqy8BO_Gp-84" vertex="1" connectable="0">
          <mxGeometry x="-0.1281" y="1" relative="1" as="geometry">
            <mxPoint x="-19" y="100" as="offset" />
          </mxGeometry>
        </mxCell>
        <mxCell id="7cf08i8fguOiqy8BO_Gp-56" value="done adding&lt;br&gt;into list?" style="rhombus;whiteSpace=wrap;html=1;strokeColor=#000000;rounded=0;fontSize=11;labelBackgroundColor=none;endArrow=classic;" parent="_pkw77P02M8s0Pjgw_2e-1" vertex="1">
          <mxGeometry x="660" y="820" width="80" height="80" as="geometry" />
        </mxCell>
        <mxCell id="7cf08i8fguOiqy8BO_Gp-65" value="" style="edgeStyle=orthogonalEdgeStyle;jumpStyle=arc;jumpSize=10;orthogonalLoop=1;jettySize=auto;html=1;rounded=1;" parent="_pkw77P02M8s0Pjgw_2e-1" source="7cf08i8fguOiqy8BO_Gp-59" target="7cf08i8fguOiqy8BO_Gp-22" edge="1">
          <mxGeometry relative="1" as="geometry" />
        </mxCell>
        <mxCell id="7cf08i8fguOiqy8BO_Gp-59" value="" style="shape=rhombus;html=1;verticalLabelPosition=top;verticalAlignment=bottom;fillColor=#cce5ff;strokeColor=#36393d;" parent="_pkw77P02M8s0Pjgw_2e-1" vertex="1">
          <mxGeometry x="690" y="980" width="20" height="20" as="geometry" />
        </mxCell>
        <mxCell id="7cf08i8fguOiqy8BO_Gp-76" style="edgeStyle=orthogonalEdgeStyle;jumpStyle=arc;jumpSize=10;orthogonalLoop=1;jettySize=auto;html=1;entryX=0.5;entryY=0;entryDx=0;entryDy=0;rounded=1;" parent="_pkw77P02M8s0Pjgw_2e-1" source="7cf08i8fguOiqy8BO_Gp-72" target="7cf08i8fguOiqy8BO_Gp-78" edge="1">
          <mxGeometry relative="1" as="geometry">
            <mxPoint x="920" y="720" as="targetPoint" />
            <Array as="points">
              <mxPoint x="890" y="630" />
            </Array>
          </mxGeometry>
        </mxCell>
        <mxCell id="7cf08i8fguOiqy8BO_Gp-77" value="set location&lt;br&gt;&amp;nbsp;boundary" style="edgeLabel;html=1;align=center;verticalAlign=middle;resizable=0;points=[];" parent="7cf08i8fguOiqy8BO_Gp-76" vertex="1" connectable="0">
          <mxGeometry x="-0.7512" relative="1" as="geometry">
            <mxPoint x="19.93" y="29.97" as="offset" />
          </mxGeometry>
        </mxCell>
        <mxCell id="7cf08i8fguOiqy8BO_Gp-81" style="edgeStyle=orthogonalEdgeStyle;jumpStyle=arc;jumpSize=10;orthogonalLoop=1;jettySize=auto;html=1;entryX=0.5;entryY=0;entryDx=0;entryDy=0;rounded=1;" parent="_pkw77P02M8s0Pjgw_2e-1" source="7cf08i8fguOiqy8BO_Gp-72" target="7cf08i8fguOiqy8BO_Gp-80" edge="1">
          <mxGeometry relative="1" as="geometry" />
        </mxCell>
        <mxCell id="7cf08i8fguOiqy8BO_Gp-89" value="exit&lt;br&gt;menu" style="edgeLabel;html=1;align=center;verticalAlign=middle;resizable=0;points=[];" parent="7cf08i8fguOiqy8BO_Gp-81" vertex="1" connectable="0">
          <mxGeometry x="0.0326" y="2" relative="1" as="geometry">
            <mxPoint as="offset" />
          </mxGeometry>
        </mxCell>
        <mxCell id="7cf08i8fguOiqy8BO_Gp-72" value="" style="rhombus;whiteSpace=wrap;html=1;strokeColor=#000000;rounded=0;fontSize=11;labelBackgroundColor=#ffffff;endArrow=classic;" parent="_pkw77P02M8s0Pjgw_2e-1" vertex="1">
          <mxGeometry x="837" y="620" width="20" height="20" as="geometry" />
        </mxCell>
        <mxCell id="7cf08i8fguOiqy8BO_Gp-79" style="edgeStyle=orthogonalEdgeStyle;jumpStyle=arc;jumpSize=10;orthogonalLoop=1;jettySize=auto;html=1;entryX=1;entryY=0.5;entryDx=0;entryDy=0;rounded=1;" parent="_pkw77P02M8s0Pjgw_2e-1" source="7cf08i8fguOiqy8BO_Gp-78" target="7cf08i8fguOiqy8BO_Gp-80" edge="1">
          <mxGeometry relative="1" as="geometry">
            <mxPoint x="910" y="900" as="targetPoint" />
            <Array as="points">
              <mxPoint x="890" y="940" />
            </Array>
          </mxGeometry>
        </mxCell>
        <mxCell id="7cf08i8fguOiqy8BO_Gp-78" value="set/reset location boundary" style="rounded=1;whiteSpace=wrap;html=1;arcSize=40;fontColor=#000000;fillColor=#66B2FF;" parent="_pkw77P02M8s0Pjgw_2e-1" vertex="1">
          <mxGeometry x="830" y="700" width="120" height="40" as="geometry" />
        </mxCell>
        <mxCell id="7cf08i8fguOiqy8BO_Gp-82" style="edgeStyle=orthogonalEdgeStyle;jumpStyle=arc;jumpSize=10;orthogonalLoop=1;jettySize=auto;html=1;entryX=1;entryY=0.5;entryDx=0;entryDy=0;rounded=1;" parent="_pkw77P02M8s0Pjgw_2e-1" source="7cf08i8fguOiqy8BO_Gp-80" target="7cf08i8fguOiqy8BO_Gp-36" edge="1">
          <mxGeometry relative="1" as="geometry">
            <Array as="points">
              <mxPoint x="810" y="940" />
            </Array>
          </mxGeometry>
        </mxCell>
        <mxCell id="7cf08i8fguOiqy8BO_Gp-80" value="" style="shape=rhombus;html=1;verticalLabelPosition=top;verticalAlignment=bottom;fillColor=#cce5ff;strokeColor=#36393d;" parent="_pkw77P02M8s0Pjgw_2e-1" vertex="1">
          <mxGeometry x="800" y="930" width="20" height="20" as="geometry" />
        </mxCell>
        <mxCell id="7cf08i8fguOiqy8BO_Gp-93" style="edgeStyle=orthogonalEdgeStyle;jumpStyle=arc;jumpSize=10;orthogonalLoop=1;jettySize=auto;html=1;entryX=0.5;entryY=0;entryDx=0;entryDy=0;rounded=1;" parent="_pkw77P02M8s0Pjgw_2e-1" source="7cf08i8fguOiqy8BO_Gp-86" target="7cf08i8fguOiqy8BO_Gp-96" edge="1">
          <mxGeometry relative="1" as="geometry">
            <mxPoint x="1110" y="660" as="targetPoint" />
            <Array as="points">
              <mxPoint x="1060" y="680" />
            </Array>
          </mxGeometry>
        </mxCell>
        <mxCell id="7cf08i8fguOiqy8BO_Gp-94" value="set/reset&lt;br&gt;controls" style="edgeLabel;html=1;align=center;verticalAlign=middle;resizable=0;points=[];" parent="7cf08i8fguOiqy8BO_Gp-93" vertex="1" connectable="0">
          <mxGeometry x="-0.0684" y="6" relative="1" as="geometry">
            <mxPoint x="-39" y="-10" as="offset" />
          </mxGeometry>
        </mxCell>
        <mxCell id="7cf08i8fguOiqy8BO_Gp-95" style="edgeStyle=orthogonalEdgeStyle;jumpStyle=arc;jumpSize=10;orthogonalLoop=1;jettySize=auto;html=1;entryX=0.5;entryY=0;entryDx=0;entryDy=0;rounded=1;" parent="_pkw77P02M8s0Pjgw_2e-1" source="7cf08i8fguOiqy8BO_Gp-86" target="7cf08i8fguOiqy8BO_Gp-100" edge="1">
          <mxGeometry relative="1" as="geometry">
            <mxPoint x="980" y="820" as="targetPoint" />
          </mxGeometry>
        </mxCell>
        <mxCell id="7cf08i8fguOiqy8BO_Gp-104" value="exit&lt;br&gt;menu" style="edgeLabel;html=1;align=center;verticalAlign=middle;resizable=0;points=[];" parent="7cf08i8fguOiqy8BO_Gp-95" vertex="1" connectable="0">
          <mxGeometry x="-0.3886" y="1" relative="1" as="geometry">
            <mxPoint x="-1" y="-39" as="offset" />
          </mxGeometry>
        </mxCell>
        <mxCell id="7cf08i8fguOiqy8BO_Gp-86" value="" style="rhombus;whiteSpace=wrap;html=1;strokeColor=#000000;rounded=0;fontSize=11;labelBackgroundColor=#ffffff;endArrow=classic;" parent="_pkw77P02M8s0Pjgw_2e-1" vertex="1">
          <mxGeometry x="970" y="669" width="20" height="20" as="geometry" />
        </mxCell>
        <mxCell id="fl3ICAKCs4GLIoxHInJk-6" value="" style="edgeStyle=orthogonalEdgeStyle;shape=connector;rounded=1;jumpStyle=arc;jumpSize=10;orthogonalLoop=1;jettySize=auto;html=1;labelBackgroundColor=default;strokeColor=#000000;fontFamily=Helvetica;fontSize=11;fontColor=default;endArrow=classic;endFill=1;" parent="_pkw77P02M8s0Pjgw_2e-1" source="7cf08i8fguOiqy8BO_Gp-96" target="5h5S7gLam4Vf0ZUOAw8O-10" edge="1">
          <mxGeometry relative="1" as="geometry" />
        </mxCell>
        <mxCell id="7cf08i8fguOiqy8BO_Gp-96" value="click on property" style="rounded=1;whiteSpace=wrap;html=1;arcSize=20;fontColor=#000000;fillColor=#66B2FF;" parent="_pkw77P02M8s0Pjgw_2e-1" vertex="1">
          <mxGeometry x="1000" y="780" width="120" height="40" as="geometry" />
        </mxCell>
        <mxCell id="7cf08i8fguOiqy8BO_Gp-103" style="edgeStyle=orthogonalEdgeStyle;jumpStyle=arc;jumpSize=10;orthogonalLoop=1;jettySize=auto;html=1;entryX=1;entryY=0.5;entryDx=0;entryDy=0;rounded=1;" parent="_pkw77P02M8s0Pjgw_2e-1" source="7cf08i8fguOiqy8BO_Gp-100" target="7cf08i8fguOiqy8BO_Gp-59" edge="1">
          <mxGeometry relative="1" as="geometry">
            <Array as="points">
              <mxPoint x="950" y="990" />
              <mxPoint x="950" y="990" />
            </Array>
          </mxGeometry>
        </mxCell>
        <mxCell id="7cf08i8fguOiqy8BO_Gp-100" value="" style="shape=rhombus;html=1;verticalLabelPosition=top;verticalAlignment=bottom;fillColor=#cce5ff;strokeColor=#36393d;" parent="_pkw77P02M8s0Pjgw_2e-1" vertex="1">
          <mxGeometry x="970" y="980" width="20" height="20" as="geometry" />
        </mxCell>
        <mxCell id="7cf08i8fguOiqy8BO_Gp-107" style="jumpStyle=arc;jumpSize=10;orthogonalLoop=1;jettySize=auto;html=1;exitX=0;exitY=0;exitDx=90;exitDy=20;exitPerimeter=0;entryX=0;entryY=0.5;entryDx=0;entryDy=0;dashed=1;strokeColor=#858585;endArrow=none;endFill=0;rounded=1;" parent="_pkw77P02M8s0Pjgw_2e-1" source="7cf08i8fguOiqy8BO_Gp-106" target="ER8TDIAY5sgytSaMfXCv-0" edge="1">
          <mxGeometry relative="1" as="geometry" />
        </mxCell>
        <mxCell id="7cf08i8fguOiqy8BO_Gp-106" value="client is registered and owned remote&amp;nbsp;" style="shape=note;size=20;whiteSpace=wrap;html=1;labelBackgroundColor=none;rounded=1;fillColor=#cce5ff;arcSize=40;strokeColor=#36393d;" parent="_pkw77P02M8s0Pjgw_2e-1" vertex="1">
          <mxGeometry x="130" y="26" width="90" height="90" as="geometry" />
        </mxCell>
        <mxCell id="7cf08i8fguOiqy8BO_Gp-108" value="user done with using remote/application for now.." style="shape=note;size=20;whiteSpace=wrap;html=1;labelBackgroundColor=none;rounded=1;fillColor=#cce5ff;arcSize=40;strokeColor=#36393d;" parent="_pkw77P02M8s0Pjgw_2e-1" vertex="1">
          <mxGeometry x="1405" y="1000" width="145" height="90" as="geometry" />
        </mxCell>
        <mxCell id="7cf08i8fguOiqy8BO_Gp-115" style="edgeStyle=orthogonalEdgeStyle;jumpStyle=arc;jumpSize=10;orthogonalLoop=1;jettySize=auto;html=1;endArrow=classic;endFill=1;strokeColor=#000000;entryX=0.5;entryY=0;entryDx=0;entryDy=0;exitX=0.5;exitY=1;exitDx=0;exitDy=0;rounded=1;" parent="_pkw77P02M8s0Pjgw_2e-1" source="7cf08i8fguOiqy8BO_Gp-112" target="7cf08i8fguOiqy8BO_Gp-120" edge="1">
          <mxGeometry relative="1" as="geometry">
            <mxPoint x="852.9999999999998" y="226" as="targetPoint" />
            <Array as="points">
              <mxPoint x="700" y="196" />
              <mxPoint x="700" y="196" />
            </Array>
          </mxGeometry>
        </mxCell>
        <mxCell id="7cf08i8fguOiqy8BO_Gp-116" value="no" style="edgeLabel;html=1;align=center;verticalAlign=middle;resizable=0;points=[];" parent="7cf08i8fguOiqy8BO_Gp-115" vertex="1" connectable="0">
          <mxGeometry x="-0.1563" y="1" relative="1" as="geometry">
            <mxPoint as="offset" />
          </mxGeometry>
        </mxCell>
        <mxCell id="7cf08i8fguOiqy8BO_Gp-118" style="edgeStyle=orthogonalEdgeStyle;jumpStyle=arc;jumpSize=10;orthogonalLoop=1;jettySize=auto;html=1;entryX=0.5;entryY=0;entryDx=0;entryDy=0;endArrow=classic;endFill=1;strokeColor=#000000;rounded=1;" parent="_pkw77P02M8s0Pjgw_2e-1" source="7cf08i8fguOiqy8BO_Gp-112" target="7cf08i8fguOiqy8BO_Gp-117" edge="1">
          <mxGeometry relative="1" as="geometry" />
        </mxCell>
        <mxCell id="7cf08i8fguOiqy8BO_Gp-119" value="yes" style="edgeLabel;html=1;align=center;verticalAlign=middle;resizable=0;points=[];" parent="7cf08i8fguOiqy8BO_Gp-118" vertex="1" connectable="0">
          <mxGeometry x="-0.0568" y="1" relative="1" as="geometry">
            <mxPoint as="offset" />
          </mxGeometry>
        </mxCell>
        <mxCell id="7cf08i8fguOiqy8BO_Gp-112" value="Local Password&lt;br&gt;is required?" style="rhombus;whiteSpace=wrap;html=1;strokeColor=#000000;rounded=0;fontSize=11;labelBackgroundColor=none;endArrow=classic;" parent="_pkw77P02M8s0Pjgw_2e-1" vertex="1">
          <mxGeometry x="640" y="90" width="120" height="92" as="geometry" />
        </mxCell>
        <mxCell id="7cf08i8fguOiqy8BO_Gp-122" style="edgeStyle=orthogonalEdgeStyle;jumpStyle=arc;jumpSize=10;orthogonalLoop=1;jettySize=auto;html=1;entryX=1;entryY=0.5;entryDx=0;entryDy=0;endArrow=classic;endFill=1;strokeColor=#000000;rounded=1;" parent="_pkw77P02M8s0Pjgw_2e-1" source="7cf08i8fguOiqy8BO_Gp-117" target="7cf08i8fguOiqy8BO_Gp-120" edge="1">
          <mxGeometry relative="1" as="geometry">
            <Array as="points">
              <mxPoint x="880" y="250" />
            </Array>
          </mxGeometry>
        </mxCell>
        <mxCell id="7cf08i8fguOiqy8BO_Gp-117" value="Enter local password" style="rounded=1;whiteSpace=wrap;html=1;arcSize=20;fontColor=#000000;fillColor=#66B2FF;absoluteArcSize=1;" parent="_pkw77P02M8s0Pjgw_2e-1" vertex="1">
          <mxGeometry x="820" y="176" width="120" height="40" as="geometry" />
        </mxCell>
        <mxCell id="1Nbbd5nNj2WczVFmJ-ih-3" style="edgeStyle=orthogonalEdgeStyle;rounded=1;orthogonalLoop=1;jettySize=auto;html=1;entryX=1;entryY=0.5;entryDx=0;entryDy=0;endArrow=block;endFill=1;" parent="_pkw77P02M8s0Pjgw_2e-1" source="7cf08i8fguOiqy8BO_Gp-120" target="5h5S7gLam4Vf0ZUOAw8O-1" edge="1">
          <mxGeometry relative="1" as="geometry" />
        </mxCell>
        <mxCell id="7cf08i8fguOiqy8BO_Gp-120" value="" style="shape=rhombus;html=1;verticalLabelPosition=top;verticalAlignment=bottom;fillColor=#cce5ff;strokeColor=#36393d;" parent="_pkw77P02M8s0Pjgw_2e-1" vertex="1">
          <mxGeometry x="690" y="240" width="20" height="20" as="geometry" />
        </mxCell>
        <mxCell id="7cf08i8fguOiqy8BO_Gp-124" value="send encrypted &lt;br&gt;signal to car" style="rounded=1;whiteSpace=wrap;html=1;arcSize=40;fontColor=#000000;fillColor=#66B2FF;" parent="_pkw77P02M8s0Pjgw_2e-1" vertex="1">
          <mxGeometry x="1280" y="640" width="120" height="40" as="geometry" />
        </mxCell>
        <mxCell id="7cf08i8fguOiqy8BO_Gp-138" style="jumpStyle=arc;jumpSize=10;orthogonalLoop=1;jettySize=auto;html=1;exitX=1;exitY=0;exitDx=0;exitDy=0;entryX=0.5;entryY=1;entryDx=0;entryDy=0;entryPerimeter=0;endArrow=none;endFill=0;strokeColor=#858585;dashed=1;dashPattern=1 4;rounded=1;" parent="_pkw77P02M8s0Pjgw_2e-1" source="7cf08i8fguOiqy8BO_Gp-129" target="7cf08i8fguOiqy8BO_Gp-134" edge="1">
          <mxGeometry relative="1" as="geometry" />
        </mxCell>
        <mxCell id="fl3ICAKCs4GLIoxHInJk-2" style="edgeStyle=orthogonalEdgeStyle;shape=connector;rounded=1;jumpStyle=arc;jumpSize=10;orthogonalLoop=1;jettySize=auto;html=1;labelBackgroundColor=default;strokeColor=#000000;fontFamily=Helvetica;fontSize=11;fontColor=default;endArrow=classic;endFill=1;" parent="_pkw77P02M8s0Pjgw_2e-1" source="7cf08i8fguOiqy8BO_Gp-129" target="5h5S7gLam4Vf0ZUOAw8O-8" edge="1">
          <mxGeometry relative="1" as="geometry">
            <Array as="points">
              <mxPoint x="1525" y="760" />
            </Array>
          </mxGeometry>
        </mxCell>
        <mxCell id="7cf08i8fguOiqy8BO_Gp-129" value="encrypted&lt;br&gt;signal" style="html=1;labelBackgroundColor=none;fillColor=#cce5ff;strokeColor=#36393d;" parent="_pkw77P02M8s0Pjgw_2e-1" vertex="1">
          <mxGeometry x="1470" y="680" width="110" height="50" as="geometry" />
        </mxCell>
        <mxCell id="7cf08i8fguOiqy8BO_Gp-134" value="encrypted data using a symmetric encryption" style="shape=note;size=20;whiteSpace=wrap;html=1;labelBackgroundColor=none;rounded=1;fillColor=#cce5ff;arcSize=40;strokeColor=#36393d;" parent="_pkw77P02M8s0Pjgw_2e-1" vertex="1">
          <mxGeometry x="1550" y="530" width="90" height="90" as="geometry" />
        </mxCell>
        <mxCell id="7cf08i8fguOiqy8BO_Gp-135" style="jumpStyle=arc;jumpSize=10;orthogonalLoop=1;jettySize=auto;html=1;entryX=1;entryY=0.5;entryDx=0;entryDy=0;dashed=1;dashPattern=1 4;endArrow=none;endFill=0;strokeColor=#858585;exitX=-0.015;exitY=0.779;exitDx=0;exitDy=0;exitPerimeter=0;rounded=1;" parent="_pkw77P02M8s0Pjgw_2e-1" source="7cf08i8fguOiqy8BO_Gp-108" target="7cf08i8fguOiqy8BO_Gp-35" edge="1">
          <mxGeometry relative="1" as="geometry">
            <mxPoint x="1410" y="1000" as="sourcePoint" />
            <mxPoint x="1356" y="1085" as="targetPoint" />
          </mxGeometry>
        </mxCell>
        <mxCell id="7cf08i8fguOiqy8BO_Gp-142" style="edgeStyle=orthogonalEdgeStyle;jumpStyle=arc;jumpSize=10;orthogonalLoop=1;jettySize=auto;html=1;endArrow=classic;endFill=1;strokeColor=#000000;rounded=1;" parent="_pkw77P02M8s0Pjgw_2e-1" source="7cf08i8fguOiqy8BO_Gp-139" target="7cf08i8fguOiqy8BO_Gp-141" edge="1">
          <mxGeometry relative="1" as="geometry" />
        </mxCell>
        <mxCell id="7cf08i8fguOiqy8BO_Gp-143" value="modify settings" style="edgeLabel;html=1;align=center;verticalAlign=middle;resizable=0;points=[];" parent="7cf08i8fguOiqy8BO_Gp-142" vertex="1" connectable="0">
          <mxGeometry x="-0.0565" y="-2" relative="1" as="geometry">
            <mxPoint x="21" as="offset" />
          </mxGeometry>
        </mxCell>
        <mxCell id="7cf08i8fguOiqy8BO_Gp-139" value="" style="rhombus;whiteSpace=wrap;html=1;strokeColor=#000000;rounded=0;fontSize=11;labelBackgroundColor=#ffffff;endArrow=classic;" parent="_pkw77P02M8s0Pjgw_2e-1" vertex="1">
          <mxGeometry x="400" y="391" width="20" height="20" as="geometry" />
        </mxCell>
        <mxCell id="7cf08i8fguOiqy8BO_Gp-151" style="edgeStyle=orthogonalEdgeStyle;jumpStyle=arc;jumpSize=10;orthogonalLoop=1;jettySize=auto;html=1;entryX=0.5;entryY=0;entryDx=0;entryDy=0;endArrow=classic;endFill=1;strokeColor=#000000;rounded=1;" parent="_pkw77P02M8s0Pjgw_2e-1" source="7cf08i8fguOiqy8BO_Gp-141" target="7cf08i8fguOiqy8BO_Gp-150" edge="1">
          <mxGeometry relative="1" as="geometry" />
        </mxCell>
        <mxCell id="7cf08i8fguOiqy8BO_Gp-141" value="open settings" style="rounded=1;whiteSpace=wrap;html=1;arcSize=20;fontColor=#000000;fillColor=#66B2FF;" parent="_pkw77P02M8s0Pjgw_2e-1" vertex="1">
          <mxGeometry x="240" y="455" width="110" height="40" as="geometry" />
        </mxCell>
        <mxCell id="7cf08i8fguOiqy8BO_Gp-163" style="edgeStyle=orthogonalEdgeStyle;jumpStyle=arc;jumpSize=10;orthogonalLoop=1;jettySize=auto;html=1;entryX=0.5;entryY=0;entryDx=0;entryDy=0;endArrow=classic;endFill=1;strokeColor=#000000;rounded=1;" parent="_pkw77P02M8s0Pjgw_2e-1" source="7cf08i8fguOiqy8BO_Gp-145" target="7cf08i8fguOiqy8BO_Gp-162" edge="1">
          <mxGeometry relative="1" as="geometry" />
        </mxCell>
        <mxCell id="7cf08i8fguOiqy8BO_Gp-145" value="set/reset application settings" style="rounded=1;whiteSpace=wrap;html=1;arcSize=20;fontColor=#000000;fillColor=#66B2FF;direction=east;absoluteArcSize=1;" parent="_pkw77P02M8s0Pjgw_2e-1" vertex="1">
          <mxGeometry x="270" y="830" width="120" height="40" as="geometry" />
        </mxCell>
        <mxCell id="7cf08i8fguOiqy8BO_Gp-149" style="edgeStyle=orthogonalEdgeStyle;jumpStyle=arc;jumpSize=10;orthogonalLoop=1;jettySize=auto;html=1;exitX=1;exitY=0.5;exitDx=0;exitDy=0;entryX=0;entryY=0.5;entryDx=0;entryDy=0;endArrow=classic;endFill=1;strokeColor=#000000;rounded=1;" parent="_pkw77P02M8s0Pjgw_2e-1" source="7cf08i8fguOiqy8BO_Gp-147" target="7cf08i8fguOiqy8BO_Gp-59" edge="1">
          <mxGeometry relative="1" as="geometry" />
        </mxCell>
        <mxCell id="7cf08i8fguOiqy8BO_Gp-147" value="" style="shape=rhombus;html=1;verticalLabelPosition=top;verticalAlignment=bottom;fillColor=#cce5ff;strokeColor=#36393d;" parent="_pkw77P02M8s0Pjgw_2e-1" vertex="1">
          <mxGeometry x="490" y="979" width="20" height="20" as="geometry" />
        </mxCell>
        <mxCell id="7cf08i8fguOiqy8BO_Gp-154" style="edgeStyle=orthogonalEdgeStyle;jumpStyle=arc;jumpSize=10;orthogonalLoop=1;jettySize=auto;html=1;entryX=0.5;entryY=0;entryDx=0;entryDy=0;endArrow=classic;endFill=1;strokeColor=#000000;rounded=1;" parent="_pkw77P02M8s0Pjgw_2e-1" source="7cf08i8fguOiqy8BO_Gp-150" target="7cf08i8fguOiqy8BO_Gp-145" edge="1">
          <mxGeometry relative="1" as="geometry">
            <Array as="points">
              <mxPoint x="295" y="745" />
              <mxPoint x="330" y="745" />
            </Array>
          </mxGeometry>
        </mxCell>
        <mxCell id="7cf08i8fguOiqy8BO_Gp-160" value="application&lt;br&gt;settings" style="edgeLabel;html=1;align=center;verticalAlign=middle;resizable=0;points=[];" parent="7cf08i8fguOiqy8BO_Gp-154" vertex="1" connectable="0">
          <mxGeometry x="-0.2917" y="-4" relative="1" as="geometry">
            <mxPoint x="38.97" y="66.24" as="offset" />
          </mxGeometry>
        </mxCell>
        <mxCell id="7cf08i8fguOiqy8BO_Gp-155" style="edgeStyle=orthogonalEdgeStyle;jumpStyle=arc;jumpSize=10;orthogonalLoop=1;jettySize=auto;html=1;exitX=0;exitY=0.5;exitDx=0;exitDy=0;endArrow=classic;endFill=1;strokeColor=#000000;entryX=0.5;entryY=0;entryDx=0;entryDy=0;rounded=1;" parent="_pkw77P02M8s0Pjgw_2e-1" source="7cf08i8fguOiqy8BO_Gp-150" target="7cf08i8fguOiqy8BO_Gp-167" edge="1">
          <mxGeometry relative="1" as="geometry">
            <mxPoint x="170" y="650" as="targetPoint" />
            <Array as="points">
              <mxPoint x="210" y="620" />
            </Array>
          </mxGeometry>
        </mxCell>
        <mxCell id="7cf08i8fguOiqy8BO_Gp-159" value="cardian&amp;nbsp;&lt;br&gt;controller unit&amp;nbsp;&lt;br&gt;settings" style="edgeLabel;html=1;align=center;verticalAlign=middle;resizable=0;points=[];" parent="7cf08i8fguOiqy8BO_Gp-155" vertex="1" connectable="0">
          <mxGeometry x="-0.1012" y="-4" relative="1" as="geometry">
            <mxPoint x="-17" y="4" as="offset" />
          </mxGeometry>
        </mxCell>
        <mxCell id="7cf08i8fguOiqy8BO_Gp-150" value="" style="rhombus;whiteSpace=wrap;html=1;strokeColor=#000000;rounded=0;fontSize=11;labelBackgroundColor=#ffffff;endArrow=classic;" parent="_pkw77P02M8s0Pjgw_2e-1" vertex="1">
          <mxGeometry x="285" y="610" width="20" height="20" as="geometry" />
        </mxCell>
        <mxCell id="7cf08i8fguOiqy8BO_Gp-170" style="edgeStyle=none;jumpStyle=none;jumpSize=10;orthogonalLoop=1;jettySize=auto;html=1;entryX=0.5;entryY=0;entryDx=0;entryDy=0;endArrow=classic;endFill=1;strokeColor=#000000;rounded=1;" parent="_pkw77P02M8s0Pjgw_2e-1" source="7cf08i8fguOiqy8BO_Gp-157" target="7cf08i8fguOiqy8BO_Gp-169" edge="1">
          <mxGeometry relative="1" as="geometry" />
        </mxCell>
        <mxCell id="7cf08i8fguOiqy8BO_Gp-157" value="set/reset&amp;nbsp;&lt;span&gt;car alarm&amp;nbsp;&lt;/span&gt;&lt;div&gt;controller&amp;nbsp;&lt;span&gt;settings&lt;/span&gt;&lt;/div&gt;" style="rounded=1;whiteSpace=wrap;html=1;arcSize=20;fontColor=#000000;fillColor=#66B2FF;absoluteArcSize=1;" parent="_pkw77P02M8s0Pjgw_2e-1" vertex="1">
          <mxGeometry x="150" y="745" width="120" height="60" as="geometry" />
        </mxCell>
        <mxCell id="7cf08i8fguOiqy8BO_Gp-164" style="edgeStyle=orthogonalEdgeStyle;jumpStyle=arc;jumpSize=10;orthogonalLoop=1;jettySize=auto;html=1;exitX=1;exitY=0.5;exitDx=0;exitDy=0;entryX=0;entryY=0.5;entryDx=0;entryDy=0;endArrow=classic;endFill=1;strokeColor=#000000;rounded=1;" parent="_pkw77P02M8s0Pjgw_2e-1" source="7cf08i8fguOiqy8BO_Gp-162" target="7cf08i8fguOiqy8BO_Gp-147" edge="1">
          <mxGeometry relative="1" as="geometry" />
        </mxCell>
        <mxCell id="7cf08i8fguOiqy8BO_Gp-162" value="" style="shape=rhombus;html=1;verticalLabelPosition=top;verticalAlignment=bottom;fillColor=#cce5ff;strokeColor=#36393d;" parent="_pkw77P02M8s0Pjgw_2e-1" vertex="1">
          <mxGeometry x="390" y="979" width="20" height="20" as="geometry" />
        </mxCell>
        <mxCell id="7cf08i8fguOiqy8BO_Gp-166" style="jumpStyle=none;jumpSize=10;orthogonalLoop=1;jettySize=auto;html=1;exitX=0.5;exitY=1;exitDx=0;exitDy=0;exitPerimeter=0;entryX=0;entryY=0.25;entryDx=0;entryDy=0;endArrow=none;endFill=0;strokeColor=#858585;dashed=1;dashPattern=1 4;rounded=1;" parent="_pkw77P02M8s0Pjgw_2e-1" source="7cf08i8fguOiqy8BO_Gp-165" target="7cf08i8fguOiqy8BO_Gp-157" edge="1">
          <mxGeometry relative="1" as="geometry" />
        </mxCell>
        <mxCell id="7cf08i8fguOiqy8BO_Gp-165" value="Save settings in microcontroller&lt;br&gt;(data needs to be downloaded from the microcontroller on a bluetooth or )" style="shape=note;size=20;whiteSpace=wrap;html=1;labelBackgroundColor=none;rounded=1;fillColor=#cce5ff;arcSize=40;strokeColor=#36393d;" parent="_pkw77P02M8s0Pjgw_2e-1" vertex="1">
          <mxGeometry x="20" y="520" width="90" height="179" as="geometry" />
        </mxCell>
        <mxCell id="7cf08i8fguOiqy8BO_Gp-168" value="" style="edgeStyle=none;jumpStyle=none;jumpSize=10;orthogonalLoop=1;jettySize=auto;html=1;endArrow=classic;endFill=1;strokeColor=#000000;rounded=1;" parent="_pkw77P02M8s0Pjgw_2e-1" source="7cf08i8fguOiqy8BO_Gp-167" target="7cf08i8fguOiqy8BO_Gp-157" edge="1">
          <mxGeometry relative="1" as="geometry" />
        </mxCell>
        <mxCell id="7cf08i8fguOiqy8BO_Gp-167" value="Update data from microcontroller" style="rounded=1;whiteSpace=wrap;html=1;arcSize=20;fontColor=#000000;fillColor=#66B2FF;absoluteArcSize=1;" parent="_pkw77P02M8s0Pjgw_2e-1" vertex="1">
          <mxGeometry x="150" y="675" width="120" height="35" as="geometry" />
        </mxCell>
        <mxCell id="7cf08i8fguOiqy8BO_Gp-169" value="upload settings to microcontroller&amp;nbsp;" style="rounded=1;whiteSpace=wrap;html=1;arcSize=20;fontColor=#000000;fillColor=#66B2FF;absoluteArcSize=1;" parent="_pkw77P02M8s0Pjgw_2e-1" vertex="1">
          <mxGeometry x="150" y="880" width="120" height="40" as="geometry" />
        </mxCell>
        <mxCell id="1Nbbd5nNj2WczVFmJ-ih-7" style="edgeStyle=orthogonalEdgeStyle;rounded=1;orthogonalLoop=1;jettySize=auto;html=1;entryX=0;entryY=0.5;entryDx=0;entryDy=0;endArrow=block;endFill=1;" parent="_pkw77P02M8s0Pjgw_2e-1" source="7cf08i8fguOiqy8BO_Gp-171" target="7cf08i8fguOiqy8BO_Gp-174" edge="1">
          <mxGeometry relative="1" as="geometry">
            <Array as="points">
              <mxPoint x="95" y="989" />
            </Array>
          </mxGeometry>
        </mxCell>
        <mxCell id="7cf08i8fguOiqy8BO_Gp-171" value="encrypted&lt;br&gt;data" style="html=1;labelBackgroundColor=none;fillColor=#cce5ff;strokeColor=#36393d;" parent="_pkw77P02M8s0Pjgw_2e-1" vertex="1">
          <mxGeometry x="50" y="964" width="90" height="50" as="geometry" />
        </mxCell>
        <mxCell id="7cf08i8fguOiqy8BO_Gp-174" value="upload settings to the microcontroller&amp;nbsp;" style="rounded=1;whiteSpace=wrap;html=1;arcSize=20;fontColor=#000000;fillColor=#66B2FF;absoluteArcSize=1;" parent="_pkw77P02M8s0Pjgw_2e-1" vertex="1">
          <mxGeometry x="210" y="964" width="120" height="50" as="geometry" />
        </mxCell>
        <mxCell id="5h5S7gLam4Vf0ZUOAw8O-6" style="edgeStyle=orthogonalEdgeStyle;orthogonalLoop=1;jettySize=auto;html=1;entryX=0.5;entryY=0;entryDx=0;entryDy=0;rounded=1;" parent="_pkw77P02M8s0Pjgw_2e-1" source="5h5S7gLam4Vf0ZUOAw8O-1" target="ZbAq1CDLbEJJzYkJaT00-10" edge="1">
          <mxGeometry relative="1" as="geometry">
            <Array as="points">
              <mxPoint x="475" y="310" />
              <mxPoint x="700" y="310" />
            </Array>
          </mxGeometry>
        </mxCell>
        <mxCell id="5h5S7gLam4Vf0ZUOAw8O-1" value="User select connection type" style="rounded=1;whiteSpace=wrap;html=1;arcSize=20;fontColor=#000000;fillColor=#66B2FF;glass=0;sketch=0;gradientColor=none;absoluteArcSize=1;" parent="_pkw77P02M8s0Pjgw_2e-1" vertex="1">
          <mxGeometry x="415" y="206" width="120" height="88" as="geometry" />
        </mxCell>
        <mxCell id="fl3ICAKCs4GLIoxHInJk-1" style="edgeStyle=orthogonalEdgeStyle;shape=connector;rounded=1;jumpStyle=arc;jumpSize=10;orthogonalLoop=1;jettySize=auto;html=1;labelBackgroundColor=default;strokeColor=#000000;fontFamily=Helvetica;fontSize=11;fontColor=default;endArrow=classic;endFill=1;" parent="_pkw77P02M8s0Pjgw_2e-1" source="5h5S7gLam4Vf0ZUOAw8O-7" target="7cf08i8fguOiqy8BO_Gp-129" edge="1">
          <mxGeometry relative="1" as="geometry">
            <Array as="points">
              <mxPoint x="1520" y="660" />
            </Array>
          </mxGeometry>
        </mxCell>
        <mxCell id="5h5S7gLam4Vf0ZUOAw8O-7" value="send encrypted &lt;br&gt;signal to car" style="rounded=1;whiteSpace=wrap;html=1;arcSize=20;fontColor=#000000;fillColor=#66B2FF;absoluteArcSize=1;" parent="_pkw77P02M8s0Pjgw_2e-1" vertex="1">
          <mxGeometry x="1280" y="640" width="120" height="40" as="geometry" />
        </mxCell>
        <mxCell id="fl3ICAKCs4GLIoxHInJk-5" style="edgeStyle=orthogonalEdgeStyle;shape=connector;rounded=1;jumpStyle=arc;jumpSize=10;orthogonalLoop=1;jettySize=auto;html=1;labelBackgroundColor=default;strokeColor=#000000;fontFamily=Helvetica;fontSize=11;fontColor=default;endArrow=classic;endFill=1;" parent="_pkw77P02M8s0Pjgw_2e-1" source="5h5S7gLam4Vf0ZUOAw8O-8" target="7cf08i8fguOiqy8BO_Gp-27" edge="1">
          <mxGeometry relative="1" as="geometry" />
        </mxCell>
        <mxCell id="5h5S7gLam4Vf0ZUOAw8O-8" value="received encrypted &lt;br&gt;signal from&lt;br&gt;microcontroller" style="rounded=1;whiteSpace=wrap;html=1;arcSize=20;fontColor=#000000;fillColor=#66B2FF;absoluteArcSize=1;" parent="_pkw77P02M8s0Pjgw_2e-1" vertex="1">
          <mxGeometry x="1280" y="730" width="120" height="50" as="geometry" />
        </mxCell>
        <mxCell id="fl3ICAKCs4GLIoxHInJk-7" style="edgeStyle=orthogonalEdgeStyle;shape=connector;rounded=1;jumpStyle=arc;jumpSize=10;orthogonalLoop=1;jettySize=auto;html=1;entryX=1;entryY=0.5;entryDx=0;entryDy=0;labelBackgroundColor=default;strokeColor=#000000;fontFamily=Helvetica;fontSize=11;fontColor=default;endArrow=classic;endFill=1;" parent="_pkw77P02M8s0Pjgw_2e-1" source="5h5S7gLam4Vf0ZUOAw8O-10" target="7cf08i8fguOiqy8BO_Gp-100" edge="1">
          <mxGeometry relative="1" as="geometry">
            <Array as="points">
              <mxPoint x="1060" y="990" />
            </Array>
          </mxGeometry>
        </mxCell>
        <mxCell id="5h5S7gLam4Vf0ZUOAw8O-10" value="set/reset control properties&amp;nbsp;" style="rounded=1;whiteSpace=wrap;html=1;arcSize=20;fontColor=#000000;fillColor=#66B2FF;absoluteArcSize=1;" parent="_pkw77P02M8s0Pjgw_2e-1" vertex="1">
          <mxGeometry x="1000" y="860" width="120" height="50" as="geometry" />
        </mxCell>
        <mxCell id="5h5S7gLam4Vf0ZUOAw8O-11" value="set/reset location boundary" style="rounded=1;whiteSpace=wrap;html=1;arcSize=20;fontColor=#000000;fillColor=#66B2FF;absoluteArcSize=1;" parent="_pkw77P02M8s0Pjgw_2e-1" vertex="1">
          <mxGeometry x="830" y="700" width="120" height="40" as="geometry" />
        </mxCell>
      </root>
    </mxGraphModel>
  </diagram>
  <diagram id="AXDcR6_b_t-0bXgNczSh" name="bpmn-enable-alarm-horn">
    <mxGraphModel dx="1038" dy="641" grid="1" gridSize="10" guides="1" tooltips="1" connect="1" arrows="1" fold="1" page="1" pageScale="1" pageWidth="900" pageHeight="600" math="0" shadow="0">
      <root>
        <mxCell id="8QL13of739elZyeDZ4JM-0" />
        <mxCell id="8QL13of739elZyeDZ4JM-1" parent="8QL13of739elZyeDZ4JM-0" />
        <mxCell id="prywvCNISUXnci0LFH16-0" value="enable alarm horn" style="swimlane;html=1;childLayout=stackLayout;resizeParent=1;resizeParentMax=0;horizontal=0;startSize=20;horizontalStack=0;" parent="8QL13of739elZyeDZ4JM-1" vertex="1">
          <mxGeometry x="40" y="70" width="800" height="360" as="geometry" />
        </mxCell>
        <mxCell id="prywvCNISUXnci0LFH16-1" value="user" style="swimlane;html=1;startSize=20;horizontal=0;" parent="prywvCNISUXnci0LFH16-0" vertex="1">
          <mxGeometry x="20" width="780" height="180" as="geometry" />
        </mxCell>
        <mxCell id="prywvCNISUXnci0LFH16-2" value="car" style="swimlane;html=1;startSize=20;horizontal=0;" parent="prywvCNISUXnci0LFH16-0" vertex="1">
          <mxGeometry x="20" y="180" width="780" height="180" as="geometry" />
        </mxCell>
        <mxCell id="aTNbrDS47KaIrXFLcBmH-11" value="the car receives&lt;br&gt;the command" style="points=[[0.145,0.145,0],[0.5,0,0],[0.855,0.145,0],[1,0.5,0],[0.855,0.855,0],[0.5,1,0],[0.145,0.855,0],[0,0.5,0]];shape=mxgraph.bpmn.event;html=1;verticalLabelPosition=bottom;labelBackgroundColor=#ffffff;verticalAlign=top;align=center;perimeter=ellipsePerimeter;outlineConnect=0;aspect=fixed;outline=eventNonint;symbol=message;" parent="prywvCNISUXnci0LFH16-2" vertex="1">
          <mxGeometry x="70.00000000000001" y="67.5" width="34.99" height="34.99" as="geometry" />
        </mxCell>
        <mxCell id="aTNbrDS47KaIrXFLcBmH-13" value="the car horn&#xa;gets enabled" style="points=[[0.25,0,0],[0.5,0,0],[0.75,0,0],[1,0.25,0],[1,0.5,0],[1,0.75,0],[0.75,1,0],[0.5,1,0],[0.25,1,0],[0,0.75,0],[0,0.5,0],[0,0.25,0]];shape=mxgraph.bpmn.task;rectStyle=rounded;size=10;taskMarker=abstract;whiteSpace=wrap;fillColor=#cce5ff;strokeColor=#36393d;" parent="prywvCNISUXnci0LFH16-2" vertex="1">
          <mxGeometry x="290" y="50" width="100" height="70" as="geometry" />
        </mxCell>
        <mxCell id="bNex1ePAMC7g9Ck6vz7r-0" value="analyze message" style="points=[[0.25,0,0],[0.5,0,0],[0.75,0,0],[1,0.25,0],[1,0.5,0],[1,0.75,0],[0.75,1,0],[0.5,1,0],[0.25,1,0],[0,0.75,0],[0,0.5,0],[0,0.25,0]];shape=mxgraph.bpmn.task;rectStyle=rounded;size=10;taskMarker=abstract;whiteSpace=wrap;fillColor=#cce5ff;strokeColor=#36393d;" parent="prywvCNISUXnci0LFH16-2" vertex="1">
          <mxGeometry x="166.99" y="50" width="93.01" height="70" as="geometry" />
        </mxCell>
        <mxCell id="bNex1ePAMC7g9Ck6vz7r-1" style="edgeStyle=orthogonalEdgeStyle;rounded=1;orthogonalLoop=1;jettySize=auto;html=1;entryX=0;entryY=0.5;entryDx=0;entryDy=0;entryPerimeter=0;exitX=1;exitY=0.5;exitDx=0;exitDy=0;exitPerimeter=0;" parent="prywvCNISUXnci0LFH16-2" source="aTNbrDS47KaIrXFLcBmH-11" target="bNex1ePAMC7g9Ck6vz7r-0" edge="1">
          <mxGeometry relative="1" as="geometry">
            <mxPoint x="106.99000000000001" y="-180" as="targetPoint" />
            <mxPoint x="120" y="70" as="sourcePoint" />
          </mxGeometry>
        </mxCell>
        <mxCell id="AC7EJQSSdJT8lgLWwWaw-0" style="edgeStyle=orthogonalEdgeStyle;rounded=1;orthogonalLoop=1;jettySize=auto;html=1;entryX=0;entryY=0.5;entryDx=0;entryDy=0;entryPerimeter=0;exitX=1;exitY=0.5;exitDx=0;exitDy=0;exitPerimeter=0;" parent="prywvCNISUXnci0LFH16-2" source="aTNbrDS47KaIrXFLcBmH-13" target="AC7EJQSSdJT8lgLWwWaw-3" edge="1">
          <mxGeometry relative="1" as="geometry">
            <mxPoint x="410" y="81.25" as="sourcePoint" />
          </mxGeometry>
        </mxCell>
        <mxCell id="AC7EJQSSdJT8lgLWwWaw-1" value="sends a status signal to the user" style="points=[[0.25,0,0],[0.5,0,0],[0.75,0,0],[1,0.25,0],[1,0.5,0],[1,0.75,0],[0.75,1,0],[0.5,1,0],[0.25,1,0],[0,0.75,0],[0,0.5,0],[0,0.25,0]];shape=mxgraph.bpmn.task;rectStyle=rounded;size=10;taskMarker=abstract;whiteSpace=wrap;fillColor=#cce5ff;strokeColor=#36393d;" parent="prywvCNISUXnci0LFH16-2" vertex="1">
          <mxGeometry x="540" y="48.99" width="120" height="70" as="geometry" />
        </mxCell>
        <mxCell id="AC7EJQSSdJT8lgLWwWaw-2" style="edgeStyle=orthogonalEdgeStyle;rounded=1;orthogonalLoop=1;jettySize=auto;html=1;entryX=0;entryY=0.5;entryDx=0;entryDy=0;entryPerimeter=0;" parent="prywvCNISUXnci0LFH16-2" source="AC7EJQSSdJT8lgLWwWaw-3" target="AC7EJQSSdJT8lgLWwWaw-1" edge="1">
          <mxGeometry relative="1" as="geometry" />
        </mxCell>
        <mxCell id="AC7EJQSSdJT8lgLWwWaw-3" value="wait until the &lt;br&gt;operation is completed" style="points=[[0.145,0.145,0],[0.5,0,0],[0.855,0.145,0],[1,0.5,0],[0.855,0.855,0],[0.5,1,0],[0.145,0.855,0],[0,0.5,0]];shape=mxgraph.bpmn.event;html=1;verticalLabelPosition=bottom;labelBackgroundColor=#ffffff;verticalAlign=top;align=center;perimeter=ellipsePerimeter;outlineConnect=0;aspect=fixed;outline=standard;symbol=timer;" parent="prywvCNISUXnci0LFH16-2" vertex="1">
          <mxGeometry x="460" y="65.49" width="37" height="37" as="geometry" />
        </mxCell>
        <mxCell id="aTNbrDS47KaIrXFLcBmH-0" style="edgeStyle=orthogonalEdgeStyle;rounded=1;orthogonalLoop=1;jettySize=auto;html=1;exitX=1;exitY=0.5;exitDx=0;exitDy=0;exitPerimeter=0;" parent="8QL13of739elZyeDZ4JM-1" source="aTNbrDS47KaIrXFLcBmH-9" target="aTNbrDS47KaIrXFLcBmH-1" edge="1">
          <mxGeometry relative="1" as="geometry">
            <mxPoint x="73" y="90.00999999999999" as="sourcePoint" />
          </mxGeometry>
        </mxCell>
        <mxCell id="aTNbrDS47KaIrXFLcBmH-10" style="edgeStyle=orthogonalEdgeStyle;rounded=1;orthogonalLoop=1;jettySize=auto;html=1;dashed=1;entryX=0.5;entryY=0;entryDx=0;entryDy=0;entryPerimeter=0;exitX=0.5;exitY=1;exitDx=0;exitDy=0;exitPerimeter=0;" parent="8QL13of739elZyeDZ4JM-1" source="aTNbrDS47KaIrXFLcBmH-3" target="aTNbrDS47KaIrXFLcBmH-11" edge="1">
          <mxGeometry relative="1" as="geometry">
            <mxPoint x="160" y="290" as="targetPoint" />
            <Array as="points">
              <mxPoint x="405" y="220" />
              <mxPoint x="148" y="220" />
            </Array>
          </mxGeometry>
        </mxCell>
        <mxCell id="aTNbrDS47KaIrXFLcBmH-1" value="user enables the car horn from the application or the remote" style="points=[[0.25,0,0],[0.5,0,0],[0.75,0,0],[1,0.25,0],[1,0.5,0],[1,0.75,0],[0.75,1,0],[0.5,1,0],[0.25,1,0],[0,0.75,0],[0,0.5,0],[0,0.25,0]];shape=mxgraph.bpmn.task;rectStyle=rounded;size=10;taskMarker=abstract;whiteSpace=wrap;fillColor=#cce5ff;strokeColor=#36393d;" parent="8QL13of739elZyeDZ4JM-1" vertex="1">
          <mxGeometry x="220" y="115.00999999999999" width="100" height="70" as="geometry" />
        </mxCell>
        <mxCell id="aTNbrDS47KaIrXFLcBmH-2" style="edgeStyle=orthogonalEdgeStyle;rounded=1;orthogonalLoop=1;jettySize=auto;html=1;entryX=0;entryY=0.5;entryDx=0;entryDy=0;entryPerimeter=0;" parent="8QL13of739elZyeDZ4JM-1" source="aTNbrDS47KaIrXFLcBmH-3" target="aTNbrDS47KaIrXFLcBmH-5" edge="1">
          <mxGeometry relative="1" as="geometry" />
        </mxCell>
        <mxCell id="aTNbrDS47KaIrXFLcBmH-3" value="encrypt message" style="points=[[0.25,0,0],[0.5,0,0],[0.75,0,0],[1,0.25,0],[1,0.5,0],[1,0.75,0],[0.75,1,0],[0.5,1,0],[0.25,1,0],[0,0.75,0],[0,0.5,0],[0,0.25,0]];shape=mxgraph.bpmn.task;rectStyle=rounded;size=10;taskMarker=abstract;whiteSpace=wrap;fillColor=#cce5ff;strokeColor=#36393d;" parent="8QL13of739elZyeDZ4JM-1" vertex="1">
          <mxGeometry x="370" y="117.52000000000001" width="70" height="64.99" as="geometry" />
        </mxCell>
        <mxCell id="aTNbrDS47KaIrXFLcBmH-4" style="edgeStyle=orthogonalEdgeStyle;rounded=1;orthogonalLoop=1;jettySize=auto;html=1;entryX=0;entryY=0.5;entryDx=0;entryDy=0;entryPerimeter=0;" parent="8QL13of739elZyeDZ4JM-1" source="aTNbrDS47KaIrXFLcBmH-1" target="aTNbrDS47KaIrXFLcBmH-3" edge="1">
          <mxGeometry relative="1" as="geometry">
            <mxPoint x="260" y="100" as="targetPoint" />
          </mxGeometry>
        </mxCell>
        <mxCell id="aTNbrDS47KaIrXFLcBmH-5" value="signal received" style="points=[[0.145,0.145,0],[0.5,0,0],[0.855,0.145,0],[1,0.5,0],[0.855,0.855,0],[0.5,1,0],[0.145,0.855,0],[0,0.5,0]];shape=mxgraph.bpmn.event;html=1;verticalLabelPosition=bottom;labelBackgroundColor=#ffffff;verticalAlign=top;align=center;perimeter=ellipsePerimeter;outlineConnect=0;aspect=fixed;outline=catching;symbol=message;" parent="8QL13of739elZyeDZ4JM-1" vertex="1">
          <mxGeometry x="582.51" y="131.26" width="37.49" height="37.49" as="geometry" />
        </mxCell>
        <mxCell id="fZ9BfFFmqoCy6pzbaHmh-0" value="" style="edgeStyle=orthogonalEdgeStyle;rounded=1;orthogonalLoop=1;jettySize=auto;html=1;" parent="8QL13of739elZyeDZ4JM-1" source="aTNbrDS47KaIrXFLcBmH-6" target="aTNbrDS47KaIrXFLcBmH-8" edge="1">
          <mxGeometry relative="1" as="geometry" />
        </mxCell>
        <mxCell id="aTNbrDS47KaIrXFLcBmH-6" value="notify user" style="points=[[0.25,0,0],[0.5,0,0],[0.75,0,0],[1,0.25,0],[1,0.5,0],[1,0.75,0],[0.75,1,0],[0.5,1,0],[0.25,1,0],[0,0.75,0],[0,0.5,0],[0,0.25,0]];shape=mxgraph.bpmn.task;rectStyle=rounded;size=10;taskMarker=abstract;whiteSpace=wrap;fillColor=#cce5ff;strokeColor=#36393d;" parent="8QL13of739elZyeDZ4JM-1" vertex="1">
          <mxGeometry x="660" y="117.51000000000002" width="70" height="64.99" as="geometry" />
        </mxCell>
        <mxCell id="aTNbrDS47KaIrXFLcBmH-7" style="edgeStyle=orthogonalEdgeStyle;rounded=1;orthogonalLoop=1;jettySize=auto;html=1;entryX=0;entryY=0.5;entryDx=0;entryDy=0;entryPerimeter=0;" parent="8QL13of739elZyeDZ4JM-1" source="aTNbrDS47KaIrXFLcBmH-5" target="aTNbrDS47KaIrXFLcBmH-6" edge="1">
          <mxGeometry relative="1" as="geometry">
            <mxPoint x="580" y="97.50999999999999" as="targetPoint" />
          </mxGeometry>
        </mxCell>
        <mxCell id="aTNbrDS47KaIrXFLcBmH-8" value="" style="points=[[0.145,0.145,0],[0.5,0,0],[0.855,0.145,0],[1,0.5,0],[0.855,0.855,0],[0.5,1,0],[0.145,0.855,0],[0,0.5,0]];shape=mxgraph.bpmn.event;html=1;verticalLabelPosition=bottom;labelBackgroundColor=#ffffff;verticalAlign=top;align=center;perimeter=ellipsePerimeter;outlineConnect=0;aspect=fixed;outline=end;symbol=terminate;" parent="8QL13of739elZyeDZ4JM-1" vertex="1">
          <mxGeometry x="760" y="131.27" width="37.49" height="37.49" as="geometry" />
        </mxCell>
        <mxCell id="aTNbrDS47KaIrXFLcBmH-9" value="" style="points=[[0.145,0.145,0],[0.5,0,0],[0.855,0.145,0],[1,0.5,0],[0.855,0.855,0],[0.5,1,0],[0.145,0.855,0],[0,0.5,0]];shape=mxgraph.bpmn.event;html=1;verticalLabelPosition=bottom;labelBackgroundColor=#ffffff;verticalAlign=top;align=center;perimeter=ellipsePerimeter;outlineConnect=0;aspect=fixed;outline=standard;symbol=general;" parent="8QL13of739elZyeDZ4JM-1" vertex="1">
          <mxGeometry x="130" y="132.51" width="34.99" height="34.99" as="geometry" />
        </mxCell>
        <mxCell id="bNex1ePAMC7g9Ck6vz7r-2" style="edgeStyle=orthogonalEdgeStyle;rounded=1;orthogonalLoop=1;jettySize=auto;html=1;entryX=0.5;entryY=1;entryDx=0;entryDy=0;entryPerimeter=0;" parent="8QL13of739elZyeDZ4JM-1" target="aTNbrDS47KaIrXFLcBmH-13" edge="1">
          <mxGeometry relative="1" as="geometry">
            <Array as="points">
              <mxPoint x="400" y="480" />
            </Array>
            <mxPoint x="396.99" y="480" as="sourcePoint" />
            <mxPoint x="396.99" y="375" as="targetPoint" />
          </mxGeometry>
        </mxCell>
        <mxCell id="bNex1ePAMC7g9Ck6vz7r-3" value="" style="swimlane;html=1;startSize=20;fontStyle=0;collapsible=0;horizontal=0;swimlaneLine=0;fillColor=none;" parent="8QL13of739elZyeDZ4JM-1" vertex="1">
          <mxGeometry x="210" y="480" width="260" height="60" as="geometry" />
        </mxCell>
        <mxCell id="bNex1ePAMC7g9Ck6vz7r-4" value="signal code decryption and verification rules&amp;nbsp;" style="text;html=1;align=center;verticalAlign=middle;resizable=0;points=[];autosize=1;strokeColor=none;" parent="bNex1ePAMC7g9Ck6vz7r-3" vertex="1">
          <mxGeometry x="5" y="20" width="250" height="20" as="geometry" />
        </mxCell>
        <mxCell id="bNex1ePAMC7g9Ck6vz7r-5" style="edgeStyle=orthogonalEdgeStyle;rounded=1;orthogonalLoop=1;jettySize=auto;html=1;entryX=0.25;entryY=0;entryDx=0;entryDy=0;" parent="8QL13of739elZyeDZ4JM-1" source="bNex1ePAMC7g9Ck6vz7r-0" target="bNex1ePAMC7g9Ck6vz7r-3" edge="1">
          <mxGeometry relative="1" as="geometry">
            <mxPoint x="266.99" y="480" as="targetPoint" />
            <Array as="points">
              <mxPoint x="275" y="400" />
              <mxPoint x="275" y="400" />
            </Array>
          </mxGeometry>
        </mxCell>
        <mxCell id="AC7EJQSSdJT8lgLWwWaw-4" style="edgeStyle=orthogonalEdgeStyle;rounded=1;orthogonalLoop=1;jettySize=auto;html=1;exitX=0.5;exitY=0;exitDx=0;exitDy=0;exitPerimeter=0;entryX=0.5;entryY=1;entryDx=0;entryDy=0;entryPerimeter=0;dashed=1;" parent="8QL13of739elZyeDZ4JM-1" source="AC7EJQSSdJT8lgLWwWaw-1" target="aTNbrDS47KaIrXFLcBmH-5" edge="1">
          <mxGeometry relative="1" as="geometry">
            <mxPoint x="601.2549999999999" y="140" as="targetPoint" />
            <Array as="points">
              <mxPoint x="660" y="230" />
              <mxPoint x="601" y="230" />
            </Array>
          </mxGeometry>
        </mxCell>
      </root>
    </mxGraphModel>
  </diagram>
  <diagram id="N1Q9RFkYAr4T0ll3-OhD" name="bpmn-remote-operations">
    <mxGraphModel dx="1038" dy="641" grid="1" gridSize="10" guides="1" tooltips="1" connect="1" arrows="1" fold="1" page="1" pageScale="1" pageWidth="900" pageHeight="600" math="0" shadow="0">
      <root>
        <mxCell id="dU9E69JfphccGUmpzk8Y-0" />
        <mxCell id="dU9E69JfphccGUmpzk8Y-1" parent="dU9E69JfphccGUmpzk8Y-0" />
        <mxCell id="dU9E69JfphccGUmpzk8Y-5" value="remote operations" style="swimlane;html=1;childLayout=stackLayout;resizeParent=1;resizeParentMax=0;horizontal=0;startSize=20;horizontalStack=0;" parent="dU9E69JfphccGUmpzk8Y-1" vertex="1">
          <mxGeometry x="70" y="60" width="760" height="400" as="geometry" />
        </mxCell>
        <mxCell id="dU9E69JfphccGUmpzk8Y-6" value="user" style="swimlane;html=1;startSize=20;horizontal=0;" parent="dU9E69JfphccGUmpzk8Y-5" vertex="1">
          <mxGeometry x="20" width="740" height="210" as="geometry" />
        </mxCell>
        <mxCell id="Jun43E7Qr0FumyG7URi--2" style="edgeStyle=orthogonalEdgeStyle;rounded=1;orthogonalLoop=1;jettySize=auto;html=1;exitX=1;exitY=0.5;exitDx=0;exitDy=0;exitPerimeter=0;" parent="dU9E69JfphccGUmpzk8Y-6" source="Jun43E7Qr0FumyG7URi--28" target="Jun43E7Qr0FumyG7URi--1" edge="1">
          <mxGeometry relative="1" as="geometry">
            <mxPoint x="73" y="90.00999999999999" as="sourcePoint" />
          </mxGeometry>
        </mxCell>
        <mxCell id="Jun43E7Qr0FumyG7URi--1" value="user press operational button" style="points=[[0.25,0,0],[0.5,0,0],[0.75,0,0],[1,0.25,0],[1,0.5,0],[1,0.75,0],[0.75,1,0],[0.5,1,0],[0.25,1,0],[0,0.75,0],[0,0.5,0],[0,0.25,0]];shape=mxgraph.bpmn.task;rectStyle=rounded;size=10;taskMarker=abstract;whiteSpace=wrap;fillColor=#cce5ff;strokeColor=#36393d;" parent="dU9E69JfphccGUmpzk8Y-6" vertex="1">
          <mxGeometry x="130" y="55.01" width="100" height="70" as="geometry" />
        </mxCell>
        <mxCell id="zxskLvbTf-9Xcse0AzMb-0" style="edgeStyle=orthogonalEdgeStyle;rounded=1;orthogonalLoop=1;jettySize=auto;html=1;entryX=0;entryY=0.5;entryDx=0;entryDy=0;entryPerimeter=0;" parent="dU9E69JfphccGUmpzk8Y-6" source="Jun43E7Qr0FumyG7URi--7" target="Jun43E7Qr0FumyG7URi--22" edge="1">
          <mxGeometry relative="1" as="geometry" />
        </mxCell>
        <mxCell id="Jun43E7Qr0FumyG7URi--7" value="encrypt message" style="points=[[0.25,0,0],[0.5,0,0],[0.75,0,0],[1,0.25,0],[1,0.5,0],[1,0.75,0],[0.75,1,0],[0.5,1,0],[0.25,1,0],[0,0.75,0],[0,0.5,0],[0,0.25,0]];shape=mxgraph.bpmn.task;rectStyle=rounded;size=10;taskMarker=abstract;whiteSpace=wrap;fillColor=#cce5ff;strokeColor=#36393d;" parent="dU9E69JfphccGUmpzk8Y-6" vertex="1">
          <mxGeometry x="280" y="57.52" width="70" height="64.99" as="geometry" />
        </mxCell>
        <mxCell id="Jun43E7Qr0FumyG7URi--6" style="edgeStyle=orthogonalEdgeStyle;rounded=1;orthogonalLoop=1;jettySize=auto;html=1;entryX=0;entryY=0.5;entryDx=0;entryDy=0;entryPerimeter=0;" parent="dU9E69JfphccGUmpzk8Y-6" source="Jun43E7Qr0FumyG7URi--1" target="Jun43E7Qr0FumyG7URi--7" edge="1">
          <mxGeometry relative="1" as="geometry">
            <mxPoint x="260" y="100" as="targetPoint" />
          </mxGeometry>
        </mxCell>
        <mxCell id="Jun43E7Qr0FumyG7URi--22" value="signal received" style="points=[[0.145,0.145,0],[0.5,0,0],[0.855,0.145,0],[1,0.5,0],[0.855,0.855,0],[0.5,1,0],[0.145,0.855,0],[0,0.5,0]];shape=mxgraph.bpmn.event;html=1;verticalLabelPosition=bottom;labelBackgroundColor=#ffffff;verticalAlign=top;align=center;perimeter=ellipsePerimeter;outlineConnect=0;aspect=fixed;outline=catching;symbol=message;" parent="dU9E69JfphccGUmpzk8Y-6" vertex="1">
          <mxGeometry x="492.51" y="71.26" width="37.49" height="37.49" as="geometry" />
        </mxCell>
        <mxCell id="Jun43E7Qr0FumyG7URi--29" style="edgeStyle=orthogonalEdgeStyle;rounded=1;orthogonalLoop=1;jettySize=auto;html=1;entryX=0;entryY=0.5;entryDx=0;entryDy=0;entryPerimeter=0;" parent="dU9E69JfphccGUmpzk8Y-6" source="Jun43E7Qr0FumyG7URi--24" target="Jun43E7Qr0FumyG7URi--27" edge="1">
          <mxGeometry relative="1" as="geometry" />
        </mxCell>
        <mxCell id="Jun43E7Qr0FumyG7URi--24" value="notify user" style="points=[[0.25,0,0],[0.5,0,0],[0.75,0,0],[1,0.25,0],[1,0.5,0],[1,0.75,0],[0.75,1,0],[0.5,1,0],[0.25,1,0],[0,0.75,0],[0,0.5,0],[0,0.25,0]];shape=mxgraph.bpmn.task;rectStyle=rounded;size=10;taskMarker=abstract;whiteSpace=wrap;fillColor=#cce5ff;strokeColor=#36393d;" parent="dU9E69JfphccGUmpzk8Y-6" vertex="1">
          <mxGeometry x="570" y="57.51000000000001" width="70" height="64.99" as="geometry" />
        </mxCell>
        <mxCell id="Jun43E7Qr0FumyG7URi--23" style="edgeStyle=orthogonalEdgeStyle;rounded=1;orthogonalLoop=1;jettySize=auto;html=1;entryX=0;entryY=0.5;entryDx=0;entryDy=0;entryPerimeter=0;" parent="dU9E69JfphccGUmpzk8Y-6" source="Jun43E7Qr0FumyG7URi--22" target="Jun43E7Qr0FumyG7URi--24" edge="1">
          <mxGeometry relative="1" as="geometry">
            <mxPoint x="580" y="97.50999999999999" as="targetPoint" />
          </mxGeometry>
        </mxCell>
        <mxCell id="Jun43E7Qr0FumyG7URi--27" value="" style="points=[[0.145,0.145,0],[0.5,0,0],[0.855,0.145,0],[1,0.5,0],[0.855,0.855,0],[0.5,1,0],[0.145,0.855,0],[0,0.5,0]];shape=mxgraph.bpmn.event;html=1;verticalLabelPosition=bottom;labelBackgroundColor=#ffffff;verticalAlign=top;align=center;perimeter=ellipsePerimeter;outlineConnect=0;aspect=fixed;outline=end;symbol=terminate;" parent="dU9E69JfphccGUmpzk8Y-6" vertex="1">
          <mxGeometry x="670" y="71.27000000000001" width="37.49" height="37.49" as="geometry" />
        </mxCell>
        <mxCell id="Jun43E7Qr0FumyG7URi--28" value="" style="points=[[0.145,0.145,0],[0.5,0,0],[0.855,0.145,0],[1,0.5,0],[0.855,0.855,0],[0.5,1,0],[0.145,0.855,0],[0,0.5,0]];shape=mxgraph.bpmn.event;html=1;verticalLabelPosition=bottom;labelBackgroundColor=#ffffff;verticalAlign=top;align=center;perimeter=ellipsePerimeter;outlineConnect=0;aspect=fixed;outline=standard;symbol=general;" parent="dU9E69JfphccGUmpzk8Y-6" vertex="1">
          <mxGeometry x="40" y="72.51" width="34.99" height="34.99" as="geometry" />
        </mxCell>
        <mxCell id="dU9E69JfphccGUmpzk8Y-7" value="car" style="swimlane;html=1;startSize=20;horizontal=0;" parent="dU9E69JfphccGUmpzk8Y-5" vertex="1">
          <mxGeometry x="20" y="210" width="740" height="190" as="geometry" />
        </mxCell>
        <mxCell id="Jun43E7Qr0FumyG7URi--3" value="operation signal&lt;br&gt;&amp;nbsp;received" style="points=[[0.145,0.145,0],[0.5,0,0],[0.855,0.145,0],[1,0.5,0],[0.855,0.855,0],[0.5,1,0],[0.145,0.855,0],[0,0.5,0]];shape=mxgraph.bpmn.event;html=1;verticalLabelPosition=bottom;labelBackgroundColor=#ffffff;verticalAlign=top;align=center;perimeter=ellipsePerimeter;outlineConnect=0;aspect=fixed;outline=standard;symbol=message;" parent="dU9E69JfphccGUmpzk8Y-7" vertex="1">
          <mxGeometry x="80" y="76" width="28" height="28" as="geometry" />
        </mxCell>
        <mxCell id="Jun43E7Qr0FumyG7URi--9" value="analyze message" style="points=[[0.25,0,0],[0.5,0,0],[0.75,0,0],[1,0.25,0],[1,0.5,0],[1,0.75,0],[0.75,1,0],[0.5,1,0],[0.25,1,0],[0,0.75,0],[0,0.5,0],[0,0.25,0]];shape=mxgraph.bpmn.task;rectStyle=rounded;size=10;taskMarker=abstract;whiteSpace=wrap;fillColor=#cce5ff;strokeColor=#36393d;" parent="dU9E69JfphccGUmpzk8Y-7" vertex="1">
          <mxGeometry x="170" y="55" width="80" height="70" as="geometry" />
        </mxCell>
        <mxCell id="Jun43E7Qr0FumyG7URi--8" style="edgeStyle=orthogonalEdgeStyle;rounded=1;orthogonalLoop=1;jettySize=auto;html=1;entryX=0;entryY=0.5;entryDx=0;entryDy=0;entryPerimeter=0;" parent="dU9E69JfphccGUmpzk8Y-7" source="Jun43E7Qr0FumyG7URi--3" target="Jun43E7Qr0FumyG7URi--9" edge="1">
          <mxGeometry relative="1" as="geometry">
            <mxPoint x="200" y="90" as="targetPoint" />
          </mxGeometry>
        </mxCell>
        <mxCell id="Jun43E7Qr0FumyG7URi--26" style="edgeStyle=orthogonalEdgeStyle;rounded=1;orthogonalLoop=1;jettySize=auto;html=1;entryX=0;entryY=0.5;entryDx=0;entryDy=0;entryPerimeter=0;" parent="dU9E69JfphccGUmpzk8Y-7" source="Jun43E7Qr0FumyG7URi--14" target="Jun43E7Qr0FumyG7URi--25" edge="1">
          <mxGeometry relative="1" as="geometry" />
        </mxCell>
        <mxCell id="Jun43E7Qr0FumyG7URi--14" value="do operation commands" style="points=[[0.25,0,0],[0.5,0,0],[0.75,0,0],[1,0.25,0],[1,0.5,0],[1,0.75,0],[0.75,1,0],[0.5,1,0],[0.25,1,0],[0,0.75,0],[0,0.5,0],[0,0.25,0]];shape=mxgraph.bpmn.task;rectStyle=rounded;size=10;taskMarker=abstract;whiteSpace=wrap;fillColor=#cce5ff;strokeColor=#36393d;" parent="dU9E69JfphccGUmpzk8Y-7" vertex="1">
          <mxGeometry x="300" y="55" width="80" height="70" as="geometry" />
        </mxCell>
        <mxCell id="Jun43E7Qr0FumyG7URi--18" value="sends a status signal to the user" style="points=[[0.25,0,0],[0.5,0,0],[0.75,0,0],[1,0.25,0],[1,0.5,0],[1,0.75,0],[0.75,1,0],[0.5,1,0],[0.25,1,0],[0,0.75,0],[0,0.5,0],[0,0.25,0]];shape=mxgraph.bpmn.task;rectStyle=rounded;size=10;taskMarker=abstract;whiteSpace=wrap;fillColor=#cce5ff;strokeColor=#36393d;" parent="dU9E69JfphccGUmpzk8Y-7" vertex="1">
          <mxGeometry x="530" y="55" width="120" height="70" as="geometry" />
        </mxCell>
        <mxCell id="Jun43E7Qr0FumyG7URi--30" style="edgeStyle=orthogonalEdgeStyle;rounded=1;orthogonalLoop=1;jettySize=auto;html=1;entryX=0;entryY=0.5;entryDx=0;entryDy=0;entryPerimeter=0;" parent="dU9E69JfphccGUmpzk8Y-7" source="Jun43E7Qr0FumyG7URi--25" target="Jun43E7Qr0FumyG7URi--18" edge="1">
          <mxGeometry relative="1" as="geometry" />
        </mxCell>
        <mxCell id="Jun43E7Qr0FumyG7URi--25" value="wait until the &lt;br&gt;operation is completed" style="points=[[0.145,0.145,0],[0.5,0,0],[0.855,0.145,0],[1,0.5,0],[0.855,0.855,0],[0.5,1,0],[0.145,0.855,0],[0,0.5,0]];shape=mxgraph.bpmn.event;html=1;verticalLabelPosition=bottom;labelBackgroundColor=#ffffff;verticalAlign=top;align=center;perimeter=ellipsePerimeter;outlineConnect=0;aspect=fixed;outline=standard;symbol=timer;" parent="dU9E69JfphccGUmpzk8Y-7" vertex="1">
          <mxGeometry x="430" y="71.5" width="37" height="37" as="geometry" />
        </mxCell>
        <mxCell id="Jun43E7Qr0FumyG7URi--4" style="edgeStyle=orthogonalEdgeStyle;rounded=1;orthogonalLoop=1;jettySize=auto;html=1;entryX=0.5;entryY=0;entryDx=0;entryDy=0;entryPerimeter=0;exitX=0.5;exitY=1;exitDx=0;exitDy=0;exitPerimeter=0;dashed=1;" parent="dU9E69JfphccGUmpzk8Y-5" source="Jun43E7Qr0FumyG7URi--7" target="Jun43E7Qr0FumyG7URi--3" edge="1">
          <mxGeometry relative="1" as="geometry">
            <Array as="points">
              <mxPoint x="335" y="160" />
              <mxPoint x="114" y="160" />
            </Array>
          </mxGeometry>
        </mxCell>
        <mxCell id="Jun43E7Qr0FumyG7URi--20" style="edgeStyle=orthogonalEdgeStyle;rounded=1;orthogonalLoop=1;jettySize=auto;html=1;exitX=0.5;exitY=0;exitDx=0;exitDy=0;exitPerimeter=0;entryX=0.5;entryY=1;entryDx=0;entryDy=0;entryPerimeter=0;dashed=1;" parent="dU9E69JfphccGUmpzk8Y-5" source="Jun43E7Qr0FumyG7URi--18" target="Jun43E7Qr0FumyG7URi--22" edge="1">
          <mxGeometry relative="1" as="geometry">
            <mxPoint x="510" y="120" as="targetPoint" />
            <Array as="points">
              <mxPoint x="610" y="170" />
              <mxPoint x="531" y="170" />
            </Array>
          </mxGeometry>
        </mxCell>
        <mxCell id="Jun43E7Qr0FumyG7URi--16" style="edgeStyle=orthogonalEdgeStyle;rounded=1;orthogonalLoop=1;jettySize=auto;html=1;entryX=0.5;entryY=1;entryDx=0;entryDy=0;entryPerimeter=0;" parent="dU9E69JfphccGUmpzk8Y-1" target="Jun43E7Qr0FumyG7URi--14" edge="1">
          <mxGeometry relative="1" as="geometry">
            <Array as="points">
              <mxPoint x="430" y="500" />
            </Array>
            <mxPoint x="430" y="500" as="sourcePoint" />
          </mxGeometry>
        </mxCell>
        <mxCell id="Jun43E7Qr0FumyG7URi--10" value="" style="swimlane;html=1;startSize=20;fontStyle=0;collapsible=0;horizontal=0;swimlaneLine=0;fillColor=none;" parent="dU9E69JfphccGUmpzk8Y-1" vertex="1">
          <mxGeometry x="240" y="500" width="260" height="60" as="geometry" />
        </mxCell>
        <mxCell id="Jun43E7Qr0FumyG7URi--11" value="signal code decryption and verification rules&amp;nbsp;" style="text;html=1;align=center;verticalAlign=middle;resizable=0;points=[];autosize=1;strokeColor=none;" parent="Jun43E7Qr0FumyG7URi--10" vertex="1">
          <mxGeometry x="5" y="20" width="250" height="20" as="geometry" />
        </mxCell>
        <mxCell id="Jun43E7Qr0FumyG7URi--19" style="edgeStyle=orthogonalEdgeStyle;rounded=1;orthogonalLoop=1;jettySize=auto;html=1;" parent="dU9E69JfphccGUmpzk8Y-1" source="Jun43E7Qr0FumyG7URi--9" edge="1">
          <mxGeometry relative="1" as="geometry">
            <mxPoint x="300" y="500" as="targetPoint" />
          </mxGeometry>
        </mxCell>
      </root>
    </mxGraphModel>
  </diagram>
  <diagram name="bpmn-location boundary" id="u1sNaagykzFSqOdfXrIo">
    <mxGraphModel dx="1038" dy="641" grid="1" gridSize="10" guides="1" tooltips="1" connect="1" arrows="1" fold="1" page="1" pageScale="1" pageWidth="900" pageHeight="600" math="0" shadow="0">
      <root>
        <mxCell id="9VKCpG2XOMYo0gkvKSUs-0" />
        <mxCell id="9VKCpG2XOMYo0gkvKSUs-1" parent="9VKCpG2XOMYo0gkvKSUs-0" />
        <mxCell id="9VKCpG2XOMYo0gkvKSUs-2" value="car location boundary" style="swimlane;html=1;childLayout=stackLayout;resizeParent=1;resizeParentMax=0;horizontal=0;startSize=20;horizontalStack=0;strokeColor=#000000;fillColor=none;labelBorderColor=none;labelBackgroundColor=#ffffff;align=center;" parent="9VKCpG2XOMYo0gkvKSUs-1" vertex="1">
          <mxGeometry x="45" y="120" width="810" height="340" as="geometry" />
        </mxCell>
        <mxCell id="9VKCpG2XOMYo0gkvKSUs-4" value="user" style="swimlane;html=1;startSize=20;horizontal=0;labelBackgroundColor=none;" parent="9VKCpG2XOMYo0gkvKSUs-2" vertex="1">
          <mxGeometry x="20" width="790" height="190" as="geometry" />
        </mxCell>
        <mxCell id="9VKCpG2XOMYo0gkvKSUs-5" style="edgeStyle=orthogonalEdgeStyle;rounded=1;orthogonalLoop=1;jettySize=auto;html=1;entryX=0;entryY=0.5;entryDx=0;entryDy=0;exitX=1;exitY=0.5;exitDx=0;exitDy=0;exitPerimeter=0;" parent="9VKCpG2XOMYo0gkvKSUs-4" source="PQnh9OqBITL95cxiELrI-1" target="9VKCpG2XOMYo0gkvKSUs-46" edge="1">
          <mxGeometry relative="1" as="geometry">
            <mxPoint x="140" y="62.5" as="targetPoint" />
            <mxPoint x="90" y="62.5" as="sourcePoint" />
          </mxGeometry>
        </mxCell>
        <mxCell id="PQnh9OqBITL95cxiELrI-4" style="edgeStyle=orthogonalEdgeStyle;rounded=1;orthogonalLoop=1;jettySize=auto;html=1;" parent="9VKCpG2XOMYo0gkvKSUs-4" source="9VKCpG2XOMYo0gkvKSUs-12" target="PQnh9OqBITL95cxiELrI-2" edge="1">
          <mxGeometry relative="1" as="geometry" />
        </mxCell>
        <mxCell id="9VKCpG2XOMYo0gkvKSUs-12" value="user save settings" style="shape=ext;rounded=1;html=1;whiteSpace=wrap;strokeColor=#36393d;fillColor=#cce5ff;" parent="9VKCpG2XOMYo0gkvKSUs-4" vertex="1">
          <mxGeometry x="320" y="37.5" width="80" height="50" as="geometry" />
        </mxCell>
        <mxCell id="jsXPPzw8hoKYWxu6DGYr-10" style="edgeStyle=orthogonalEdgeStyle;rounded=1;jumpStyle=arc;jumpSize=12;orthogonalLoop=1;jettySize=auto;html=1;endArrow=classic;endFill=1;strokeColor=#000000;" parent="9VKCpG2XOMYo0gkvKSUs-4" source="9VKCpG2XOMYo0gkvKSUs-46" target="9VKCpG2XOMYo0gkvKSUs-12" edge="1">
          <mxGeometry relative="1" as="geometry" />
        </mxCell>
        <mxCell id="9VKCpG2XOMYo0gkvKSUs-46" value="user sets location boundary" style="shape=ext;rounded=1;html=1;whiteSpace=wrap;strokeColor=#36393d;fillColor=#cce5ff;" parent="9VKCpG2XOMYo0gkvKSUs-4" vertex="1">
          <mxGeometry x="150" y="37.5" width="80" height="50" as="geometry" />
        </mxCell>
        <mxCell id="PQnh9OqBITL95cxiELrI-1" value="" style="points=[[0.145,0.145,0],[0.5,0,0],[0.855,0.145,0],[1,0.5,0],[0.855,0.855,0],[0.5,1,0],[0.145,0.855,0],[0,0.5,0]];shape=mxgraph.bpmn.event;html=1;verticalLabelPosition=bottom;labelBackgroundColor=#ffffff;verticalAlign=top;align=center;perimeter=ellipsePerimeter;outlineConnect=0;aspect=fixed;outline=standard;symbol=general;" parent="9VKCpG2XOMYo0gkvKSUs-4" vertex="1">
          <mxGeometry x="30" y="46.25" width="32.5" height="32.5" as="geometry" />
        </mxCell>
        <mxCell id="PQnh9OqBITL95cxiELrI-2" value="" style="points=[[0.145,0.145,0],[0.5,0,0],[0.855,0.145,0],[1,0.5,0],[0.855,0.855,0],[0.5,1,0],[0.145,0.855,0],[0,0.5,0]];shape=mxgraph.bpmn.event;html=1;verticalLabelPosition=bottom;labelBackgroundColor=#ffffff;verticalAlign=top;align=center;perimeter=ellipsePerimeter;outlineConnect=0;aspect=fixed;outline=end;symbol=terminate;" parent="9VKCpG2XOMYo0gkvKSUs-4" vertex="1">
          <mxGeometry x="630" y="42.5" width="40" height="40" as="geometry" />
        </mxCell>
        <mxCell id="PQnh9OqBITL95cxiELrI-9" value="" style="points=[[0.145,0.145,0],[0.5,0,0],[0.855,0.145,0],[1,0.5,0],[0.855,0.855,0],[0.5,1,0],[0.145,0.855,0],[0,0.5,0]];shape=mxgraph.bpmn.event;html=1;verticalLabelPosition=bottom;labelBackgroundColor=#ffffff;verticalAlign=top;align=center;perimeter=ellipsePerimeter;outlineConnect=0;aspect=fixed;outline=end;symbol=message;" parent="9VKCpG2XOMYo0gkvKSUs-4" vertex="1">
          <mxGeometry x="510" y="120" width="30" height="30" as="geometry" />
        </mxCell>
        <mxCell id="9VKCpG2XOMYo0gkvKSUs-38" value="server" style="swimlane;html=1;startSize=20;horizontal=0;labelBackgroundColor=none;" parent="9VKCpG2XOMYo0gkvKSUs-2" vertex="1">
          <mxGeometry x="20" y="190" width="790" height="150" as="geometry" />
        </mxCell>
        <mxCell id="jsXPPzw8hoKYWxu6DGYr-3" value="store data in DB" style="shape=ext;rounded=1;html=1;whiteSpace=wrap;strokeColor=#36393d;fillColor=#cce5ff;" parent="9VKCpG2XOMYo0gkvKSUs-38" vertex="1">
          <mxGeometry x="140" y="40" width="80" height="50" as="geometry" />
        </mxCell>
        <mxCell id="oMUgHzyIk63fH-byCZQX-7" style="edgeStyle=orthogonalEdgeStyle;rounded=1;jumpStyle=arc;jumpSize=12;orthogonalLoop=1;jettySize=auto;html=1;endArrow=classic;endFill=1;strokeColor=#000000;exitX=1;exitY=0.5;exitDx=0;exitDy=0;" parent="9VKCpG2XOMYo0gkvKSUs-38" source="jsXPPzw8hoKYWxu6DGYr-3" target="oMUgHzyIk63fH-byCZQX-3" edge="1">
          <mxGeometry relative="1" as="geometry">
            <mxPoint x="300" y="65" as="sourcePoint" />
          </mxGeometry>
        </mxCell>
        <mxCell id="oMUgHzyIk63fH-byCZQX-3" value="running cron jobs" style="html=1;whiteSpace=wrap;rounded=1;dropTarget=0;labelBackgroundColor=none;align=center;fillColor=#cce5ff;strokeColor=#36393d;" parent="9VKCpG2XOMYo0gkvKSUs-38" vertex="1">
          <mxGeometry x="260" y="33.75" width="90" height="62.5" as="geometry" />
        </mxCell>
        <mxCell id="oMUgHzyIk63fH-byCZQX-4" value="" style="html=1;shape=mxgraph.bpmn.loop;outlineConnect=0;" parent="oMUgHzyIk63fH-byCZQX-3" vertex="1">
          <mxGeometry x="0.5" y="1" width="14" height="14" relative="1" as="geometry">
            <mxPoint x="-15" y="-14" as="offset" />
          </mxGeometry>
        </mxCell>
        <mxCell id="oMUgHzyIk63fH-byCZQX-5" value="" style="html=1;shape=plus;" parent="oMUgHzyIk63fH-byCZQX-3" vertex="1">
          <mxGeometry x="0.5" y="1" width="14" height="14" relative="1" as="geometry">
            <mxPoint x="1" y="-14" as="offset" />
          </mxGeometry>
        </mxCell>
        <mxCell id="oMUgHzyIk63fH-byCZQX-8" style="edgeStyle=orthogonalEdgeStyle;rounded=1;jumpStyle=arc;jumpSize=12;orthogonalLoop=1;jettySize=auto;html=1;endArrow=classic;endFill=1;strokeColor=#000000;entryX=0;entryY=0.5;entryDx=0;entryDy=0;" parent="9VKCpG2XOMYo0gkvKSUs-38" target="JayqHm3q4bwkhaQtNicI-17" edge="1">
          <mxGeometry relative="1" as="geometry">
            <mxPoint x="540" y="90" as="targetPoint" />
            <Array as="points">
              <mxPoint x="313" y="120" />
              <mxPoint x="370" y="120" />
              <mxPoint x="370" y="65" />
            </Array>
            <mxPoint x="313" y="96" as="sourcePoint" />
          </mxGeometry>
        </mxCell>
        <mxCell id="JayqHm3q4bwkhaQtNicI-20" style="edgeStyle=orthogonalEdgeStyle;rounded=1;orthogonalLoop=1;jettySize=auto;html=1;entryX=0;entryY=0.5;entryDx=0;entryDy=0;entryPerimeter=0;" parent="9VKCpG2XOMYo0gkvKSUs-38" source="JayqHm3q4bwkhaQtNicI-17" target="5jMH3RB8OnYYO4gviwz7-4" edge="1">
          <mxGeometry relative="1" as="geometry" />
        </mxCell>
        <mxCell id="JayqHm3q4bwkhaQtNicI-17" value="is car in location boundary?" style="shape=ext;rounded=1;html=1;whiteSpace=wrap;strokeColor=#36393d;fillColor=#cce5ff;" parent="9VKCpG2XOMYo0gkvKSUs-38" vertex="1">
          <mxGeometry x="400" y="40" width="100" height="50" as="geometry" />
        </mxCell>
        <mxCell id="JayqHm3q4bwkhaQtNicI-24" style="edgeStyle=orthogonalEdgeStyle;rounded=1;orthogonalLoop=1;jettySize=auto;html=1;entryX=0.5;entryY=0;entryDx=0;entryDy=0;exitX=0.5;exitY=0;exitDx=0;exitDy=0;exitPerimeter=0;" parent="9VKCpG2XOMYo0gkvKSUs-38" source="5jMH3RB8OnYYO4gviwz7-4" target="oMUgHzyIk63fH-byCZQX-3" edge="1">
          <mxGeometry relative="1" as="geometry">
            <Array as="points">
              <mxPoint x="565" y="14" />
              <mxPoint x="305" y="14" />
            </Array>
          </mxGeometry>
        </mxCell>
        <mxCell id="JayqHm3q4bwkhaQtNicI-25" value="Yes" style="edgeLabel;html=1;align=center;verticalAlign=middle;resizable=0;points=[];" parent="JayqHm3q4bwkhaQtNicI-24" vertex="1" connectable="0">
          <mxGeometry x="-0.4888" y="1" relative="1" as="geometry">
            <mxPoint x="50" as="offset" />
          </mxGeometry>
        </mxCell>
        <mxCell id="5jMH3RB8OnYYO4gviwz7-4" value="" style="points=[[0.25,0.25,0],[0.5,0,0],[0.75,0.25,0],[1,0.5,0],[0.75,0.75,0],[0.5,1,0],[0.25,0.75,0],[0,0.5,0]];shape=mxgraph.bpmn.gateway2;html=1;verticalLabelPosition=bottom;labelBackgroundColor=#ffffff;verticalAlign=top;align=center;perimeter=rhombusPerimeter;outlineConnect=0;outline=none;symbol=none;gwType=exclusive;" parent="9VKCpG2XOMYo0gkvKSUs-38" vertex="1">
          <mxGeometry x="550" y="50" width="30" height="30" as="geometry" />
        </mxCell>
        <mxCell id="JayqHm3q4bwkhaQtNicI-12" value="notify user" style="shape=ext;rounded=1;html=1;whiteSpace=wrap;strokeColor=#36393d;fillColor=#cce5ff;" parent="9VKCpG2XOMYo0gkvKSUs-38" vertex="1">
          <mxGeometry x="630" y="40" width="80" height="50" as="geometry" />
        </mxCell>
        <mxCell id="JayqHm3q4bwkhaQtNicI-21" style="edgeStyle=orthogonalEdgeStyle;rounded=1;orthogonalLoop=1;jettySize=auto;html=1;entryX=0;entryY=0.5;entryDx=0;entryDy=0;exitX=1;exitY=0.5;exitDx=0;exitDy=0;exitPerimeter=0;" parent="9VKCpG2XOMYo0gkvKSUs-38" source="5jMH3RB8OnYYO4gviwz7-4" target="JayqHm3q4bwkhaQtNicI-12" edge="1">
          <mxGeometry relative="1" as="geometry" />
        </mxCell>
        <mxCell id="5jMH3RB8OnYYO4gviwz7-0" value="No" style="edgeLabel;html=1;align=center;verticalAlign=middle;resizable=0;points=[];" parent="JayqHm3q4bwkhaQtNicI-21" vertex="1" connectable="0">
          <mxGeometry x="-0.1122" relative="1" as="geometry">
            <mxPoint y="15" as="offset" />
          </mxGeometry>
        </mxCell>
        <mxCell id="PQnh9OqBITL95cxiELrI-11" value="" style="points=[[0.145,0.145,0],[0.5,0,0],[0.855,0.145,0],[1,0.5,0],[0.855,0.855,0],[0.5,1,0],[0.145,0.855,0],[0,0.5,0]];shape=mxgraph.bpmn.event;html=1;verticalLabelPosition=bottom;labelBackgroundColor=#ffffff;verticalAlign=top;align=center;perimeter=ellipsePerimeter;outlineConnect=0;aspect=fixed;outline=end;symbol=terminate;" parent="9VKCpG2XOMYo0gkvKSUs-38" vertex="1">
          <mxGeometry x="730" y="90" width="40" height="40" as="geometry" />
        </mxCell>
        <mxCell id="PQnh9OqBITL95cxiELrI-10" style="edgeStyle=orthogonalEdgeStyle;rounded=1;orthogonalLoop=1;jettySize=auto;html=1;exitX=0.5;exitY=1;exitDx=0;exitDy=0;entryX=0;entryY=0.5;entryDx=0;entryDy=0;entryPerimeter=0;" parent="9VKCpG2XOMYo0gkvKSUs-38" source="JayqHm3q4bwkhaQtNicI-12" target="PQnh9OqBITL95cxiELrI-11" edge="1">
          <mxGeometry relative="1" as="geometry">
            <mxPoint x="710" y="110" as="targetPoint" />
          </mxGeometry>
        </mxCell>
        <mxCell id="PQnh9OqBITL95cxiELrI-0" value="data received&lt;br&gt;&amp;nbsp;by the server" style="points=[[0.145,0.145,0],[0.5,0,0],[0.855,0.145,0],[1,0.5,0],[0.855,0.855,0],[0.5,1,0],[0.145,0.855,0],[0,0.5,0]];shape=mxgraph.bpmn.event;html=1;verticalLabelPosition=bottom;labelBackgroundColor=#ffffff;verticalAlign=top;align=center;perimeter=ellipsePerimeter;outlineConnect=0;aspect=fixed;outline=eventNonint;symbol=message;" parent="9VKCpG2XOMYo0gkvKSUs-1" vertex="1">
          <mxGeometry x="130" y="360" width="30" height="30" as="geometry" />
        </mxCell>
        <mxCell id="9VKCpG2XOMYo0gkvKSUs-48" style="edgeStyle=orthogonalEdgeStyle;rounded=1;jumpStyle=arc;jumpSize=12;orthogonalLoop=1;jettySize=auto;html=1;endArrow=classic;endFill=1;strokeColor=#000000;dashed=1;entryX=0.5;entryY=0;entryDx=0;entryDy=0;entryPerimeter=0;" parent="9VKCpG2XOMYo0gkvKSUs-1" source="9VKCpG2XOMYo0gkvKSUs-46" target="PQnh9OqBITL95cxiELrI-0" edge="1">
          <mxGeometry relative="1" as="geometry">
            <mxPoint x="145" y="350" as="targetPoint" />
            <Array as="points">
              <mxPoint x="260" y="270" />
              <mxPoint x="145" y="270" />
            </Array>
          </mxGeometry>
        </mxCell>
        <mxCell id="jsXPPzw8hoKYWxu6DGYr-2" style="edgeStyle=orthogonalEdgeStyle;rounded=1;jumpStyle=arc;jumpSize=12;orthogonalLoop=1;jettySize=auto;html=1;endArrow=classic;endFill=1;strokeColor=#000000;exitX=1;exitY=0.5;exitDx=0;exitDy=0;exitPerimeter=0;" parent="9VKCpG2XOMYo0gkvKSUs-1" source="PQnh9OqBITL95cxiELrI-0" target="jsXPPzw8hoKYWxu6DGYr-3" edge="1">
          <mxGeometry relative="1" as="geometry">
            <mxPoint x="260" y="375" as="targetPoint" />
            <mxPoint x="170" y="375" as="sourcePoint" />
          </mxGeometry>
        </mxCell>
        <mxCell id="PQnh9OqBITL95cxiELrI-5" style="edgeStyle=orthogonalEdgeStyle;rounded=1;orthogonalLoop=1;jettySize=auto;html=1;entryX=0;entryY=0.5;entryDx=0;entryDy=0;entryPerimeter=0;dashed=1;" parent="9VKCpG2XOMYo0gkvKSUs-1" source="JayqHm3q4bwkhaQtNicI-12" target="PQnh9OqBITL95cxiELrI-6" edge="1">
          <mxGeometry relative="1" as="geometry">
            <mxPoint x="570" y="260" as="targetPoint" />
            <Array as="points">
              <mxPoint x="740" y="290" />
              <mxPoint x="470" y="290" />
              <mxPoint x="470" y="255" />
            </Array>
          </mxGeometry>
        </mxCell>
        <mxCell id="PQnh9OqBITL95cxiELrI-7" style="edgeStyle=orthogonalEdgeStyle;rounded=1;orthogonalLoop=1;jettySize=auto;html=1;entryX=0;entryY=0.5;entryDx=0;entryDy=0;entryPerimeter=0;" parent="9VKCpG2XOMYo0gkvKSUs-1" source="PQnh9OqBITL95cxiELrI-6" target="PQnh9OqBITL95cxiELrI-9" edge="1">
          <mxGeometry relative="1" as="geometry">
            <mxPoint x="570" y="255" as="targetPoint" />
          </mxGeometry>
        </mxCell>
        <mxCell id="PQnh9OqBITL95cxiELrI-6" value="&lt;font style=&quot;font-size: 11px ; line-height: 130%&quot;&gt;user will&lt;br&gt;notified&lt;/font&gt;" style="points=[[0.145,0.145,0],[0.5,0,0],[0.855,0.145,0],[1,0.5,0],[0.855,0.855,0],[0.5,1,0],[0.145,0.855,0],[0,0.5,0]];shape=mxgraph.bpmn.event;html=1;verticalLabelPosition=bottom;labelBackgroundColor=#ffffff;verticalAlign=top;align=center;perimeter=ellipsePerimeter;outlineConnect=0;aspect=fixed;outline=catching;symbol=message;" parent="9VKCpG2XOMYo0gkvKSUs-1" vertex="1">
          <mxGeometry x="490" y="240" width="30" height="30" as="geometry" />
        </mxCell>
      </root>
    </mxGraphModel>
  </diagram>
  <diagram name="bpmn-application-update" id="H7vJkMIlPLP5wEfM5e_s">
    <mxGraphModel dx="1038" dy="641" grid="1" gridSize="10" guides="1" tooltips="1" connect="1" arrows="1" fold="1" page="1" pageScale="1" pageWidth="900" pageHeight="600" math="0" shadow="0">
      <root>
        <mxCell id="kvog9ReZrHZYn0gt_dSx-0" />
        <mxCell id="kvog9ReZrHZYn0gt_dSx-1" parent="kvog9ReZrHZYn0gt_dSx-0" />
        <mxCell id="kvog9ReZrHZYn0gt_dSx-2" value="desktop application update" style="swimlane;html=1;childLayout=stackLayout;resizeParent=1;resizeParentMax=0;horizontal=0;startSize=20;horizontalStack=0;" parent="kvog9ReZrHZYn0gt_dSx-1" vertex="1">
          <mxGeometry x="40" y="120" width="800" height="360" as="geometry" />
        </mxCell>
        <mxCell id="kvog9ReZrHZYn0gt_dSx-3" value="desktop application" style="swimlane;html=1;startSize=20;horizontal=0;" parent="kvog9ReZrHZYn0gt_dSx-2" vertex="1">
          <mxGeometry x="20" width="780" height="360" as="geometry" />
        </mxCell>
        <mxCell id="x4mHGNmwioLVfY8o8oOV-11" value="" style="edgeStyle=orthogonalEdgeStyle;rounded=1;orthogonalLoop=1;jettySize=auto;html=1;" parent="kvog9ReZrHZYn0gt_dSx-3" source="kvog9ReZrHZYn0gt_dSx-15" target="x4mHGNmwioLVfY8o8oOV-10" edge="1">
          <mxGeometry relative="1" as="geometry" />
        </mxCell>
        <mxCell id="kvog9ReZrHZYn0gt_dSx-15" value="user click update button" style="points=[[0.25,0,0],[0.5,0,0],[0.75,0,0],[1,0.25,0],[1,0.5,0],[1,0.75,0],[0.75,1,0],[0.5,1,0],[0.25,1,0],[0,0.75,0],[0,0.5,0],[0,0.25,0]];shape=mxgraph.bpmn.task;rectStyle=rounded;size=10;taskMarker=abstract;whiteSpace=wrap;fillColor=#cce5ff;strokeColor=#36393d;" parent="kvog9ReZrHZYn0gt_dSx-3" vertex="1">
          <mxGeometry x="131" y="90.02" width="90" height="72.5" as="geometry" />
        </mxCell>
        <mxCell id="ltpGk18P3cQ2l9Zn_yBS-4" style="edgeStyle=orthogonalEdgeStyle;rounded=1;orthogonalLoop=1;jettySize=auto;html=1;" parent="kvog9ReZrHZYn0gt_dSx-3" source="kvog9ReZrHZYn0gt_dSx-20" target="kvog9ReZrHZYn0gt_dSx-22" edge="1">
          <mxGeometry relative="1" as="geometry" />
        </mxCell>
        <mxCell id="kvog9ReZrHZYn0gt_dSx-20" value="the update gets installed" style="points=[[0.25,0,0],[0.5,0,0],[0.75,0,0],[1,0.25,0],[1,0.5,0],[1,0.75,0],[0.75,1,0],[0.5,1,0],[0.25,1,0],[0,0.75,0],[0,0.5,0],[0,0.25,0]];shape=mxgraph.bpmn.task;rectStyle=rounded;size=10;taskMarker=abstract;whiteSpace=wrap;fillColor=#cce5ff;strokeColor=#36393d;" parent="kvog9ReZrHZYn0gt_dSx-3" vertex="1">
          <mxGeometry x="581" y="90" width="80" height="72.5" as="geometry" />
        </mxCell>
        <mxCell id="kvog9ReZrHZYn0gt_dSx-22" value="" style="points=[[0.145,0.145,0],[0.5,0,0],[0.855,0.145,0],[1,0.5,0],[0.855,0.855,0],[0.5,1,0],[0.145,0.855,0],[0,0.5,0]];shape=mxgraph.bpmn.event;html=1;verticalLabelPosition=bottom;labelBackgroundColor=#ffffff;verticalAlign=top;align=center;perimeter=ellipsePerimeter;outlineConnect=0;aspect=fixed;outline=end;symbol=terminate;" parent="kvog9ReZrHZYn0gt_dSx-3" vertex="1">
          <mxGeometry x="691" y="108.78000000000002" width="37.49" height="37.49" as="geometry" />
        </mxCell>
        <mxCell id="kvog9ReZrHZYn0gt_dSx-23" value="" style="points=[[0.145,0.145,0],[0.5,0,0],[0.855,0.145,0],[1,0.5,0],[0.855,0.855,0],[0.5,1,0],[0.145,0.855,0],[0,0.5,0]];shape=mxgraph.bpmn.event;html=1;verticalLabelPosition=bottom;labelBackgroundColor=#ffffff;verticalAlign=top;align=center;perimeter=ellipsePerimeter;outlineConnect=0;aspect=fixed;outline=standard;symbol=general;" parent="kvog9ReZrHZYn0gt_dSx-3" vertex="1">
          <mxGeometry x="51" y="108.77" width="34.99" height="34.99" as="geometry" />
        </mxCell>
        <mxCell id="kvog9ReZrHZYn0gt_dSx-13" style="edgeStyle=orthogonalEdgeStyle;rounded=1;orthogonalLoop=1;jettySize=auto;html=1;exitX=1;exitY=0.5;exitDx=0;exitDy=0;exitPerimeter=0;" parent="kvog9ReZrHZYn0gt_dSx-3" source="kvog9ReZrHZYn0gt_dSx-23" target="kvog9ReZrHZYn0gt_dSx-15" edge="1">
          <mxGeometry relative="1" as="geometry">
            <mxPoint y="62.51999999999998" as="sourcePoint" />
          </mxGeometry>
        </mxCell>
        <mxCell id="ltpGk18P3cQ2l9Zn_yBS-3" value="" style="edgeStyle=orthogonalEdgeStyle;rounded=1;orthogonalLoop=1;jettySize=auto;html=1;" parent="kvog9ReZrHZYn0gt_dSx-3" source="ltpGk18P3cQ2l9Zn_yBS-0" target="kvog9ReZrHZYn0gt_dSx-20" edge="1">
          <mxGeometry relative="1" as="geometry" />
        </mxCell>
        <mxCell id="ltpGk18P3cQ2l9Zn_yBS-0" value="application gets update files" style="points=[[0.25,0,0],[0.5,0,0],[0.75,0,0],[1,0.25,0],[1,0.5,0],[1,0.75,0],[0.75,1,0],[0.5,1,0],[0.25,1,0],[0,0.75,0],[0,0.5,0],[0,0.25,0]];shape=mxgraph.bpmn.task;rectStyle=rounded;size=10;taskMarker=abstract;whiteSpace=wrap;fillColor=#cce5ff;strokeColor=#36393d;" parent="kvog9ReZrHZYn0gt_dSx-3" vertex="1">
          <mxGeometry x="471" y="90.04" width="80" height="72.48" as="geometry" />
        </mxCell>
        <mxCell id="x4mHGNmwioLVfY8o8oOV-18" value="" style="edgeStyle=orthogonalEdgeStyle;rounded=1;orthogonalLoop=1;jettySize=auto;html=1;" parent="kvog9ReZrHZYn0gt_dSx-3" source="x4mHGNmwioLVfY8o8oOV-10" target="x4mHGNmwioLVfY8o8oOV-17" edge="1">
          <mxGeometry relative="1" as="geometry" />
        </mxCell>
        <mxCell id="x4mHGNmwioLVfY8o8oOV-10" value="check GitHub for new  updates" style="points=[[0.25,0,0],[0.5,0,0],[0.75,0,0],[1,0.25,0],[1,0.5,0],[1,0.75,0],[0.75,1,0],[0.5,1,0],[0.25,1,0],[0,0.75,0],[0,0.5,0],[0,0.25,0]];shape=mxgraph.bpmn.task;rectStyle=rounded;size=10;taskMarker=abstract;whiteSpace=wrap;fillColor=#cce5ff;strokeColor=#36393d;" parent="kvog9ReZrHZYn0gt_dSx-3" vertex="1">
          <mxGeometry x="261" y="90" width="90" height="72.5" as="geometry" />
        </mxCell>
        <mxCell id="x4mHGNmwioLVfY8o8oOV-17" value="" style="points=[[0.25,0.25,0],[0.5,0,0],[0.75,0.25,0],[1,0.5,0],[0.75,0.75,0],[0.5,1,0],[0.25,0.75,0],[0,0.5,0]];shape=mxgraph.bpmn.gateway2;html=1;verticalLabelPosition=bottom;labelBackgroundColor=#ffffff;verticalAlign=top;align=center;perimeter=rhombusPerimeter;outlineConnect=0;outline=none;symbol=none;gwType=exclusive;" parent="kvog9ReZrHZYn0gt_dSx-3" vertex="1">
          <mxGeometry x="381" y="108.78" width="34.99" height="34.99" as="geometry" />
        </mxCell>
        <mxCell id="x4mHGNmwioLVfY8o8oOV-38" style="edgeStyle=orthogonalEdgeStyle;rounded=1;orthogonalLoop=1;jettySize=auto;html=1;entryX=0;entryY=0.5;entryDx=0;entryDy=0;entryPerimeter=0;" parent="kvog9ReZrHZYn0gt_dSx-3" source="x4mHGNmwioLVfY8o8oOV-36" target="x4mHGNmwioLVfY8o8oOV-37" edge="1">
          <mxGeometry relative="1" as="geometry" />
        </mxCell>
        <mxCell id="x4mHGNmwioLVfY8o8oOV-36" value="cancel update" style="points=[[0.25,0,0],[0.5,0,0],[0.75,0,0],[1,0.25,0],[1,0.5,0],[1,0.75,0],[0.75,1,0],[0.5,1,0],[0.25,1,0],[0,0.75,0],[0,0.5,0],[0,0.25,0]];shape=mxgraph.bpmn.task;rectStyle=rounded;size=10;taskMarker=abstract;whiteSpace=wrap;fillColor=#cce5ff;strokeColor=#36393d;" parent="kvog9ReZrHZYn0gt_dSx-3" vertex="1">
          <mxGeometry x="521" y="216" width="90" height="72.5" as="geometry" />
        </mxCell>
        <mxCell id="x4mHGNmwioLVfY8o8oOV-20" style="edgeStyle=orthogonalEdgeStyle;rounded=1;orthogonalLoop=1;jettySize=auto;html=1;entryX=0;entryY=0.5;entryDx=0;entryDy=0;entryPerimeter=0;" parent="kvog9ReZrHZYn0gt_dSx-3" source="x4mHGNmwioLVfY8o8oOV-17" target="x4mHGNmwioLVfY8o8oOV-36" edge="1">
          <mxGeometry relative="1" as="geometry">
            <mxPoint x="408.4949999999999" y="246" as="targetPoint" />
            <Array as="points">
              <mxPoint x="398" y="180" />
              <mxPoint x="398" y="252" />
            </Array>
          </mxGeometry>
        </mxCell>
        <mxCell id="x4mHGNmwioLVfY8o8oOV-39" value="no" style="edgeLabel;html=1;align=center;verticalAlign=middle;resizable=0;points=[];" parent="x4mHGNmwioLVfY8o8oOV-20" vertex="1" connectable="0">
          <mxGeometry x="-0.5817" y="-1" relative="1" as="geometry">
            <mxPoint as="offset" />
          </mxGeometry>
        </mxCell>
        <mxCell id="x4mHGNmwioLVfY8o8oOV-37" value="" style="points=[[0.145,0.145,0],[0.5,0,0],[0.855,0.145,0],[1,0.5,0],[0.855,0.855,0],[0.5,1,0],[0.145,0.855,0],[0,0.5,0]];shape=mxgraph.bpmn.event;html=1;verticalLabelPosition=bottom;labelBackgroundColor=#ffffff;verticalAlign=top;align=center;perimeter=ellipsePerimeter;outlineConnect=0;aspect=fixed;outline=end;symbol=terminate;" parent="kvog9ReZrHZYn0gt_dSx-3" vertex="1">
          <mxGeometry x="691" y="233.5" width="37.49" height="37.49" as="geometry" />
        </mxCell>
        <mxCell id="x4mHGNmwioLVfY8o8oOV-19" value="" style="edgeStyle=orthogonalEdgeStyle;rounded=1;orthogonalLoop=1;jettySize=auto;html=1;exitX=1;exitY=0.5;exitDx=0;exitDy=0;exitPerimeter=0;" parent="kvog9ReZrHZYn0gt_dSx-3" source="x4mHGNmwioLVfY8o8oOV-17" edge="1">
          <mxGeometry relative="1" as="geometry">
            <mxPoint x="425.97373786407763" y="126.19126213592233" as="sourcePoint" />
            <mxPoint x="471" y="126.152427184466" as="targetPoint" />
          </mxGeometry>
        </mxCell>
        <mxCell id="x4mHGNmwioLVfY8o8oOV-40" value="yes" style="edgeLabel;html=1;align=center;verticalAlign=middle;resizable=0;points=[];" parent="x4mHGNmwioLVfY8o8oOV-19" vertex="1" connectable="0">
          <mxGeometry x="-0.4262" relative="1" as="geometry">
            <mxPoint x="2" as="offset" />
          </mxGeometry>
        </mxCell>
      </root>
    </mxGraphModel>
  </diagram>
  <diagram id="05eOJYowfpHflZrd55wL" name="data-base">
    <mxGraphModel dx="1050" dy="621" grid="1" gridSize="10" guides="1" tooltips="1" connect="1" arrows="1" fold="1" page="1" pageScale="1" pageWidth="1198" pageHeight="958" background="none" math="0" shadow="0">
      <root>
        <mxCell id="0" />
        <mxCell id="1" parent="0" />
        <mxCell id="NwOzusys2l84LfgM1-wq-152" style="edgeStyle=orthogonalEdgeStyle;shape=connector;rounded=1;orthogonalLoop=1;jettySize=auto;html=1;labelBackgroundColor=default;strokeColor=default;fontFamily=Carlito;fontSize=11;fontColor=default;startFill=0;endArrow=ERoneToMany;endFill=0;" parent="1" edge="1">
          <mxGeometry relative="1" as="geometry">
            <Array as="points">
              <mxPoint x="400" y="390" />
            </Array>
            <mxPoint x="440" y="390" as="targetPoint" />
          </mxGeometry>
        </mxCell>
        <mxCell id="NwOzusys2l84LfgM1-wq-207" value="one to many" style="edgeLabel;html=1;align=center;verticalAlign=middle;resizable=0;points=[];fontSize=12;fontFamily=Carlito;fontColor=default;horizontal=1;rotation=90;spacingLeft=0;spacingRight=0;labelBorderColor=none;" parent="NwOzusys2l84LfgM1-wq-152" vertex="1" connectable="0">
          <mxGeometry x="-0.4904" y="4" relative="1" as="geometry">
            <mxPoint x="-2" y="17" as="offset" />
          </mxGeometry>
        </mxCell>
        <mxCell id="NwOzusys2l84LfgM1-wq-201" style="edgeStyle=orthogonalEdgeStyle;shape=connector;rounded=1;orthogonalLoop=1;jettySize=auto;html=1;labelBackgroundColor=default;strokeColor=default;fontFamily=Carlito;fontSize=11;fontColor=default;startFill=0;endArrow=ERoneToMany;endFill=0;" parent="1" edge="1">
          <mxGeometry relative="1" as="geometry">
            <Array as="points">
              <mxPoint x="800" y="330" />
              <mxPoint x="800" y="270" />
            </Array>
            <mxPoint x="760" y="330" as="sourcePoint" />
          </mxGeometry>
        </mxCell>
        <mxCell id="NwOzusys2l84LfgM1-wq-203" style="edgeStyle=orthogonalEdgeStyle;shape=connector;rounded=1;orthogonalLoop=1;jettySize=auto;html=1;labelBackgroundColor=default;strokeColor=default;fontFamily=Carlito;fontSize=11;fontColor=default;startFill=0;endArrow=ERoneToMany;endFill=0;" parent="1" edge="1">
          <mxGeometry relative="1" as="geometry">
            <Array as="points">
              <mxPoint x="800" y="460" />
              <mxPoint x="800" y="510" />
            </Array>
            <mxPoint x="760" y="460" as="sourcePoint" />
          </mxGeometry>
        </mxCell>
        <mxCell id="NwOzusys2l84LfgM1-wq-205" style="edgeStyle=orthogonalEdgeStyle;shape=connector;rounded=1;orthogonalLoop=1;jettySize=auto;html=1;labelBackgroundColor=default;strokeColor=default;fontFamily=Carlito;fontSize=11;fontColor=default;startFill=0;endArrow=ERoneToMany;endFill=0;" parent="1" edge="1">
          <mxGeometry relative="1" as="geometry">
            <Array as="points">
              <mxPoint x="400" y="460" />
              <mxPoint x="400" y="440" />
            </Array>
            <mxPoint x="360" y="440" as="targetPoint" />
          </mxGeometry>
        </mxCell>
        <mxCell id="YcgIgXZNcNjS4kWtroWY-167" style="edgeStyle=orthogonalEdgeStyle;shape=connector;rounded=1;orthogonalLoop=1;jettySize=auto;html=1;labelBackgroundColor=default;strokeColor=default;fontFamily=Helvetica;fontSize=11;fontColor=default;endArrow=ERoneToMany;" parent="1" source="YcgIgXZNcNjS4kWtroWY-1" target="YcgIgXZNcNjS4kWtroWY-37" edge="1">
          <mxGeometry relative="1" as="geometry">
            <Array as="points">
              <mxPoint x="440" y="680" />
              <mxPoint x="560" y="680" />
            </Array>
          </mxGeometry>
        </mxCell>
        <mxCell id="YcgIgXZNcNjS4kWtroWY-1" value="device_type" style="shape=table;startSize=30;container=1;collapsible=1;childLayout=tableLayout;fixedRows=1;rowLines=0;fontStyle=1;align=center;resizeLast=1;whiteSpace=wrap;fontFamily=Carlito;fillColor=#ffe6cc;strokeColor=#d79b00;rounded=1;swimlaneFillColor=none;" parent="1" vertex="1">
          <mxGeometry x="280" y="720" width="320" height="120" as="geometry" />
        </mxCell>
        <mxCell id="YcgIgXZNcNjS4kWtroWY-2" value="" style="shape=tableRow;horizontal=0;startSize=0;swimlaneHead=0;swimlaneBody=0;fillColor=none;collapsible=0;dropTarget=0;points=[[0,0.5],[1,0.5]];portConstraint=eastwest;top=0;left=0;right=0;bottom=1;whiteSpace=wrap;" parent="YcgIgXZNcNjS4kWtroWY-1" vertex="1">
          <mxGeometry y="30" width="320" height="30" as="geometry" />
        </mxCell>
        <mxCell id="YcgIgXZNcNjS4kWtroWY-3" value="PK" style="shape=partialRectangle;overflow=hidden;connectable=0;fillColor=none;top=0;left=0;bottom=0;right=0;fontStyle=1;whiteSpace=wrap;" parent="YcgIgXZNcNjS4kWtroWY-2" vertex="1">
          <mxGeometry width="30" height="30" as="geometry">
            <mxRectangle width="30" height="30" as="alternateBounds" />
          </mxGeometry>
        </mxCell>
        <mxCell id="YcgIgXZNcNjS4kWtroWY-4" value="id bigint NOT NULL  AUTO_INCREMENT" style="shape=partialRectangle;overflow=hidden;connectable=0;fillColor=none;align=left;top=0;left=0;bottom=0;right=0;spacingLeft=6;fontStyle=5;whiteSpace=wrap;" parent="YcgIgXZNcNjS4kWtroWY-2" vertex="1">
          <mxGeometry x="30" width="290" height="30" as="geometry">
            <mxRectangle width="290" height="30" as="alternateBounds" />
          </mxGeometry>
        </mxCell>
        <mxCell id="YcgIgXZNcNjS4kWtroWY-5" value="" style="shape=tableRow;horizontal=0;startSize=0;swimlaneHead=0;swimlaneBody=0;fillColor=none;collapsible=0;dropTarget=0;points=[[0,0.5],[1,0.5]];portConstraint=eastwest;top=0;left=0;right=0;bottom=0;whiteSpace=wrap;" parent="YcgIgXZNcNjS4kWtroWY-1" vertex="1">
          <mxGeometry y="60" width="320" height="30" as="geometry" />
        </mxCell>
        <mxCell id="YcgIgXZNcNjS4kWtroWY-6" value="" style="shape=partialRectangle;overflow=hidden;connectable=0;fillColor=none;top=0;left=0;bottom=0;right=0;whiteSpace=wrap;" parent="YcgIgXZNcNjS4kWtroWY-5" vertex="1">
          <mxGeometry width="30" height="30" as="geometry">
            <mxRectangle width="30" height="30" as="alternateBounds" />
          </mxGeometry>
        </mxCell>
        <mxCell id="YcgIgXZNcNjS4kWtroWY-7" value="`name` varchar(32) NOT NULL DEFAULT &#39;&#39;" style="shape=partialRectangle;overflow=hidden;connectable=0;fillColor=none;align=left;top=0;left=0;bottom=0;right=0;spacingLeft=6;whiteSpace=wrap;" parent="YcgIgXZNcNjS4kWtroWY-5" vertex="1">
          <mxGeometry x="30" width="290" height="30" as="geometry">
            <mxRectangle width="290" height="30" as="alternateBounds" />
          </mxGeometry>
        </mxCell>
        <mxCell id="YcgIgXZNcNjS4kWtroWY-8" value="" style="shape=tableRow;horizontal=0;startSize=0;swimlaneHead=0;swimlaneBody=0;fillColor=none;collapsible=0;dropTarget=0;points=[[0,0.5],[1,0.5]];portConstraint=eastwest;top=0;left=0;right=0;bottom=0;whiteSpace=wrap;" parent="YcgIgXZNcNjS4kWtroWY-1" vertex="1">
          <mxGeometry y="90" width="320" height="30" as="geometry" />
        </mxCell>
        <mxCell id="YcgIgXZNcNjS4kWtroWY-9" value="" style="shape=partialRectangle;overflow=hidden;connectable=0;fillColor=none;top=0;left=0;bottom=0;right=0;whiteSpace=wrap;" parent="YcgIgXZNcNjS4kWtroWY-8" vertex="1">
          <mxGeometry width="30" height="30" as="geometry">
            <mxRectangle width="30" height="30" as="alternateBounds" />
          </mxGeometry>
        </mxCell>
        <mxCell id="YcgIgXZNcNjS4kWtroWY-10" value="`desc` text NOT NULL" style="shape=partialRectangle;overflow=hidden;connectable=0;fillColor=none;align=left;top=0;left=0;bottom=0;right=0;spacingLeft=6;whiteSpace=wrap;" parent="YcgIgXZNcNjS4kWtroWY-8" vertex="1">
          <mxGeometry x="30" width="290" height="30" as="geometry">
            <mxRectangle width="290" height="30" as="alternateBounds" />
          </mxGeometry>
        </mxCell>
        <mxCell id="YcgIgXZNcNjS4kWtroWY-156" style="edgeStyle=orthogonalEdgeStyle;fontSize=11;html=1;endArrow=ERoneToMany;fontFamily=Helvetica;fontColor=default;align=center;strokeColor=default;" parent="1" source="YcgIgXZNcNjS4kWtroWY-11" target="YcgIgXZNcNjS4kWtroWY-37" edge="1">
          <mxGeometry relative="1" as="geometry">
            <Array as="points">
              <mxPoint x="560" y="120" />
            </Array>
          </mxGeometry>
        </mxCell>
        <mxCell id="YcgIgXZNcNjS4kWtroWY-164" style="edgeStyle=orthogonalEdgeStyle;shape=connector;rounded=1;orthogonalLoop=1;jettySize=auto;html=1;labelBackgroundColor=default;strokeColor=default;fontFamily=Helvetica;fontSize=11;fontColor=default;endArrow=ERoneToMany;" parent="1" source="YcgIgXZNcNjS4kWtroWY-11" target="YcgIgXZNcNjS4kWtroWY-80" edge="1">
          <mxGeometry relative="1" as="geometry">
            <Array as="points">
              <mxPoint x="200" y="40" />
              <mxPoint x="1000" y="40" />
            </Array>
          </mxGeometry>
        </mxCell>
        <mxCell id="ucsogBP125Kyt1-k-j79-1" style="edgeStyle=orthogonalEdgeStyle;fontSize=11;html=1;endArrow=ERoneToMany;fontFamily=Helvetica;fontColor=default;align=center;strokeColor=default;" parent="1" source="YcgIgXZNcNjS4kWtroWY-11" target="YcgIgXZNcNjS4kWtroWY-21" edge="1">
          <mxGeometry relative="1" as="geometry">
            <mxPoint x="-50" y="280" as="targetPoint" />
            <Array as="points">
              <mxPoint x="200" y="240" />
              <mxPoint x="200" y="240" />
            </Array>
          </mxGeometry>
        </mxCell>
        <mxCell id="YcgIgXZNcNjS4kWtroWY-11" value="`states`" style="shape=table;startSize=30;container=1;collapsible=1;childLayout=tableLayout;fixedRows=1;rowLines=0;fontStyle=1;align=center;resizeLast=1;whiteSpace=wrap;fontFamily=Carlito;fillColor=#ffe6cc;strokeColor=#d79b00;rounded=1;swimlaneFillColor=none;" parent="1" vertex="1">
          <mxGeometry x="40" y="80" width="320" height="120" as="geometry" />
        </mxCell>
        <mxCell id="YcgIgXZNcNjS4kWtroWY-12" value="" style="shape=tableRow;horizontal=0;startSize=0;swimlaneHead=0;swimlaneBody=0;fillColor=none;collapsible=0;dropTarget=0;points=[[0,0.5],[1,0.5]];portConstraint=eastwest;top=0;left=0;right=0;bottom=1;whiteSpace=wrap;" parent="YcgIgXZNcNjS4kWtroWY-11" vertex="1">
          <mxGeometry y="30" width="320" height="30" as="geometry" />
        </mxCell>
        <mxCell id="YcgIgXZNcNjS4kWtroWY-13" value="PK" style="shape=partialRectangle;overflow=hidden;connectable=0;fillColor=none;top=0;left=0;bottom=0;right=0;fontStyle=1;whiteSpace=wrap;" parent="YcgIgXZNcNjS4kWtroWY-12" vertex="1">
          <mxGeometry width="30" height="30" as="geometry">
            <mxRectangle width="30" height="30" as="alternateBounds" />
          </mxGeometry>
        </mxCell>
        <mxCell id="YcgIgXZNcNjS4kWtroWY-14" value="id bigint NOT NULL  AUTO_INCREMENT" style="shape=partialRectangle;overflow=hidden;connectable=0;fillColor=none;align=left;top=0;left=0;bottom=0;right=0;spacingLeft=6;fontStyle=5;whiteSpace=wrap;" parent="YcgIgXZNcNjS4kWtroWY-12" vertex="1">
          <mxGeometry x="30" width="290" height="30" as="geometry">
            <mxRectangle width="290" height="30" as="alternateBounds" />
          </mxGeometry>
        </mxCell>
        <mxCell id="YcgIgXZNcNjS4kWtroWY-15" value="" style="shape=tableRow;horizontal=0;startSize=0;swimlaneHead=0;swimlaneBody=0;fillColor=none;collapsible=0;dropTarget=0;points=[[0,0.5],[1,0.5]];portConstraint=eastwest;top=0;left=0;right=0;bottom=0;whiteSpace=wrap;" parent="YcgIgXZNcNjS4kWtroWY-11" vertex="1">
          <mxGeometry y="60" width="320" height="30" as="geometry" />
        </mxCell>
        <mxCell id="YcgIgXZNcNjS4kWtroWY-16" value="" style="shape=partialRectangle;overflow=hidden;connectable=0;fillColor=none;top=0;left=0;bottom=0;right=0;whiteSpace=wrap;" parent="YcgIgXZNcNjS4kWtroWY-15" vertex="1">
          <mxGeometry width="30" height="30" as="geometry">
            <mxRectangle width="30" height="30" as="alternateBounds" />
          </mxGeometry>
        </mxCell>
        <mxCell id="YcgIgXZNcNjS4kWtroWY-17" value="`name` varchar(32) NOT NULL DEFAULT &#39;&#39;" style="shape=partialRectangle;overflow=hidden;connectable=0;fillColor=none;align=left;top=0;left=0;bottom=0;right=0;spacingLeft=6;whiteSpace=wrap;" parent="YcgIgXZNcNjS4kWtroWY-15" vertex="1">
          <mxGeometry x="30" width="290" height="30" as="geometry">
            <mxRectangle width="290" height="30" as="alternateBounds" />
          </mxGeometry>
        </mxCell>
        <mxCell id="YcgIgXZNcNjS4kWtroWY-18" value="" style="shape=tableRow;horizontal=0;startSize=0;swimlaneHead=0;swimlaneBody=0;fillColor=none;collapsible=0;dropTarget=0;points=[[0,0.5],[1,0.5]];portConstraint=eastwest;top=0;left=0;right=0;bottom=0;whiteSpace=wrap;" parent="YcgIgXZNcNjS4kWtroWY-11" vertex="1">
          <mxGeometry y="90" width="320" height="30" as="geometry" />
        </mxCell>
        <mxCell id="YcgIgXZNcNjS4kWtroWY-19" value="" style="shape=partialRectangle;overflow=hidden;connectable=0;fillColor=none;top=0;left=0;bottom=0;right=0;whiteSpace=wrap;" parent="YcgIgXZNcNjS4kWtroWY-18" vertex="1">
          <mxGeometry width="30" height="30" as="geometry">
            <mxRectangle width="30" height="30" as="alternateBounds" />
          </mxGeometry>
        </mxCell>
        <mxCell id="YcgIgXZNcNjS4kWtroWY-20" value="`desc` text NOT NULL" style="shape=partialRectangle;overflow=hidden;connectable=0;fillColor=none;align=left;top=0;left=0;bottom=0;right=0;spacingLeft=6;whiteSpace=wrap;" parent="YcgIgXZNcNjS4kWtroWY-18" vertex="1">
          <mxGeometry x="30" width="290" height="30" as="geometry">
            <mxRectangle width="290" height="30" as="alternateBounds" />
          </mxGeometry>
        </mxCell>
        <mxCell id="YcgIgXZNcNjS4kWtroWY-157" style="edgeStyle=orthogonalEdgeStyle;fontSize=11;html=1;endArrow=ERoneToMany;fontFamily=Helvetica;fontColor=default;align=center;strokeColor=default;" parent="1" source="YcgIgXZNcNjS4kWtroWY-21" target="YcgIgXZNcNjS4kWtroWY-37" edge="1">
          <mxGeometry relative="1" as="geometry">
            <Array as="points">
              <mxPoint x="390" y="360" />
              <mxPoint x="390" y="240" />
            </Array>
          </mxGeometry>
        </mxCell>
        <mxCell id="YcgIgXZNcNjS4kWtroWY-159" style="edgeStyle=orthogonalEdgeStyle;fontSize=11;html=1;endArrow=ERmandOne;startArrow=ERmandOne;fontFamily=Helvetica;fontColor=default;align=center;strokeColor=default;" parent="1" source="YcgIgXZNcNjS4kWtroWY-21" target="YcgIgXZNcNjS4kWtroWY-102" edge="1">
          <mxGeometry relative="1" as="geometry" />
        </mxCell>
        <mxCell id="YcgIgXZNcNjS4kWtroWY-21" value="users" style="shape=table;startSize=30;container=1;collapsible=1;childLayout=tableLayout;fixedRows=1;rowLines=0;fontStyle=1;align=center;resizeLast=1;whiteSpace=wrap;fontFamily=Carlito;fillColor=#ffe6cc;strokeColor=#d79b00;rounded=1;swimlaneFillColor=none;" parent="1" vertex="1">
          <mxGeometry x="40" y="280" width="320" height="160" as="geometry" />
        </mxCell>
        <mxCell id="YcgIgXZNcNjS4kWtroWY-22" value="" style="shape=tableRow;horizontal=0;startSize=0;swimlaneHead=0;swimlaneBody=0;fillColor=none;collapsible=0;dropTarget=0;points=[[0,0.5],[1,0.5]];portConstraint=eastwest;top=0;left=0;right=0;bottom=1;whiteSpace=wrap;" parent="YcgIgXZNcNjS4kWtroWY-21" vertex="1">
          <mxGeometry y="30" width="320" height="30" as="geometry" />
        </mxCell>
        <mxCell id="YcgIgXZNcNjS4kWtroWY-23" value="PK" style="shape=partialRectangle;overflow=hidden;connectable=0;fillColor=none;top=0;left=0;bottom=0;right=0;fontStyle=1;whiteSpace=wrap;" parent="YcgIgXZNcNjS4kWtroWY-22" vertex="1">
          <mxGeometry width="30" height="30" as="geometry">
            <mxRectangle width="30" height="30" as="alternateBounds" />
          </mxGeometry>
        </mxCell>
        <mxCell id="YcgIgXZNcNjS4kWtroWY-24" value="id bigint NOT NULL  AUTO_INCREMENT" style="shape=partialRectangle;overflow=hidden;connectable=0;fillColor=none;align=left;top=0;left=0;bottom=0;right=0;spacingLeft=6;fontStyle=5;whiteSpace=wrap;" parent="YcgIgXZNcNjS4kWtroWY-22" vertex="1">
          <mxGeometry x="30" width="290" height="30" as="geometry">
            <mxRectangle width="290" height="30" as="alternateBounds" />
          </mxGeometry>
        </mxCell>
        <mxCell id="YcgIgXZNcNjS4kWtroWY-25" value="" style="shape=tableRow;horizontal=0;startSize=0;swimlaneHead=0;swimlaneBody=0;fillColor=none;collapsible=0;dropTarget=0;points=[[0,0.5],[1,0.5]];portConstraint=eastwest;top=0;left=0;right=0;bottom=0;whiteSpace=wrap;" parent="YcgIgXZNcNjS4kWtroWY-21" vertex="1">
          <mxGeometry y="60" width="320" height="30" as="geometry" />
        </mxCell>
        <mxCell id="YcgIgXZNcNjS4kWtroWY-26" value="FK" style="shape=partialRectangle;overflow=hidden;connectable=0;fillColor=none;top=0;left=0;bottom=0;right=0;whiteSpace=wrap;" parent="YcgIgXZNcNjS4kWtroWY-25" vertex="1">
          <mxGeometry width="30" height="30" as="geometry">
            <mxRectangle width="30" height="30" as="alternateBounds" />
          </mxGeometry>
        </mxCell>
        <mxCell id="YcgIgXZNcNjS4kWtroWY-27" value="stid bigint NOT NULL DEFAULT 1" style="shape=partialRectangle;overflow=hidden;connectable=0;fillColor=none;align=left;top=0;left=0;bottom=0;right=0;spacingLeft=6;whiteSpace=wrap;fontStyle=3" parent="YcgIgXZNcNjS4kWtroWY-25" vertex="1">
          <mxGeometry x="30" width="290" height="30" as="geometry">
            <mxRectangle width="290" height="30" as="alternateBounds" />
          </mxGeometry>
        </mxCell>
        <mxCell id="YcgIgXZNcNjS4kWtroWY-28" value="" style="shape=tableRow;horizontal=0;startSize=0;swimlaneHead=0;swimlaneBody=0;fillColor=none;collapsible=0;dropTarget=0;points=[[0,0.5],[1,0.5]];portConstraint=eastwest;top=0;left=0;right=0;bottom=0;whiteSpace=wrap;" parent="YcgIgXZNcNjS4kWtroWY-21" vertex="1">
          <mxGeometry y="90" width="320" height="30" as="geometry" />
        </mxCell>
        <mxCell id="YcgIgXZNcNjS4kWtroWY-29" value="" style="shape=partialRectangle;overflow=hidden;connectable=0;fillColor=none;top=0;left=0;bottom=0;right=0;whiteSpace=wrap;" parent="YcgIgXZNcNjS4kWtroWY-28" vertex="1">
          <mxGeometry width="30" height="30" as="geometry">
            <mxRectangle width="30" height="30" as="alternateBounds" />
          </mxGeometry>
        </mxCell>
        <mxCell id="YcgIgXZNcNjS4kWtroWY-30" value="token binary(32) NOT NULL UNIQUE" style="shape=partialRectangle;overflow=hidden;connectable=0;fillColor=none;align=left;top=0;left=0;bottom=0;right=0;spacingLeft=6;whiteSpace=wrap;" parent="YcgIgXZNcNjS4kWtroWY-28" vertex="1">
          <mxGeometry x="30" width="290" height="30" as="geometry">
            <mxRectangle width="290" height="30" as="alternateBounds" />
          </mxGeometry>
        </mxCell>
        <mxCell id="YcgIgXZNcNjS4kWtroWY-31" value="" style="shape=tableRow;horizontal=0;startSize=0;swimlaneHead=0;swimlaneBody=0;fillColor=none;collapsible=0;dropTarget=0;points=[[0,0.5],[1,0.5]];portConstraint=eastwest;top=0;left=0;right=0;bottom=0;whiteSpace=wrap;" parent="YcgIgXZNcNjS4kWtroWY-21" vertex="1">
          <mxGeometry y="120" width="320" height="40" as="geometry" />
        </mxCell>
        <mxCell id="YcgIgXZNcNjS4kWtroWY-32" value="" style="shape=partialRectangle;overflow=hidden;connectable=0;fillColor=none;top=0;left=0;bottom=0;right=0;whiteSpace=wrap;" parent="YcgIgXZNcNjS4kWtroWY-31" vertex="1">
          <mxGeometry width="30" height="40" as="geometry">
            <mxRectangle width="30" height="40" as="alternateBounds" />
          </mxGeometry>
        </mxCell>
        <mxCell id="YcgIgXZNcNjS4kWtroWY-33" value="`utc` timestamp NOT NULL" style="shape=partialRectangle;overflow=hidden;connectable=0;fillColor=none;align=left;top=0;left=0;bottom=0;right=0;spacingLeft=6;whiteSpace=wrap;" parent="YcgIgXZNcNjS4kWtroWY-31" vertex="1">
          <mxGeometry x="30" width="290" height="40" as="geometry">
            <mxRectangle width="290" height="40" as="alternateBounds" />
          </mxGeometry>
        </mxCell>
        <mxCell id="YcgIgXZNcNjS4kWtroWY-163" style="edgeStyle=orthogonalEdgeStyle;shape=connector;rounded=1;orthogonalLoop=1;jettySize=auto;html=1;labelBackgroundColor=default;strokeColor=default;fontFamily=Helvetica;fontSize=11;fontColor=default;endArrow=ERoneToMany;" parent="1" source="YcgIgXZNcNjS4kWtroWY-37" target="YcgIgXZNcNjS4kWtroWY-80" edge="1">
          <mxGeometry relative="1" as="geometry">
            <Array as="points">
              <mxPoint x="680" y="80" />
              <mxPoint x="920" y="80" />
            </Array>
          </mxGeometry>
        </mxCell>
        <mxCell id="YcgIgXZNcNjS4kWtroWY-165" style="edgeStyle=orthogonalEdgeStyle;shape=connector;rounded=1;orthogonalLoop=1;jettySize=auto;html=1;labelBackgroundColor=default;strokeColor=default;fontFamily=Helvetica;fontSize=11;fontColor=default;endArrow=ERoneToMany;" parent="1" source="YcgIgXZNcNjS4kWtroWY-37" target="YcgIgXZNcNjS4kWtroWY-115" edge="1">
          <mxGeometry relative="1" as="geometry">
            <Array as="points">
              <mxPoint x="1000" y="400" />
            </Array>
          </mxGeometry>
        </mxCell>
        <mxCell id="YcgIgXZNcNjS4kWtroWY-166" style="edgeStyle=orthogonalEdgeStyle;shape=connector;rounded=1;orthogonalLoop=1;jettySize=auto;html=1;labelBackgroundColor=default;strokeColor=default;fontFamily=Helvetica;fontSize=11;fontColor=default;endArrow=ERoneToMany;" parent="1" source="YcgIgXZNcNjS4kWtroWY-37" target="YcgIgXZNcNjS4kWtroWY-134" edge="1">
          <mxGeometry relative="1" as="geometry">
            <Array as="points">
              <mxPoint x="680" y="680" />
              <mxPoint x="800" y="680" />
            </Array>
          </mxGeometry>
        </mxCell>
        <mxCell id="YcgIgXZNcNjS4kWtroWY-37" value="users_sessions" style="shape=table;startSize=30;container=1;collapsible=1;childLayout=tableLayout;fixedRows=1;rowLines=0;fontStyle=1;align=center;resizeLast=1;whiteSpace=wrap;fontFamily=Carlito;fillColor=#ffe6cc;strokeColor=#d79b00;rounded=1;swimlaneFillColor=none;" parent="1" vertex="1">
          <mxGeometry x="440" y="200" width="320" height="400.0000000000001" as="geometry" />
        </mxCell>
        <mxCell id="YcgIgXZNcNjS4kWtroWY-38" value="" style="shape=tableRow;horizontal=0;startSize=0;swimlaneHead=0;swimlaneBody=0;fillColor=none;collapsible=0;dropTarget=0;points=[[0,0.5],[1,0.5]];portConstraint=eastwest;top=0;left=0;right=0;bottom=1;whiteSpace=wrap;" parent="YcgIgXZNcNjS4kWtroWY-37" vertex="1">
          <mxGeometry y="30" width="320" height="30" as="geometry" />
        </mxCell>
        <mxCell id="YcgIgXZNcNjS4kWtroWY-39" value="PK" style="shape=partialRectangle;overflow=hidden;connectable=0;fillColor=none;top=0;left=0;bottom=0;right=0;fontStyle=1;whiteSpace=wrap;" parent="YcgIgXZNcNjS4kWtroWY-38" vertex="1">
          <mxGeometry width="30" height="30" as="geometry">
            <mxRectangle width="30" height="30" as="alternateBounds" />
          </mxGeometry>
        </mxCell>
        <mxCell id="YcgIgXZNcNjS4kWtroWY-40" value="id bigint NOT NULL  AUTO_INCREMENT" style="shape=partialRectangle;overflow=hidden;connectable=0;fillColor=none;align=left;top=0;left=0;bottom=0;right=0;spacingLeft=6;fontStyle=5;whiteSpace=wrap;" parent="YcgIgXZNcNjS4kWtroWY-38" vertex="1">
          <mxGeometry x="30" width="290" height="30" as="geometry">
            <mxRectangle width="290" height="30" as="alternateBounds" />
          </mxGeometry>
        </mxCell>
        <mxCell id="YcgIgXZNcNjS4kWtroWY-41" value="" style="shape=tableRow;horizontal=0;startSize=0;swimlaneHead=0;swimlaneBody=0;fillColor=none;collapsible=0;dropTarget=0;points=[[0,0.5],[1,0.5]];portConstraint=eastwest;top=0;left=0;right=0;bottom=0;whiteSpace=wrap;" parent="YcgIgXZNcNjS4kWtroWY-37" vertex="1">
          <mxGeometry y="60" width="320" height="30" as="geometry" />
        </mxCell>
        <mxCell id="YcgIgXZNcNjS4kWtroWY-42" value="FK" style="shape=partialRectangle;overflow=hidden;connectable=0;fillColor=none;top=0;left=0;bottom=0;right=0;whiteSpace=wrap;" parent="YcgIgXZNcNjS4kWtroWY-41" vertex="1">
          <mxGeometry width="30" height="30" as="geometry">
            <mxRectangle width="30" height="30" as="alternateBounds" />
          </mxGeometry>
        </mxCell>
        <mxCell id="YcgIgXZNcNjS4kWtroWY-43" value="`uid` bigint NOT NULL" style="shape=partialRectangle;overflow=hidden;connectable=0;fillColor=none;align=left;top=0;left=0;bottom=0;right=0;spacingLeft=6;whiteSpace=wrap;fontStyle=3" parent="YcgIgXZNcNjS4kWtroWY-41" vertex="1">
          <mxGeometry x="30" width="290" height="30" as="geometry">
            <mxRectangle width="290" height="30" as="alternateBounds" />
          </mxGeometry>
        </mxCell>
        <mxCell id="YcgIgXZNcNjS4kWtroWY-44" value="" style="shape=tableRow;horizontal=0;startSize=0;swimlaneHead=0;swimlaneBody=0;fillColor=none;collapsible=0;dropTarget=0;points=[[0,0.5],[1,0.5]];portConstraint=eastwest;top=0;left=0;right=0;bottom=0;whiteSpace=wrap;" parent="YcgIgXZNcNjS4kWtroWY-37" vertex="1">
          <mxGeometry y="90" width="320" height="30" as="geometry" />
        </mxCell>
        <mxCell id="YcgIgXZNcNjS4kWtroWY-45" value="FK" style="shape=partialRectangle;overflow=hidden;connectable=0;fillColor=none;top=0;left=0;bottom=0;right=0;whiteSpace=wrap;" parent="YcgIgXZNcNjS4kWtroWY-44" vertex="1">
          <mxGeometry width="30" height="30" as="geometry">
            <mxRectangle width="30" height="30" as="alternateBounds" />
          </mxGeometry>
        </mxCell>
        <mxCell id="YcgIgXZNcNjS4kWtroWY-46" value="tid bigint NOT NULL" style="shape=partialRectangle;overflow=hidden;connectable=0;fillColor=none;align=left;top=0;left=0;bottom=0;right=0;spacingLeft=6;whiteSpace=wrap;fontStyle=3" parent="YcgIgXZNcNjS4kWtroWY-44" vertex="1">
          <mxGeometry x="30" width="290" height="30" as="geometry">
            <mxRectangle width="290" height="30" as="alternateBounds" />
          </mxGeometry>
        </mxCell>
        <mxCell id="YcgIgXZNcNjS4kWtroWY-47" value="" style="shape=tableRow;horizontal=0;startSize=0;swimlaneHead=0;swimlaneBody=0;fillColor=none;collapsible=0;dropTarget=0;points=[[0,0.5],[1,0.5]];portConstraint=eastwest;top=0;left=0;right=0;bottom=0;whiteSpace=wrap;" parent="YcgIgXZNcNjS4kWtroWY-37" vertex="1">
          <mxGeometry y="120" width="320" height="30" as="geometry" />
        </mxCell>
        <mxCell id="YcgIgXZNcNjS4kWtroWY-48" value="FK" style="shape=partialRectangle;overflow=hidden;connectable=0;fillColor=none;top=0;left=0;bottom=0;right=0;whiteSpace=wrap;" parent="YcgIgXZNcNjS4kWtroWY-47" vertex="1">
          <mxGeometry width="30" height="30" as="geometry">
            <mxRectangle width="30" height="30" as="alternateBounds" />
          </mxGeometry>
        </mxCell>
        <mxCell id="YcgIgXZNcNjS4kWtroWY-49" value="stid bigint NOT NULL DEFAULT 1" style="shape=partialRectangle;overflow=hidden;connectable=0;fillColor=none;align=left;top=0;left=0;bottom=0;right=0;spacingLeft=6;whiteSpace=wrap;fontStyle=3" parent="YcgIgXZNcNjS4kWtroWY-47" vertex="1">
          <mxGeometry x="30" width="290" height="30" as="geometry">
            <mxRectangle width="290" height="30" as="alternateBounds" />
          </mxGeometry>
        </mxCell>
        <mxCell id="YcgIgXZNcNjS4kWtroWY-50" value="" style="shape=tableRow;horizontal=0;startSize=0;swimlaneHead=0;swimlaneBody=0;fillColor=none;collapsible=0;dropTarget=0;points=[[0,0.5],[1,0.5]];portConstraint=eastwest;top=0;left=0;right=0;bottom=0;whiteSpace=wrap;" parent="YcgIgXZNcNjS4kWtroWY-37" vertex="1">
          <mxGeometry y="150" width="320" height="30" as="geometry" />
        </mxCell>
        <mxCell id="YcgIgXZNcNjS4kWtroWY-51" value="" style="shape=partialRectangle;overflow=hidden;connectable=0;fillColor=none;top=0;left=0;bottom=0;right=0;whiteSpace=wrap;" parent="YcgIgXZNcNjS4kWtroWY-50" vertex="1">
          <mxGeometry width="30" height="30" as="geometry">
            <mxRectangle width="30" height="30" as="alternateBounds" />
          </mxGeometry>
        </mxCell>
        <mxCell id="YcgIgXZNcNjS4kWtroWY-52" value="authtoken binary(32) NOT NULL UNIQUE" style="shape=partialRectangle;overflow=hidden;connectable=0;fillColor=none;align=left;top=0;left=0;bottom=0;right=0;spacingLeft=6;whiteSpace=wrap;" parent="YcgIgXZNcNjS4kWtroWY-50" vertex="1">
          <mxGeometry x="30" width="290" height="30" as="geometry">
            <mxRectangle width="290" height="30" as="alternateBounds" />
          </mxGeometry>
        </mxCell>
        <mxCell id="YcgIgXZNcNjS4kWtroWY-53" value="" style="shape=tableRow;horizontal=0;startSize=0;swimlaneHead=0;swimlaneBody=0;fillColor=none;collapsible=0;dropTarget=0;points=[[0,0.5],[1,0.5]];portConstraint=eastwest;top=0;left=0;right=0;bottom=0;whiteSpace=wrap;" parent="YcgIgXZNcNjS4kWtroWY-37" vertex="1">
          <mxGeometry y="180" width="320" height="30" as="geometry" />
        </mxCell>
        <mxCell id="YcgIgXZNcNjS4kWtroWY-54" value="" style="shape=partialRectangle;overflow=hidden;connectable=0;fillColor=none;top=0;left=0;bottom=0;right=0;whiteSpace=wrap;" parent="YcgIgXZNcNjS4kWtroWY-53" vertex="1">
          <mxGeometry width="30" height="30" as="geometry">
            <mxRectangle width="30" height="30" as="alternateBounds" />
          </mxGeometry>
        </mxCell>
        <mxCell id="YcgIgXZNcNjS4kWtroWY-55" value="mac bigint NOT NULL" style="shape=partialRectangle;overflow=hidden;connectable=0;fillColor=none;align=left;top=0;left=0;bottom=0;right=0;spacingLeft=6;whiteSpace=wrap;" parent="YcgIgXZNcNjS4kWtroWY-53" vertex="1">
          <mxGeometry x="30" width="290" height="30" as="geometry">
            <mxRectangle width="290" height="30" as="alternateBounds" />
          </mxGeometry>
        </mxCell>
        <mxCell id="YcgIgXZNcNjS4kWtroWY-56" value="" style="shape=tableRow;horizontal=0;startSize=0;swimlaneHead=0;swimlaneBody=0;fillColor=none;collapsible=0;dropTarget=0;points=[[0,0.5],[1,0.5]];portConstraint=eastwest;top=0;left=0;right=0;bottom=0;whiteSpace=wrap;" parent="YcgIgXZNcNjS4kWtroWY-37" vertex="1">
          <mxGeometry y="210" width="320" height="50" as="geometry" />
        </mxCell>
        <mxCell id="YcgIgXZNcNjS4kWtroWY-57" value="" style="shape=partialRectangle;overflow=hidden;connectable=0;fillColor=none;top=0;left=0;bottom=0;right=0;whiteSpace=wrap;" parent="YcgIgXZNcNjS4kWtroWY-56" vertex="1">
          <mxGeometry width="30" height="50" as="geometry">
            <mxRectangle width="30" height="50" as="alternateBounds" />
          </mxGeometry>
        </mxCell>
        <mxCell id="YcgIgXZNcNjS4kWtroWY-58" value="utc timestamp NOT NULL DEFAULT CURRENT_TIMESTAMP" style="shape=partialRectangle;overflow=hidden;connectable=0;fillColor=none;align=left;top=0;left=0;bottom=0;right=0;spacingLeft=6;whiteSpace=wrap;" parent="YcgIgXZNcNjS4kWtroWY-56" vertex="1">
          <mxGeometry x="30" width="290" height="50" as="geometry">
            <mxRectangle width="290" height="50" as="alternateBounds" />
          </mxGeometry>
        </mxCell>
        <mxCell id="YcgIgXZNcNjS4kWtroWY-59" value="" style="shape=tableRow;horizontal=0;startSize=0;swimlaneHead=0;swimlaneBody=0;fillColor=none;collapsible=0;dropTarget=0;points=[[0,0.5],[1,0.5]];portConstraint=eastwest;top=0;left=0;right=0;bottom=0;whiteSpace=wrap;" parent="YcgIgXZNcNjS4kWtroWY-37" vertex="1">
          <mxGeometry y="260" width="320" height="30" as="geometry" />
        </mxCell>
        <mxCell id="YcgIgXZNcNjS4kWtroWY-60" value="" style="shape=partialRectangle;overflow=hidden;connectable=0;fillColor=none;top=0;left=0;bottom=0;right=0;whiteSpace=wrap;" parent="YcgIgXZNcNjS4kWtroWY-59" vertex="1">
          <mxGeometry width="30" height="30" as="geometry">
            <mxRectangle width="30" height="30" as="alternateBounds" />
          </mxGeometry>
        </mxCell>
        <mxCell id="YcgIgXZNcNjS4kWtroWY-61" value="ts timestamp NOT NULL" style="shape=partialRectangle;overflow=hidden;connectable=0;fillColor=none;align=left;top=0;left=0;bottom=0;right=0;spacingLeft=6;whiteSpace=wrap;" parent="YcgIgXZNcNjS4kWtroWY-59" vertex="1">
          <mxGeometry x="30" width="290" height="30" as="geometry">
            <mxRectangle width="290" height="30" as="alternateBounds" />
          </mxGeometry>
        </mxCell>
        <mxCell id="YcgIgXZNcNjS4kWtroWY-62" value="" style="shape=tableRow;horizontal=0;startSize=0;swimlaneHead=0;swimlaneBody=0;fillColor=none;collapsible=0;dropTarget=0;points=[[0,0.5],[1,0.5]];portConstraint=eastwest;top=0;left=0;right=0;bottom=0;whiteSpace=wrap;" parent="YcgIgXZNcNjS4kWtroWY-37" vertex="1">
          <mxGeometry y="290" width="320" height="30" as="geometry" />
        </mxCell>
        <mxCell id="YcgIgXZNcNjS4kWtroWY-63" value="" style="shape=partialRectangle;overflow=hidden;connectable=0;fillColor=none;top=0;left=0;bottom=0;right=0;whiteSpace=wrap;" parent="YcgIgXZNcNjS4kWtroWY-62" vertex="1">
          <mxGeometry width="30" height="30" as="geometry">
            <mxRectangle width="30" height="30" as="alternateBounds" />
          </mxGeometry>
        </mxCell>
        <mxCell id="YcgIgXZNcNjS4kWtroWY-64" value="ip varchar(32) NOT NULL" style="shape=partialRectangle;overflow=hidden;connectable=0;fillColor=none;align=left;top=0;left=0;bottom=0;right=0;spacingLeft=6;whiteSpace=wrap;" parent="YcgIgXZNcNjS4kWtroWY-62" vertex="1">
          <mxGeometry x="30" width="290" height="30" as="geometry">
            <mxRectangle width="290" height="30" as="alternateBounds" />
          </mxGeometry>
        </mxCell>
        <mxCell id="YcgIgXZNcNjS4kWtroWY-65" value="" style="shape=tableRow;horizontal=0;startSize=0;swimlaneHead=0;swimlaneBody=0;fillColor=none;collapsible=0;dropTarget=0;points=[[0,0.5],[1,0.5]];portConstraint=eastwest;top=0;left=0;right=0;bottom=0;whiteSpace=wrap;" parent="YcgIgXZNcNjS4kWtroWY-37" vertex="1">
          <mxGeometry y="320" width="320" height="30" as="geometry" />
        </mxCell>
        <mxCell id="YcgIgXZNcNjS4kWtroWY-66" value="" style="shape=partialRectangle;overflow=hidden;connectable=0;fillColor=none;top=0;left=0;bottom=0;right=0;whiteSpace=wrap;" parent="YcgIgXZNcNjS4kWtroWY-65" vertex="1">
          <mxGeometry width="30" height="30" as="geometry">
            <mxRectangle width="30" height="30" as="alternateBounds" />
          </mxGeometry>
        </mxCell>
        <mxCell id="YcgIgXZNcNjS4kWtroWY-67" value="port smallint NOT NULL" style="shape=partialRectangle;overflow=hidden;connectable=0;fillColor=none;align=left;top=0;left=0;bottom=0;right=0;spacingLeft=6;whiteSpace=wrap;" parent="YcgIgXZNcNjS4kWtroWY-65" vertex="1">
          <mxGeometry x="30" width="290" height="30" as="geometry">
            <mxRectangle width="290" height="30" as="alternateBounds" />
          </mxGeometry>
        </mxCell>
        <mxCell id="YcgIgXZNcNjS4kWtroWY-68" value="" style="shape=tableRow;horizontal=0;startSize=0;swimlaneHead=0;swimlaneBody=0;fillColor=none;collapsible=0;dropTarget=0;points=[[0,0.5],[1,0.5]];portConstraint=eastwest;top=0;left=0;right=0;bottom=0;whiteSpace=wrap;" parent="YcgIgXZNcNjS4kWtroWY-37" vertex="1">
          <mxGeometry y="350" width="320" height="50" as="geometry" />
        </mxCell>
        <mxCell id="YcgIgXZNcNjS4kWtroWY-69" value="" style="shape=partialRectangle;overflow=hidden;connectable=0;fillColor=none;top=0;left=0;bottom=0;right=0;whiteSpace=wrap;" parent="YcgIgXZNcNjS4kWtroWY-68" vertex="1">
          <mxGeometry width="30" height="50" as="geometry">
            <mxRectangle width="30" height="50" as="alternateBounds" />
          </mxGeometry>
        </mxCell>
        <mxCell id="YcgIgXZNcNjS4kWtroWY-70" value="`readonly` boolean NOT NULL" style="shape=partialRectangle;overflow=hidden;connectable=0;fillColor=none;align=left;top=0;left=0;bottom=0;right=0;spacingLeft=6;whiteSpace=wrap;" parent="YcgIgXZNcNjS4kWtroWY-68" vertex="1">
          <mxGeometry x="30" width="290" height="50" as="geometry">
            <mxRectangle width="290" height="50" as="alternateBounds" />
          </mxGeometry>
        </mxCell>
        <mxCell id="YcgIgXZNcNjS4kWtroWY-80" value="boundaries" style="shape=table;startSize=30;container=1;collapsible=1;childLayout=tableLayout;fixedRows=1;rowLines=0;fontStyle=1;align=center;resizeLast=1;whiteSpace=wrap;fontFamily=Carlito;fillColor=#ffe6cc;strokeColor=#d79b00;rounded=1;swimlaneFillColor=none;" parent="1" vertex="1">
          <mxGeometry x="840" y="120" width="320" height="200" as="geometry" />
        </mxCell>
        <mxCell id="YcgIgXZNcNjS4kWtroWY-81" value="" style="shape=tableRow;horizontal=0;startSize=0;swimlaneHead=0;swimlaneBody=0;fillColor=none;collapsible=0;dropTarget=0;points=[[0,0.5],[1,0.5]];portConstraint=eastwest;top=0;left=0;right=0;bottom=1;whiteSpace=wrap;" parent="YcgIgXZNcNjS4kWtroWY-80" vertex="1">
          <mxGeometry y="30" width="320" height="30" as="geometry" />
        </mxCell>
        <mxCell id="YcgIgXZNcNjS4kWtroWY-82" value="PK" style="shape=partialRectangle;overflow=hidden;connectable=0;fillColor=none;top=0;left=0;bottom=0;right=0;fontStyle=1;whiteSpace=wrap;" parent="YcgIgXZNcNjS4kWtroWY-81" vertex="1">
          <mxGeometry width="30" height="30" as="geometry">
            <mxRectangle width="30" height="30" as="alternateBounds" />
          </mxGeometry>
        </mxCell>
        <mxCell id="YcgIgXZNcNjS4kWtroWY-83" value="id bigint NOT NULL  AUTO_INCREMENT" style="shape=partialRectangle;overflow=hidden;connectable=0;fillColor=none;align=left;top=0;left=0;bottom=0;right=0;spacingLeft=6;fontStyle=5;whiteSpace=wrap;" parent="YcgIgXZNcNjS4kWtroWY-81" vertex="1">
          <mxGeometry x="30" width="290" height="30" as="geometry">
            <mxRectangle width="290" height="30" as="alternateBounds" />
          </mxGeometry>
        </mxCell>
        <mxCell id="YcgIgXZNcNjS4kWtroWY-84" value="" style="shape=tableRow;horizontal=0;startSize=0;swimlaneHead=0;swimlaneBody=0;fillColor=none;collapsible=0;dropTarget=0;points=[[0,0.5],[1,0.5]];portConstraint=eastwest;top=0;left=0;right=0;bottom=0;whiteSpace=wrap;" parent="YcgIgXZNcNjS4kWtroWY-80" vertex="1">
          <mxGeometry y="60" width="320" height="30" as="geometry" />
        </mxCell>
        <mxCell id="YcgIgXZNcNjS4kWtroWY-85" value="FK" style="shape=partialRectangle;overflow=hidden;connectable=0;fillColor=none;top=0;left=0;bottom=0;right=0;whiteSpace=wrap;" parent="YcgIgXZNcNjS4kWtroWY-84" vertex="1">
          <mxGeometry width="30" height="30" as="geometry">
            <mxRectangle width="30" height="30" as="alternateBounds" />
          </mxGeometry>
        </mxCell>
        <mxCell id="YcgIgXZNcNjS4kWtroWY-86" value="`sid` bigint NOT NULL" style="shape=partialRectangle;overflow=hidden;connectable=0;fillColor=none;align=left;top=0;left=0;bottom=0;right=0;spacingLeft=6;whiteSpace=wrap;fontStyle=3" parent="YcgIgXZNcNjS4kWtroWY-84" vertex="1">
          <mxGeometry x="30" width="290" height="30" as="geometry">
            <mxRectangle width="290" height="30" as="alternateBounds" />
          </mxGeometry>
        </mxCell>
        <mxCell id="YcgIgXZNcNjS4kWtroWY-87" value="" style="shape=tableRow;horizontal=0;startSize=0;swimlaneHead=0;swimlaneBody=0;fillColor=none;collapsible=0;dropTarget=0;points=[[0,0.5],[1,0.5]];portConstraint=eastwest;top=0;left=0;right=0;bottom=0;whiteSpace=wrap;" parent="YcgIgXZNcNjS4kWtroWY-80" vertex="1">
          <mxGeometry y="90" width="320" height="30" as="geometry" />
        </mxCell>
        <mxCell id="YcgIgXZNcNjS4kWtroWY-88" value="FK" style="shape=partialRectangle;overflow=hidden;connectable=0;fillColor=none;top=0;left=0;bottom=0;right=0;whiteSpace=wrap;" parent="YcgIgXZNcNjS4kWtroWY-87" vertex="1">
          <mxGeometry width="30" height="30" as="geometry">
            <mxRectangle width="30" height="30" as="alternateBounds" />
          </mxGeometry>
        </mxCell>
        <mxCell id="YcgIgXZNcNjS4kWtroWY-89" value="stid bigint NOT NULL DEFAULT 1" style="shape=partialRectangle;overflow=hidden;connectable=0;fillColor=none;align=left;top=0;left=0;bottom=0;right=0;spacingLeft=6;whiteSpace=wrap;fontStyle=3" parent="YcgIgXZNcNjS4kWtroWY-87" vertex="1">
          <mxGeometry x="30" width="290" height="30" as="geometry">
            <mxRectangle width="290" height="30" as="alternateBounds" />
          </mxGeometry>
        </mxCell>
        <mxCell id="YcgIgXZNcNjS4kWtroWY-90" value="" style="shape=tableRow;horizontal=0;startSize=0;swimlaneHead=0;swimlaneBody=0;fillColor=none;collapsible=0;dropTarget=0;points=[[0,0.5],[1,0.5]];portConstraint=eastwest;top=0;left=0;right=0;bottom=0;whiteSpace=wrap;" parent="YcgIgXZNcNjS4kWtroWY-80" vertex="1">
          <mxGeometry y="120" width="320" height="30" as="geometry" />
        </mxCell>
        <mxCell id="YcgIgXZNcNjS4kWtroWY-91" value="" style="shape=partialRectangle;overflow=hidden;connectable=0;fillColor=none;top=0;left=0;bottom=0;right=0;whiteSpace=wrap;" parent="YcgIgXZNcNjS4kWtroWY-90" vertex="1">
          <mxGeometry width="30" height="30" as="geometry">
            <mxRectangle width="30" height="30" as="alternateBounds" />
          </mxGeometry>
        </mxCell>
        <mxCell id="YcgIgXZNcNjS4kWtroWY-92" value="poly polygon NOT NULL" style="shape=partialRectangle;overflow=hidden;connectable=0;fillColor=none;align=left;top=0;left=0;bottom=0;right=0;spacingLeft=6;whiteSpace=wrap;" parent="YcgIgXZNcNjS4kWtroWY-90" vertex="1">
          <mxGeometry x="30" width="290" height="30" as="geometry">
            <mxRectangle width="290" height="30" as="alternateBounds" />
          </mxGeometry>
        </mxCell>
        <mxCell id="YcgIgXZNcNjS4kWtroWY-93" value="" style="shape=tableRow;horizontal=0;startSize=0;swimlaneHead=0;swimlaneBody=0;fillColor=none;collapsible=0;dropTarget=0;points=[[0,0.5],[1,0.5]];portConstraint=eastwest;top=0;left=0;right=0;bottom=0;whiteSpace=wrap;" parent="YcgIgXZNcNjS4kWtroWY-80" vertex="1">
          <mxGeometry y="150" width="320" height="50" as="geometry" />
        </mxCell>
        <mxCell id="YcgIgXZNcNjS4kWtroWY-94" value="" style="shape=partialRectangle;overflow=hidden;connectable=0;fillColor=none;top=0;left=0;bottom=0;right=0;whiteSpace=wrap;" parent="YcgIgXZNcNjS4kWtroWY-93" vertex="1">
          <mxGeometry width="30" height="50" as="geometry">
            <mxRectangle width="30" height="50" as="alternateBounds" />
          </mxGeometry>
        </mxCell>
        <mxCell id="YcgIgXZNcNjS4kWtroWY-95" value="utc timestamp NOT NULL DEFAULT CURRENT_TIMESTAMP" style="shape=partialRectangle;overflow=hidden;connectable=0;fillColor=none;align=left;top=0;left=0;bottom=0;right=0;spacingLeft=6;whiteSpace=wrap;" parent="YcgIgXZNcNjS4kWtroWY-93" vertex="1">
          <mxGeometry x="30" width="290" height="50" as="geometry">
            <mxRectangle width="290" height="50" as="alternateBounds" />
          </mxGeometry>
        </mxCell>
        <mxCell id="YcgIgXZNcNjS4kWtroWY-102" value="latest_status" style="shape=table;startSize=30;container=1;collapsible=1;childLayout=tableLayout;fixedRows=1;rowLines=0;fontStyle=1;align=center;resizeLast=1;whiteSpace=wrap;fontFamily=Carlito;fillColor=#ffe6cc;strokeColor=#d79b00;rounded=1;swimlaneFillColor=none;" parent="1" vertex="1">
          <mxGeometry x="40" y="560" width="320" height="120.00000000000023" as="geometry" />
        </mxCell>
        <mxCell id="YcgIgXZNcNjS4kWtroWY-103" value="" style="shape=tableRow;horizontal=0;startSize=0;swimlaneHead=0;swimlaneBody=0;fillColor=none;collapsible=0;dropTarget=0;points=[[0,0.5],[1,0.5]];portConstraint=eastwest;top=0;left=0;right=0;bottom=1;whiteSpace=wrap;" parent="YcgIgXZNcNjS4kWtroWY-102" vertex="1">
          <mxGeometry y="30" width="320" height="30" as="geometry" />
        </mxCell>
        <mxCell id="YcgIgXZNcNjS4kWtroWY-104" value="PK" style="shape=partialRectangle;overflow=hidden;connectable=0;fillColor=none;top=0;left=0;bottom=0;right=0;fontStyle=1;whiteSpace=wrap;" parent="YcgIgXZNcNjS4kWtroWY-103" vertex="1">
          <mxGeometry width="30" height="30" as="geometry">
            <mxRectangle width="30" height="30" as="alternateBounds" />
          </mxGeometry>
        </mxCell>
        <mxCell id="YcgIgXZNcNjS4kWtroWY-105" value="id bigint NOT NULL  AUTO_INCREMENT" style="shape=partialRectangle;overflow=hidden;connectable=0;fillColor=none;align=left;top=0;left=0;bottom=0;right=0;spacingLeft=6;fontStyle=5;whiteSpace=wrap;" parent="YcgIgXZNcNjS4kWtroWY-103" vertex="1">
          <mxGeometry x="30" width="290" height="30" as="geometry">
            <mxRectangle width="290" height="30" as="alternateBounds" />
          </mxGeometry>
        </mxCell>
        <mxCell id="YcgIgXZNcNjS4kWtroWY-106" value="" style="shape=tableRow;horizontal=0;startSize=0;swimlaneHead=0;swimlaneBody=0;fillColor=none;collapsible=0;dropTarget=0;points=[[0,0.5],[1,0.5]];portConstraint=eastwest;top=0;left=0;right=0;bottom=0;whiteSpace=wrap;" parent="YcgIgXZNcNjS4kWtroWY-102" vertex="1">
          <mxGeometry y="60" width="320" height="30" as="geometry" />
        </mxCell>
        <mxCell id="YcgIgXZNcNjS4kWtroWY-107" value="FK" style="shape=partialRectangle;overflow=hidden;connectable=0;fillColor=none;top=0;left=0;bottom=0;right=0;whiteSpace=wrap;" parent="YcgIgXZNcNjS4kWtroWY-106" vertex="1">
          <mxGeometry width="30" height="30" as="geometry">
            <mxRectangle width="30" height="30" as="alternateBounds" />
          </mxGeometry>
        </mxCell>
        <mxCell id="YcgIgXZNcNjS4kWtroWY-108" value="`uid` bigint NOT NULL" style="shape=partialRectangle;overflow=hidden;connectable=0;fillColor=none;align=left;top=0;left=0;bottom=0;right=0;spacingLeft=6;whiteSpace=wrap;fontStyle=3" parent="YcgIgXZNcNjS4kWtroWY-106" vertex="1">
          <mxGeometry x="30" width="290" height="30" as="geometry">
            <mxRectangle width="290" height="30" as="alternateBounds" />
          </mxGeometry>
        </mxCell>
        <mxCell id="YcgIgXZNcNjS4kWtroWY-109" value="" style="shape=tableRow;horizontal=0;startSize=0;swimlaneHead=0;swimlaneBody=0;fillColor=none;collapsible=0;dropTarget=0;points=[[0,0.5],[1,0.5]];portConstraint=eastwest;top=0;left=0;right=0;bottom=0;whiteSpace=wrap;" parent="YcgIgXZNcNjS4kWtroWY-102" vertex="1">
          <mxGeometry y="90" width="320" height="30" as="geometry" />
        </mxCell>
        <mxCell id="YcgIgXZNcNjS4kWtroWY-110" value="" style="shape=partialRectangle;overflow=hidden;connectable=0;fillColor=none;top=0;left=0;bottom=0;right=0;whiteSpace=wrap;" parent="YcgIgXZNcNjS4kWtroWY-109" vertex="1">
          <mxGeometry width="30" height="30" as="geometry">
            <mxRectangle width="30" height="30" as="alternateBounds" />
          </mxGeometry>
        </mxCell>
        <mxCell id="YcgIgXZNcNjS4kWtroWY-111" value="`data` json NOT NULL" style="shape=partialRectangle;overflow=hidden;connectable=0;fillColor=none;align=left;top=0;left=0;bottom=0;right=0;spacingLeft=6;whiteSpace=wrap;" parent="YcgIgXZNcNjS4kWtroWY-109" vertex="1">
          <mxGeometry x="30" width="290" height="30" as="geometry">
            <mxRectangle width="290" height="30" as="alternateBounds" />
          </mxGeometry>
        </mxCell>
        <mxCell id="YcgIgXZNcNjS4kWtroWY-115" value="statuses" style="shape=table;startSize=30;container=1;collapsible=1;childLayout=tableLayout;fixedRows=1;rowLines=0;fontStyle=1;align=center;resizeLast=1;whiteSpace=wrap;fontFamily=Carlito;fillColor=#ffe6cc;strokeColor=#d79b00;rounded=1;swimlaneFillColor=none;" parent="1" vertex="1">
          <mxGeometry x="840" y="440" width="320" height="200" as="geometry" />
        </mxCell>
        <mxCell id="YcgIgXZNcNjS4kWtroWY-116" value="" style="shape=tableRow;horizontal=0;startSize=0;swimlaneHead=0;swimlaneBody=0;fillColor=none;collapsible=0;dropTarget=0;points=[[0,0.5],[1,0.5]];portConstraint=eastwest;top=0;left=0;right=0;bottom=1;whiteSpace=wrap;" parent="YcgIgXZNcNjS4kWtroWY-115" vertex="1">
          <mxGeometry y="30" width="320" height="30" as="geometry" />
        </mxCell>
        <mxCell id="YcgIgXZNcNjS4kWtroWY-117" value="PK" style="shape=partialRectangle;overflow=hidden;connectable=0;fillColor=none;top=0;left=0;bottom=0;right=0;fontStyle=1;whiteSpace=wrap;" parent="YcgIgXZNcNjS4kWtroWY-116" vertex="1">
          <mxGeometry width="30" height="30" as="geometry">
            <mxRectangle width="30" height="30" as="alternateBounds" />
          </mxGeometry>
        </mxCell>
        <mxCell id="YcgIgXZNcNjS4kWtroWY-118" value="id bigint NOT NULL  AUTO_INCREMENT" style="shape=partialRectangle;overflow=hidden;connectable=0;fillColor=none;align=left;top=0;left=0;bottom=0;right=0;spacingLeft=6;fontStyle=5;whiteSpace=wrap;" parent="YcgIgXZNcNjS4kWtroWY-116" vertex="1">
          <mxGeometry x="30" width="290" height="30" as="geometry">
            <mxRectangle width="290" height="30" as="alternateBounds" />
          </mxGeometry>
        </mxCell>
        <mxCell id="YcgIgXZNcNjS4kWtroWY-119" value="" style="shape=tableRow;horizontal=0;startSize=0;swimlaneHead=0;swimlaneBody=0;fillColor=none;collapsible=0;dropTarget=0;points=[[0,0.5],[1,0.5]];portConstraint=eastwest;top=0;left=0;right=0;bottom=0;whiteSpace=wrap;" parent="YcgIgXZNcNjS4kWtroWY-115" vertex="1">
          <mxGeometry y="60" width="320" height="30" as="geometry" />
        </mxCell>
        <mxCell id="YcgIgXZNcNjS4kWtroWY-120" value="FK" style="shape=partialRectangle;overflow=hidden;connectable=0;fillColor=none;top=0;left=0;bottom=0;right=0;whiteSpace=wrap;" parent="YcgIgXZNcNjS4kWtroWY-119" vertex="1">
          <mxGeometry width="30" height="30" as="geometry">
            <mxRectangle width="30" height="30" as="alternateBounds" />
          </mxGeometry>
        </mxCell>
        <mxCell id="YcgIgXZNcNjS4kWtroWY-121" value="`sid` bigint NOT NULL" style="shape=partialRectangle;overflow=hidden;connectable=0;fillColor=none;align=left;top=0;left=0;bottom=0;right=0;spacingLeft=6;whiteSpace=wrap;fontStyle=3" parent="YcgIgXZNcNjS4kWtroWY-119" vertex="1">
          <mxGeometry x="30" width="290" height="30" as="geometry">
            <mxRectangle width="290" height="30" as="alternateBounds" />
          </mxGeometry>
        </mxCell>
        <mxCell id="YcgIgXZNcNjS4kWtroWY-122" value="" style="shape=tableRow;horizontal=0;startSize=0;swimlaneHead=0;swimlaneBody=0;fillColor=none;collapsible=0;dropTarget=0;points=[[0,0.5],[1,0.5]];portConstraint=eastwest;top=0;left=0;right=0;bottom=0;whiteSpace=wrap;" parent="YcgIgXZNcNjS4kWtroWY-115" vertex="1">
          <mxGeometry y="90" width="320" height="30" as="geometry" />
        </mxCell>
        <mxCell id="YcgIgXZNcNjS4kWtroWY-123" value="" style="shape=partialRectangle;overflow=hidden;connectable=0;fillColor=none;top=0;left=0;bottom=0;right=0;whiteSpace=wrap;" parent="YcgIgXZNcNjS4kWtroWY-122" vertex="1">
          <mxGeometry width="30" height="30" as="geometry">
            <mxRectangle width="30" height="30" as="alternateBounds" />
          </mxGeometry>
        </mxCell>
        <mxCell id="YcgIgXZNcNjS4kWtroWY-124" value="`data` json NOT NULL" style="shape=partialRectangle;overflow=hidden;connectable=0;fillColor=none;align=left;top=0;left=0;bottom=0;right=0;spacingLeft=6;whiteSpace=wrap;" parent="YcgIgXZNcNjS4kWtroWY-122" vertex="1">
          <mxGeometry x="30" width="290" height="30" as="geometry">
            <mxRectangle width="290" height="30" as="alternateBounds" />
          </mxGeometry>
        </mxCell>
        <mxCell id="YcgIgXZNcNjS4kWtroWY-125" value="" style="shape=tableRow;horizontal=0;startSize=0;swimlaneHead=0;swimlaneBody=0;fillColor=none;collapsible=0;dropTarget=0;points=[[0,0.5],[1,0.5]];portConstraint=eastwest;top=0;left=0;right=0;bottom=0;whiteSpace=wrap;" parent="YcgIgXZNcNjS4kWtroWY-115" vertex="1">
          <mxGeometry y="120" width="320" height="30" as="geometry" />
        </mxCell>
        <mxCell id="YcgIgXZNcNjS4kWtroWY-126" value="" style="shape=partialRectangle;overflow=hidden;connectable=0;fillColor=none;top=0;left=0;bottom=0;right=0;whiteSpace=wrap;" parent="YcgIgXZNcNjS4kWtroWY-125" vertex="1">
          <mxGeometry width="30" height="30" as="geometry">
            <mxRectangle width="30" height="30" as="alternateBounds" />
          </mxGeometry>
        </mxCell>
        <mxCell id="YcgIgXZNcNjS4kWtroWY-127" value="utc timestamp NOT NULL DEFAULT CURRENT_TIMESTAMP" style="shape=partialRectangle;overflow=hidden;connectable=0;fillColor=none;align=left;top=0;left=0;bottom=0;right=0;spacingLeft=6;whiteSpace=wrap;" parent="YcgIgXZNcNjS4kWtroWY-125" vertex="1">
          <mxGeometry x="30" width="290" height="30" as="geometry">
            <mxRectangle width="290" height="30" as="alternateBounds" />
          </mxGeometry>
        </mxCell>
        <mxCell id="YcgIgXZNcNjS4kWtroWY-128" value="" style="shape=tableRow;horizontal=0;startSize=0;swimlaneHead=0;swimlaneBody=0;fillColor=none;collapsible=0;dropTarget=0;points=[[0,0.5],[1,0.5]];portConstraint=eastwest;top=0;left=0;right=0;bottom=0;whiteSpace=wrap;" parent="YcgIgXZNcNjS4kWtroWY-115" vertex="1">
          <mxGeometry y="150" width="320" height="50" as="geometry" />
        </mxCell>
        <mxCell id="YcgIgXZNcNjS4kWtroWY-129" value="" style="shape=partialRectangle;overflow=hidden;connectable=0;fillColor=none;top=0;left=0;bottom=0;right=0;whiteSpace=wrap;" parent="YcgIgXZNcNjS4kWtroWY-128" vertex="1">
          <mxGeometry width="30" height="50" as="geometry">
            <mxRectangle width="30" height="50" as="alternateBounds" />
          </mxGeometry>
        </mxCell>
        <mxCell id="YcgIgXZNcNjS4kWtroWY-130" value="code int NOT NULL DEFAULT 0" style="shape=partialRectangle;overflow=hidden;connectable=0;fillColor=none;align=left;top=0;left=0;bottom=0;right=0;spacingLeft=6;whiteSpace=wrap;" parent="YcgIgXZNcNjS4kWtroWY-128" vertex="1">
          <mxGeometry x="30" width="290" height="50" as="geometry">
            <mxRectangle width="290" height="50" as="alternateBounds" />
          </mxGeometry>
        </mxCell>
        <mxCell id="YcgIgXZNcNjS4kWtroWY-134" value="commands" style="shape=table;startSize=30;container=1;collapsible=1;childLayout=tableLayout;fixedRows=1;rowLines=0;fontStyle=1;align=center;resizeLast=1;whiteSpace=wrap;fontFamily=Carlito;fillColor=#ffe6cc;strokeColor=#d79b00;rounded=1;swimlaneFillColor=none;" parent="1" vertex="1">
          <mxGeometry x="680" y="720" width="280" height="200" as="geometry" />
        </mxCell>
        <mxCell id="YcgIgXZNcNjS4kWtroWY-135" value="" style="shape=tableRow;horizontal=0;startSize=0;swimlaneHead=0;swimlaneBody=0;fillColor=none;collapsible=0;dropTarget=0;points=[[0,0.5],[1,0.5]];portConstraint=eastwest;top=0;left=0;right=0;bottom=1;whiteSpace=wrap;" parent="YcgIgXZNcNjS4kWtroWY-134" vertex="1">
          <mxGeometry y="30" width="280" height="30" as="geometry" />
        </mxCell>
        <mxCell id="YcgIgXZNcNjS4kWtroWY-136" value="PK" style="shape=partialRectangle;overflow=hidden;connectable=0;fillColor=none;top=0;left=0;bottom=0;right=0;fontStyle=1;whiteSpace=wrap;" parent="YcgIgXZNcNjS4kWtroWY-135" vertex="1">
          <mxGeometry width="30" height="30" as="geometry">
            <mxRectangle width="30" height="30" as="alternateBounds" />
          </mxGeometry>
        </mxCell>
        <mxCell id="YcgIgXZNcNjS4kWtroWY-137" value="id bigint NOT NULL  AUTO_INCREMENT" style="shape=partialRectangle;overflow=hidden;connectable=0;fillColor=none;align=left;top=0;left=0;bottom=0;right=0;spacingLeft=6;fontStyle=5;whiteSpace=wrap;" parent="YcgIgXZNcNjS4kWtroWY-135" vertex="1">
          <mxGeometry x="30" width="250" height="30" as="geometry">
            <mxRectangle width="250" height="30" as="alternateBounds" />
          </mxGeometry>
        </mxCell>
        <mxCell id="YcgIgXZNcNjS4kWtroWY-138" value="" style="shape=tableRow;horizontal=0;startSize=0;swimlaneHead=0;swimlaneBody=0;fillColor=none;collapsible=0;dropTarget=0;points=[[0,0.5],[1,0.5]];portConstraint=eastwest;top=0;left=0;right=0;bottom=0;whiteSpace=wrap;" parent="YcgIgXZNcNjS4kWtroWY-134" vertex="1">
          <mxGeometry y="60" width="280" height="30" as="geometry" />
        </mxCell>
        <mxCell id="YcgIgXZNcNjS4kWtroWY-139" value="FK" style="shape=partialRectangle;overflow=hidden;connectable=0;fillColor=none;top=0;left=0;bottom=0;right=0;whiteSpace=wrap;" parent="YcgIgXZNcNjS4kWtroWY-138" vertex="1">
          <mxGeometry width="30" height="30" as="geometry">
            <mxRectangle width="30" height="30" as="alternateBounds" />
          </mxGeometry>
        </mxCell>
        <mxCell id="YcgIgXZNcNjS4kWtroWY-140" value="`sid` bigint NOT NULL" style="shape=partialRectangle;overflow=hidden;connectable=0;fillColor=none;align=left;top=0;left=0;bottom=0;right=0;spacingLeft=6;whiteSpace=wrap;fontStyle=3" parent="YcgIgXZNcNjS4kWtroWY-138" vertex="1">
          <mxGeometry x="30" width="250" height="30" as="geometry">
            <mxRectangle width="250" height="30" as="alternateBounds" />
          </mxGeometry>
        </mxCell>
        <mxCell id="YcgIgXZNcNjS4kWtroWY-141" value="" style="shape=tableRow;horizontal=0;startSize=0;swimlaneHead=0;swimlaneBody=0;fillColor=none;collapsible=0;dropTarget=0;points=[[0,0.5],[1,0.5]];portConstraint=eastwest;top=0;left=0;right=0;bottom=0;whiteSpace=wrap;" parent="YcgIgXZNcNjS4kWtroWY-134" vertex="1">
          <mxGeometry y="90" width="280" height="30" as="geometry" />
        </mxCell>
        <mxCell id="YcgIgXZNcNjS4kWtroWY-142" value="" style="shape=partialRectangle;overflow=hidden;connectable=0;fillColor=none;top=0;left=0;bottom=0;right=0;whiteSpace=wrap;" parent="YcgIgXZNcNjS4kWtroWY-141" vertex="1">
          <mxGeometry width="30" height="30" as="geometry">
            <mxRectangle width="30" height="30" as="alternateBounds" />
          </mxGeometry>
        </mxCell>
        <mxCell id="YcgIgXZNcNjS4kWtroWY-143" value="`data` json NOT NULL" style="shape=partialRectangle;overflow=hidden;connectable=0;fillColor=none;align=left;top=0;left=0;bottom=0;right=0;spacingLeft=6;whiteSpace=wrap;" parent="YcgIgXZNcNjS4kWtroWY-141" vertex="1">
          <mxGeometry x="30" width="250" height="30" as="geometry">
            <mxRectangle width="250" height="30" as="alternateBounds" />
          </mxGeometry>
        </mxCell>
        <mxCell id="YcgIgXZNcNjS4kWtroWY-144" value="" style="shape=tableRow;horizontal=0;startSize=0;swimlaneHead=0;swimlaneBody=0;fillColor=none;collapsible=0;dropTarget=0;points=[[0,0.5],[1,0.5]];portConstraint=eastwest;top=0;left=0;right=0;bottom=0;whiteSpace=wrap;" parent="YcgIgXZNcNjS4kWtroWY-134" vertex="1">
          <mxGeometry y="120" width="280" height="30" as="geometry" />
        </mxCell>
        <mxCell id="YcgIgXZNcNjS4kWtroWY-145" value="" style="shape=partialRectangle;overflow=hidden;connectable=0;fillColor=none;top=0;left=0;bottom=0;right=0;whiteSpace=wrap;" parent="YcgIgXZNcNjS4kWtroWY-144" vertex="1">
          <mxGeometry width="30" height="30" as="geometry">
            <mxRectangle width="30" height="30" as="alternateBounds" />
          </mxGeometry>
        </mxCell>
        <mxCell id="YcgIgXZNcNjS4kWtroWY-146" value="utc timestamp NOT NULL DEFAULT CURRENT_TIMESTAMP" style="shape=partialRectangle;overflow=hidden;connectable=0;fillColor=none;align=left;top=0;left=0;bottom=0;right=0;spacingLeft=6;whiteSpace=wrap;" parent="YcgIgXZNcNjS4kWtroWY-144" vertex="1">
          <mxGeometry x="30" width="250" height="30" as="geometry">
            <mxRectangle width="250" height="30" as="alternateBounds" />
          </mxGeometry>
        </mxCell>
        <mxCell id="YcgIgXZNcNjS4kWtroWY-147" value="" style="shape=tableRow;horizontal=0;startSize=0;swimlaneHead=0;swimlaneBody=0;fillColor=none;collapsible=0;dropTarget=0;points=[[0,0.5],[1,0.5]];portConstraint=eastwest;top=0;left=0;right=0;bottom=0;whiteSpace=wrap;" parent="YcgIgXZNcNjS4kWtroWY-134" vertex="1">
          <mxGeometry y="150" width="280" height="50" as="geometry" />
        </mxCell>
        <mxCell id="YcgIgXZNcNjS4kWtroWY-148" value="" style="shape=partialRectangle;overflow=hidden;connectable=0;fillColor=none;top=0;left=0;bottom=0;right=0;whiteSpace=wrap;" parent="YcgIgXZNcNjS4kWtroWY-147" vertex="1">
          <mxGeometry width="30" height="50" as="geometry">
            <mxRectangle width="30" height="50" as="alternateBounds" />
          </mxGeometry>
        </mxCell>
        <mxCell id="YcgIgXZNcNjS4kWtroWY-149" value="code int NOT NULL DEFAULT 0" style="shape=partialRectangle;overflow=hidden;connectable=0;fillColor=none;align=left;top=0;left=0;bottom=0;right=0;spacingLeft=6;whiteSpace=wrap;" parent="YcgIgXZNcNjS4kWtroWY-147" vertex="1">
          <mxGeometry x="30" width="250" height="50" as="geometry">
            <mxRectangle width="250" height="50" as="alternateBounds" />
          </mxGeometry>
        </mxCell>
      </root>
    </mxGraphModel>
  </diagram>
</mxfile>
